G75*
%MOIN*%
%OFA0B0*%
%FSLAX24Y24*%
%IPPOS*%
%LPD*%
%AMOC8*
5,1,8,0,0,1.08239X$1,22.5*
%
%ADD10C,0.0000*%
%ADD11C,0.0515*%
%ADD12R,0.0260X0.0800*%
%ADD13C,0.0740*%
%ADD14OC8,0.0740*%
%ADD15R,0.0709X0.1417*%
%ADD16C,0.0060*%
%ADD17C,0.0240*%
%ADD18C,0.0160*%
D10*
X000180Y000180D02*
X000180Y018550D01*
X068172Y018550D01*
X068172Y000180D01*
X000180Y000180D01*
D11*
X006680Y002423D02*
X006680Y002937D01*
X005625Y003089D02*
X005481Y002595D01*
X004378Y003098D02*
X004657Y003532D01*
X003852Y004229D02*
X003462Y003892D01*
X002807Y004912D02*
X003276Y005125D01*
X002976Y006147D02*
X002466Y006074D01*
X002466Y007286D02*
X002976Y007213D01*
X003276Y008235D02*
X002807Y008448D01*
X003462Y009468D02*
X003852Y009131D01*
X004657Y009828D02*
X004378Y010262D01*
X005481Y010765D02*
X005625Y010271D01*
X006680Y010423D02*
X006680Y010937D01*
X007879Y010765D02*
X007735Y010271D01*
X008703Y009828D02*
X008982Y010262D01*
X009898Y009468D02*
X009508Y009131D01*
X010084Y008235D02*
X010553Y008448D01*
X013807Y008448D02*
X014276Y008235D01*
X014852Y009131D02*
X014462Y009468D01*
X015378Y010262D02*
X015657Y009828D01*
X016625Y010271D02*
X016481Y010765D01*
X017680Y010937D02*
X017680Y010423D01*
X018735Y010271D02*
X018879Y010765D01*
X019982Y010262D02*
X019703Y009828D01*
X020508Y009131D02*
X020898Y009468D01*
X021553Y008448D02*
X021084Y008235D01*
X021384Y007213D02*
X021894Y007286D01*
X024466Y007286D02*
X024976Y007213D01*
X025276Y008235D02*
X024807Y008448D01*
X025462Y009468D02*
X025852Y009131D01*
X026657Y009828D02*
X026378Y010262D01*
X027481Y010765D02*
X027625Y010271D01*
X028680Y010423D02*
X028680Y010937D01*
X029879Y010765D02*
X029735Y010271D01*
X030703Y009828D02*
X030982Y010262D01*
X031898Y009468D02*
X031508Y009131D01*
X032084Y008235D02*
X032553Y008448D01*
X035807Y008448D02*
X036276Y008235D01*
X036852Y009131D02*
X036462Y009468D01*
X037378Y010262D02*
X037657Y009828D01*
X038625Y010271D02*
X038481Y010765D01*
X039680Y010937D02*
X039680Y010423D01*
X040735Y010271D02*
X040879Y010765D01*
X041982Y010262D02*
X041703Y009828D01*
X042508Y009131D02*
X042898Y009468D01*
X043553Y008448D02*
X043084Y008235D01*
X043384Y007213D02*
X043894Y007286D01*
X046466Y007286D02*
X046976Y007213D01*
X047276Y008235D02*
X046807Y008448D01*
X047462Y009468D02*
X047852Y009131D01*
X048657Y009828D02*
X048378Y010262D01*
X049481Y010765D02*
X049625Y010271D01*
X050680Y010423D02*
X050680Y010937D01*
X051879Y010765D02*
X051735Y010271D01*
X052703Y009828D02*
X052982Y010262D01*
X053898Y009468D02*
X053508Y009131D01*
X054084Y008235D02*
X054553Y008448D01*
X057807Y008448D02*
X058276Y008235D01*
X058852Y009131D02*
X058462Y009468D01*
X059378Y010262D02*
X059657Y009828D01*
X060625Y010271D02*
X060481Y010765D01*
X061680Y010937D02*
X061680Y010423D01*
X062735Y010271D02*
X062879Y010765D01*
X063982Y010262D02*
X063703Y009828D01*
X064508Y009131D02*
X064898Y009468D01*
X065553Y008448D02*
X065084Y008235D01*
X065384Y007213D02*
X065894Y007286D01*
X065084Y005125D02*
X065553Y004912D01*
X064898Y003892D02*
X064508Y004229D01*
X063703Y003532D02*
X063982Y003098D01*
X062879Y002595D02*
X062735Y003089D01*
X061680Y002937D02*
X061680Y002423D01*
X060481Y002595D02*
X060625Y003089D01*
X059657Y003532D02*
X059378Y003098D01*
X058462Y003892D02*
X058852Y004229D01*
X058276Y005125D02*
X057807Y004912D01*
X054553Y004912D02*
X054084Y005125D01*
X053508Y004229D02*
X053898Y003892D01*
X052982Y003098D02*
X052703Y003532D01*
X051735Y003089D02*
X051879Y002595D01*
X050680Y002423D02*
X050680Y002937D01*
X049625Y003089D02*
X049481Y002595D01*
X048378Y003098D02*
X048657Y003532D01*
X047852Y004229D02*
X047462Y003892D01*
X046807Y004912D02*
X047276Y005125D01*
X046976Y006147D02*
X046466Y006074D01*
X043553Y004912D02*
X043084Y005125D01*
X042508Y004229D02*
X042898Y003892D01*
X041982Y003098D02*
X041703Y003532D01*
X040735Y003089D02*
X040879Y002595D01*
X039680Y002423D02*
X039680Y002937D01*
X038625Y003089D02*
X038481Y002595D01*
X037378Y003098D02*
X037657Y003532D01*
X036852Y004229D02*
X036462Y003892D01*
X035807Y004912D02*
X036276Y005125D01*
X035976Y006147D02*
X035466Y006074D01*
X032553Y004912D02*
X032084Y005125D01*
X031508Y004229D02*
X031898Y003892D01*
X030982Y003098D02*
X030703Y003532D01*
X029735Y003089D02*
X029879Y002595D01*
X028680Y002423D02*
X028680Y002937D01*
X027625Y003089D02*
X027481Y002595D01*
X026378Y003098D02*
X026657Y003532D01*
X025852Y004229D02*
X025462Y003892D01*
X024807Y004912D02*
X025276Y005125D01*
X024976Y006147D02*
X024466Y006074D01*
X021553Y004912D02*
X021084Y005125D01*
X020508Y004229D02*
X020898Y003892D01*
X019982Y003098D02*
X019703Y003532D01*
X018735Y003089D02*
X018879Y002595D01*
X017680Y002423D02*
X017680Y002937D01*
X016625Y003089D02*
X016481Y002595D01*
X015378Y003098D02*
X015657Y003532D01*
X014852Y004229D02*
X014462Y003892D01*
X013807Y004912D02*
X014276Y005125D01*
X013976Y006147D02*
X013466Y006074D01*
X010553Y004912D02*
X010084Y005125D01*
X009508Y004229D02*
X009898Y003892D01*
X008982Y003098D02*
X008703Y003532D01*
X007735Y003089D02*
X007879Y002595D01*
X010384Y007213D02*
X010894Y007286D01*
X013466Y007286D02*
X013976Y007213D01*
X032384Y007213D02*
X032894Y007286D01*
X035466Y007286D02*
X035976Y007213D01*
X054384Y007213D02*
X054894Y007286D01*
X057466Y007286D02*
X057976Y007213D01*
X057976Y006147D02*
X057466Y006074D01*
D12*
X036930Y012200D03*
X036430Y012200D03*
X035930Y012200D03*
X035430Y012200D03*
X034930Y012200D03*
X034430Y012200D03*
X033930Y012200D03*
X033430Y012200D03*
X032930Y012200D03*
X032430Y012200D03*
X031930Y012200D03*
X031430Y012200D03*
X030930Y012200D03*
X030430Y012200D03*
X030430Y016160D03*
X030930Y016160D03*
X031430Y016160D03*
X031930Y016160D03*
X032430Y016160D03*
X032930Y016160D03*
X033430Y016160D03*
X033930Y016160D03*
X034430Y016160D03*
X034930Y016160D03*
X035430Y016160D03*
X035930Y016160D03*
X036430Y016160D03*
X036930Y016160D03*
X015430Y016160D03*
X014930Y016160D03*
X014430Y016160D03*
X013930Y016160D03*
X013430Y016160D03*
X012930Y016160D03*
X012430Y016160D03*
X011930Y016160D03*
X011430Y016160D03*
X010930Y016160D03*
X010430Y016160D03*
X009930Y016160D03*
X009430Y016160D03*
X008930Y016160D03*
X008930Y012200D03*
X009430Y012200D03*
X009930Y012200D03*
X010430Y012200D03*
X010930Y012200D03*
X011430Y012200D03*
X011930Y012200D03*
X012430Y012200D03*
X012930Y012200D03*
X013430Y012200D03*
X013930Y012200D03*
X014430Y012200D03*
X014930Y012200D03*
X015430Y012200D03*
D13*
X017680Y008680D03*
X006680Y008680D03*
X006680Y004680D03*
X017680Y004680D03*
X028680Y004680D03*
X039680Y004680D03*
X050680Y004680D03*
X061680Y004680D03*
X061680Y008680D03*
X050680Y008680D03*
X039680Y008680D03*
X028680Y008680D03*
D14*
X059680Y012680D03*
X060680Y012680D03*
X061680Y012680D03*
X062680Y012680D03*
X063680Y012680D03*
X063680Y013680D03*
X062680Y013680D03*
X061680Y013680D03*
X060680Y013680D03*
X059680Y013680D03*
D15*
X027180Y013117D03*
X027180Y015243D03*
X005680Y015243D03*
X005680Y013117D03*
D16*
X005700Y013080D01*
X005700Y011100D01*
X006000Y010800D01*
X006000Y009960D01*
X005460Y009420D01*
X005100Y009480D02*
X005100Y014700D01*
X005640Y015240D01*
X005680Y015243D01*
X008940Y015960D02*
X008940Y016140D01*
X008930Y016160D01*
X008940Y015960D02*
X009660Y015240D01*
X009660Y015060D01*
X007200Y012600D01*
X007200Y010440D01*
X006720Y009960D01*
X006720Y008700D01*
X006680Y008680D01*
X004500Y008580D02*
X004500Y006000D01*
X007620Y002880D01*
X007800Y002880D01*
X007807Y002842D01*
X007860Y002820D01*
X008700Y002820D01*
X009600Y001920D01*
X019440Y001920D01*
X020880Y003360D01*
X020280Y003960D01*
X019560Y003960D01*
X018840Y003240D01*
X018840Y002880D01*
X018807Y002842D01*
X018900Y002040D02*
X019800Y002940D01*
X019800Y003300D01*
X019843Y003315D01*
X020880Y003360D02*
X022200Y002040D01*
X028980Y002040D01*
X029760Y002820D01*
X029807Y002842D01*
X029820Y002820D01*
X030720Y002820D01*
X031500Y002040D01*
X040020Y002040D01*
X040800Y002820D01*
X040807Y002842D01*
X040860Y002820D01*
X041700Y002820D01*
X042480Y002040D01*
X051000Y002040D01*
X051780Y002820D01*
X051807Y002842D01*
X052680Y003480D02*
X052800Y003360D01*
X052843Y003315D01*
X052860Y003300D01*
X053520Y003300D01*
X054780Y002040D01*
X062880Y002040D01*
X063840Y003000D01*
X063840Y003300D01*
X063843Y003315D01*
X064320Y003480D02*
X063840Y003960D01*
X062940Y003960D01*
X061680Y002700D01*
X061680Y002680D01*
X060553Y002842D02*
X060540Y002820D01*
X060420Y002700D01*
X054300Y002700D01*
X053040Y003960D01*
X051000Y003960D01*
X049920Y002880D01*
X049560Y002880D01*
X049553Y002842D01*
X049500Y002820D01*
X048660Y002820D01*
X048540Y002700D01*
X043500Y002700D01*
X042240Y003960D01*
X039660Y003960D01*
X038580Y002880D01*
X038553Y002842D01*
X038640Y002220D02*
X039300Y002880D01*
X039300Y003060D01*
X039720Y003480D01*
X041700Y003480D01*
X041820Y003360D01*
X041843Y003315D01*
X041880Y003300D01*
X042720Y003300D01*
X043800Y002220D01*
X049680Y002220D01*
X050280Y002820D01*
X050280Y003060D01*
X050700Y003480D01*
X052680Y003480D01*
X053100Y004080D02*
X053820Y003360D01*
X059460Y003360D01*
X059517Y003315D01*
X058680Y004620D02*
X058140Y004080D01*
X053760Y004080D01*
X053703Y004061D01*
X053100Y004080D02*
X050100Y004080D01*
X049380Y003360D01*
X048540Y003360D01*
X048517Y003315D01*
X047040Y004980D02*
X046560Y004500D01*
X043440Y004500D01*
X043320Y004620D01*
X042360Y004620D01*
X041940Y004200D01*
X039480Y004200D01*
X038700Y004980D01*
X036060Y004980D01*
X036041Y005018D01*
X036660Y004620D02*
X038880Y004620D01*
X039420Y004080D01*
X042660Y004080D01*
X042703Y004061D01*
X039720Y004680D02*
X039680Y004680D01*
X039720Y004680D02*
X042240Y007200D01*
X043620Y007200D01*
X043639Y007249D01*
X043860Y007800D02*
X043320Y008340D01*
X043319Y008342D01*
X043260Y008340D01*
X040020Y008340D01*
X039900Y008220D01*
X036840Y008220D01*
X035640Y009420D01*
X034200Y009420D01*
X033180Y008400D01*
X032340Y008400D01*
X032319Y008342D01*
X031680Y009240D02*
X030000Y007560D01*
X031200Y007200D02*
X028680Y004680D01*
X028620Y004080D02*
X028080Y004620D01*
X025680Y004620D01*
X025140Y004080D01*
X020760Y004080D01*
X020703Y004061D01*
X020700Y004080D01*
X019500Y004080D01*
X019380Y003960D01*
X015540Y003960D01*
X015060Y003480D01*
X014340Y003480D01*
X013800Y004020D01*
X009720Y004020D01*
X009703Y004061D01*
X010320Y004620D02*
X010800Y004140D01*
X014580Y004140D01*
X014640Y004080D01*
X014657Y004061D01*
X016500Y004980D02*
X017400Y004080D01*
X019320Y004080D01*
X019860Y004620D01*
X021300Y004620D01*
X021420Y004500D01*
X024540Y004500D01*
X025020Y004980D01*
X025041Y005018D01*
X025140Y005580D02*
X018900Y005580D01*
X020040Y004980D02*
X021300Y004980D01*
X021319Y005018D01*
X020040Y004980D02*
X019260Y004200D01*
X017460Y004200D01*
X016140Y005520D01*
X013860Y005520D01*
X013380Y005040D01*
X010320Y005040D01*
X010319Y005018D01*
X010320Y004620D02*
X007980Y004620D01*
X006720Y004680D02*
X006680Y004680D01*
X006720Y004680D02*
X009240Y007200D01*
X010620Y007200D01*
X010639Y007249D01*
X009780Y007680D02*
X012120Y007680D01*
X013680Y006120D01*
X013721Y006111D01*
X013380Y006840D02*
X015120Y006840D01*
X018480Y010200D01*
X018807Y010518D01*
X018780Y010500D01*
X018480Y010200D01*
X021000Y007680D01*
X022320Y007680D01*
X024300Y005700D01*
X025080Y005700D01*
X027300Y007920D01*
X027300Y008160D01*
X029640Y010500D01*
X029760Y010500D01*
X029807Y010518D01*
X029820Y010560D01*
X030480Y010560D01*
X031680Y011760D01*
X031680Y012660D01*
X031740Y012720D01*
X032100Y012720D01*
X032160Y012660D01*
X032160Y011760D01*
X032220Y011700D01*
X032640Y011700D01*
X032700Y011760D01*
X032700Y012660D01*
X032760Y012720D01*
X033600Y012720D01*
X033900Y012420D01*
X033900Y012240D01*
X033930Y012200D01*
X033430Y012200D02*
X033420Y012180D01*
X033420Y011280D01*
X033120Y010980D01*
X032520Y011040D02*
X028380Y006900D01*
X027540Y006900D01*
X025980Y006900D02*
X025920Y006840D01*
X024360Y006840D01*
X024060Y007140D01*
X024060Y007440D01*
X024300Y007680D01*
X025260Y007680D01*
X027540Y009960D01*
X027540Y010500D01*
X027553Y010518D01*
X028680Y010680D02*
X029160Y011160D01*
X030600Y011160D01*
X031200Y011760D01*
X031200Y012660D01*
X032880Y014340D01*
X035400Y014340D01*
X035580Y014160D01*
X035580Y014040D01*
X036300Y014040D01*
X038340Y012000D01*
X038220Y011700D02*
X053100Y011700D01*
X055560Y014160D01*
X061860Y014160D01*
X062340Y013680D01*
X062680Y013680D01*
X062880Y013200D02*
X063180Y013500D01*
X063180Y014880D01*
X061920Y016140D01*
X036960Y016140D01*
X036930Y016160D01*
X036900Y016200D01*
X036900Y016380D01*
X035940Y017340D01*
X035460Y017340D02*
X036420Y016380D01*
X036420Y016200D01*
X036430Y016160D01*
X036480Y016140D01*
X036480Y015900D01*
X037320Y015060D01*
X035880Y015060D02*
X035880Y016140D01*
X035930Y016160D01*
X035430Y016160D02*
X035400Y016200D01*
X035400Y016560D01*
X034440Y017520D01*
X006540Y017520D01*
X001980Y012960D01*
X001980Y006000D01*
X003000Y004980D01*
X003041Y005018D01*
X004500Y005160D02*
X004500Y003360D01*
X004517Y003315D01*
X006180Y004500D02*
X007200Y003480D01*
X008700Y003480D01*
X008820Y003360D01*
X008843Y003315D01*
X008880Y003300D01*
X010140Y002040D01*
X018900Y002040D01*
X021540Y003240D02*
X025380Y003240D01*
X026100Y003960D01*
X029400Y003960D01*
X030000Y003360D01*
X030840Y003360D01*
X030843Y003315D01*
X030900Y003300D01*
X036600Y003300D01*
X037680Y002220D01*
X038640Y002220D01*
X036660Y004620D02*
X036120Y004080D01*
X031740Y004080D01*
X031703Y004061D01*
X031680Y004080D01*
X028620Y004080D01*
X025657Y004061D02*
X025620Y004020D01*
X025080Y003480D01*
X022140Y003480D01*
X020220Y007200D02*
X017700Y004680D01*
X017680Y004680D01*
X016500Y004980D02*
X014100Y004980D01*
X014041Y005018D01*
X013380Y006840D02*
X012420Y007800D01*
X009960Y007800D01*
X007860Y009900D01*
X007860Y010500D01*
X007807Y010518D01*
X007320Y010140D02*
X009780Y007680D01*
X012660Y008100D02*
X012660Y012660D01*
X010200Y015120D01*
X010200Y016620D01*
X010260Y016680D01*
X010620Y016680D01*
X010920Y016380D01*
X010920Y016200D01*
X010930Y016160D01*
X010440Y016140D02*
X010430Y016160D01*
X010440Y016140D02*
X010440Y015960D01*
X012720Y013680D01*
X017940Y013680D01*
X022260Y009360D01*
X022740Y009360D01*
X023940Y008160D01*
X023940Y006900D01*
X024720Y006120D01*
X024721Y006111D01*
X025140Y005580D02*
X027420Y007860D01*
X027420Y008100D01*
X029040Y009720D01*
X029820Y009720D01*
X031920Y011820D01*
X031920Y012180D01*
X031930Y012200D01*
X031440Y012240D02*
X031430Y012200D01*
X031440Y012240D02*
X031440Y012600D01*
X032940Y014100D01*
X035340Y014100D01*
X035580Y014040D02*
X034440Y012900D01*
X034440Y012240D01*
X034430Y012200D01*
X034930Y012200D02*
X034980Y012180D01*
X034980Y010440D01*
X036660Y008760D01*
X037320Y008760D01*
X038520Y009960D01*
X038520Y010500D01*
X038553Y010518D01*
X038640Y011160D02*
X039300Y010500D01*
X039300Y010260D01*
X040800Y008760D01*
X043380Y008760D01*
X043860Y009240D01*
X047640Y009240D01*
X047657Y009299D01*
X047700Y009240D01*
X052860Y009240D01*
X053340Y008760D01*
X054360Y008760D01*
X054840Y009240D01*
X058620Y009240D01*
X058657Y009299D01*
X058680Y009840D02*
X059220Y009300D01*
X064680Y009300D01*
X064703Y009299D01*
X063840Y010020D02*
X063240Y009420D01*
X059520Y009420D01*
X058920Y010020D01*
X052860Y010020D01*
X052843Y010045D01*
X052860Y010680D02*
X052020Y009840D01*
X050760Y009840D01*
X050100Y010500D01*
X049560Y010500D01*
X049553Y010518D01*
X048517Y010045D02*
X048480Y010080D01*
X042720Y010080D01*
X041460Y011340D01*
X038280Y011340D01*
X037200Y010260D01*
X037517Y010045D01*
X037500Y010080D01*
X037380Y010080D01*
X037200Y010260D01*
X035460Y012000D01*
X035460Y012180D01*
X035430Y012200D01*
X035880Y012240D02*
X035880Y012420D01*
X035580Y012720D01*
X036180Y013320D01*
X036480Y013320D02*
X036900Y012900D01*
X036900Y012240D01*
X036930Y012200D01*
X036480Y012180D02*
X036430Y012200D01*
X036480Y012180D02*
X036480Y011760D01*
X036660Y011580D01*
X037200Y011580D01*
X037320Y011700D01*
X038220Y011700D01*
X037200Y011760D02*
X037140Y011700D01*
X036720Y011700D01*
X036660Y011760D01*
X036660Y012660D01*
X036600Y012720D01*
X036240Y012720D01*
X036180Y012660D01*
X036180Y011760D01*
X036480Y011460D01*
X057420Y011460D01*
X059640Y013680D01*
X059680Y013680D01*
X060680Y013680D02*
X061020Y013680D01*
X061500Y013200D01*
X062880Y013200D01*
X062700Y012720D02*
X062680Y012680D01*
X062700Y012720D02*
X063660Y012720D01*
X063680Y012680D01*
X061680Y012720D02*
X061680Y012680D01*
X061680Y012720D02*
X060720Y012720D01*
X060680Y012680D01*
X061800Y011340D02*
X052620Y011340D01*
X051840Y010560D01*
X051807Y010518D01*
X052860Y010680D02*
X060420Y010680D01*
X060540Y010560D01*
X060553Y010518D01*
X061800Y011340D02*
X062580Y010560D01*
X062760Y010560D01*
X062807Y010518D01*
X063843Y010045D02*
X063840Y010020D01*
X058680Y009840D02*
X054300Y009840D01*
X053760Y009300D01*
X053703Y009299D01*
X053700Y009300D01*
X053640Y009360D01*
X048600Y009360D01*
X048120Y009840D01*
X044280Y009840D01*
X043740Y009300D01*
X042720Y009300D01*
X042703Y009299D01*
X038100Y009720D02*
X037680Y009300D01*
X036660Y009300D01*
X036657Y009299D01*
X036600Y009300D01*
X035160Y010740D01*
X035160Y012600D01*
X035280Y012720D01*
X035580Y012720D01*
X035340Y013320D02*
X034680Y012660D01*
X034680Y010440D01*
X035460Y009660D01*
X034200Y009420D02*
X034200Y012600D01*
X033960Y012840D01*
X032700Y012840D01*
X032460Y012600D01*
X032460Y012240D01*
X032430Y012200D01*
X032880Y012180D02*
X032930Y012200D01*
X032880Y012180D02*
X032880Y010440D01*
X033900Y009420D01*
X032880Y010440D02*
X031740Y009300D01*
X031703Y009299D01*
X031680Y009240D01*
X029820Y009480D02*
X029460Y009480D01*
X028680Y008700D01*
X028680Y008680D01*
X027060Y009660D02*
X026700Y009300D01*
X025680Y009300D01*
X025657Y009299D01*
X025320Y009840D02*
X025080Y009600D01*
X025080Y008400D01*
X025041Y008342D01*
X023700Y008100D02*
X022560Y009240D01*
X020760Y009240D01*
X020703Y009299D01*
X020400Y009540D02*
X020100Y009240D01*
X020100Y009000D01*
X020340Y008760D01*
X021360Y008760D01*
X021480Y008880D01*
X022320Y008880D01*
X023580Y007620D01*
X024721Y007249D02*
X024780Y007260D01*
X025200Y007260D01*
X028020Y010080D01*
X028020Y010800D01*
X029580Y012360D01*
X029580Y013260D01*
X029640Y013500D02*
X029880Y013260D01*
X030060Y013380D02*
X030180Y013500D01*
X030060Y013380D02*
X030420Y013020D01*
X030420Y012240D01*
X030430Y012200D01*
X030900Y012240D02*
X030930Y012200D01*
X030900Y012240D02*
X030900Y013080D01*
X029580Y014400D01*
X012480Y014400D01*
X011160Y015720D01*
X011160Y016620D01*
X010980Y016800D01*
X009900Y016800D01*
X009480Y016380D01*
X009480Y016200D01*
X009430Y016160D01*
X009900Y016140D02*
X009930Y016160D01*
X009900Y016140D02*
X009900Y013860D01*
X007320Y011280D01*
X007320Y010140D01*
X005100Y009480D02*
X002880Y007260D01*
X002760Y007260D01*
X002721Y007249D01*
X002100Y007080D02*
X002640Y006540D01*
X003120Y006540D01*
X004500Y005160D01*
X006180Y004500D02*
X006180Y014100D01*
X009000Y016920D01*
X031860Y016920D01*
X032400Y016380D01*
X032400Y016200D01*
X032430Y016160D01*
X031980Y016140D02*
X031980Y015900D01*
X033420Y014460D01*
X055320Y014460D01*
X055440Y014340D01*
X056700Y014580D02*
X035820Y014580D01*
X034680Y015720D01*
X034680Y016620D01*
X034620Y016680D01*
X034260Y016680D01*
X033960Y016380D01*
X033960Y016200D01*
X033930Y016160D01*
X034380Y016140D02*
X034380Y015900D01*
X034140Y015660D01*
X033240Y015660D01*
X033180Y015720D01*
X033180Y016620D01*
X032400Y017400D01*
X006600Y017400D01*
X002100Y012900D01*
X002100Y007080D01*
X009720Y009240D02*
X009703Y009299D01*
X009720Y009240D02*
X012420Y009240D01*
X013380Y008940D02*
X013380Y007560D01*
X013680Y007260D01*
X013721Y007249D01*
X017680Y008680D02*
X017700Y008640D01*
X019740Y008640D01*
X020100Y008280D01*
X020220Y007200D02*
X021600Y007200D01*
X021639Y007249D01*
X020400Y009540D02*
X020400Y010380D01*
X017340Y013440D01*
X018840Y013080D02*
X027180Y013080D01*
X027180Y013117D01*
X027180Y013140D01*
X028080Y014040D01*
X029400Y014040D01*
X030060Y013380D01*
X029640Y013500D02*
X029520Y013500D01*
X027060Y011040D01*
X027060Y009660D01*
X025380Y009840D02*
X025320Y009840D01*
X025380Y009840D02*
X029340Y013800D01*
X030720Y014340D02*
X029820Y015240D01*
X027180Y015240D01*
X027180Y015243D01*
X027180Y015240D02*
X027120Y015180D01*
X016200Y015180D01*
X016140Y014640D02*
X012780Y014640D01*
X011460Y015960D01*
X011460Y016140D01*
X011430Y016160D01*
X014930Y016160D02*
X014940Y016200D01*
X014940Y016380D01*
X015240Y016680D01*
X025020Y016680D01*
X025020Y016200D02*
X015480Y016200D01*
X015430Y016160D01*
X016260Y017160D02*
X032100Y017160D01*
X032880Y016380D01*
X032880Y016200D01*
X032930Y016160D01*
X033430Y016160D02*
X033480Y016200D01*
X033480Y016380D01*
X033900Y016800D01*
X034980Y016800D01*
X035160Y016620D01*
X035160Y015720D01*
X035220Y015660D01*
X035640Y015660D01*
X035700Y015720D01*
X035700Y016800D01*
X035220Y017280D01*
X035220Y017400D01*
X035400Y017580D01*
X060660Y017580D01*
X066300Y011940D01*
X066300Y004740D01*
X065040Y003480D01*
X064320Y003480D01*
X064703Y004061D02*
X064680Y004080D01*
X061620Y004080D01*
X061080Y004620D01*
X058680Y004620D01*
X061680Y004680D02*
X064200Y007200D01*
X065580Y007200D01*
X065639Y007249D01*
X064740Y007800D02*
X065280Y008340D01*
X065319Y008342D01*
X064740Y007800D02*
X057900Y007800D01*
X057360Y008340D01*
X054360Y008340D01*
X054319Y008342D01*
X054300Y008340D01*
X051000Y008340D01*
X050460Y007800D01*
X043860Y007800D01*
X038100Y009720D02*
X038100Y010920D01*
X038340Y011160D01*
X038640Y011160D01*
X037200Y011760D02*
X037200Y012900D01*
X036540Y013560D01*
X036480Y013560D01*
X036300Y013740D01*
X035820Y014820D02*
X062940Y014820D01*
X036900Y007920D02*
X036900Y007260D01*
X035760Y006120D01*
X035721Y006111D01*
X032639Y007249D02*
X032580Y007200D01*
X031200Y007200D01*
X019843Y010045D02*
X019800Y010080D01*
X019800Y010380D01*
X018600Y011580D01*
X018600Y011760D01*
X017640Y010680D02*
X016740Y011580D01*
X016740Y011760D01*
X015430Y012200D02*
X015420Y012240D01*
X015420Y012480D01*
X014460Y013440D01*
X014160Y013320D02*
X014880Y012600D01*
X014880Y012240D01*
X014930Y012200D01*
X015420Y012180D02*
X015430Y012200D01*
X015420Y012180D02*
X015420Y010980D01*
X013380Y008940D01*
X017640Y010680D02*
X017680Y010680D01*
X010200Y013680D02*
X008940Y012420D01*
X008940Y012240D01*
X008930Y012200D01*
X030300Y015060D02*
X030540Y014820D01*
X031140Y014820D01*
X031380Y015060D01*
X031380Y016140D01*
X031430Y016160D01*
X030960Y016200D02*
X030930Y016160D01*
X030960Y016200D02*
X030960Y016380D01*
X031260Y016680D01*
X031620Y016680D01*
X031680Y016620D01*
X031680Y015420D01*
X032040Y015060D01*
X031080Y015060D02*
X031080Y015300D01*
X030480Y015900D01*
X030480Y016140D01*
X030430Y016160D01*
X031930Y016160D02*
X031980Y016140D01*
X034380Y016140D02*
X034430Y016160D01*
X034930Y016160D02*
X034980Y016140D01*
X034980Y015660D01*
X035820Y014820D01*
X035880Y012240D02*
X035930Y012200D01*
X050700Y004680D02*
X053220Y007200D01*
X054600Y007200D01*
X054639Y007249D01*
X047041Y005018D02*
X047040Y004980D01*
X050680Y004680D02*
X050700Y004680D01*
D17*
X036900Y007920D03*
X033900Y009420D03*
X035460Y009660D03*
X033120Y010980D03*
X032520Y011040D03*
X029820Y009480D03*
X023700Y008100D03*
X023580Y007620D03*
X025980Y006900D03*
X027540Y006900D03*
X030000Y007560D03*
X020100Y008280D03*
X012660Y008100D03*
X012420Y009240D03*
X005460Y009420D03*
X004500Y008580D03*
X016740Y011760D03*
X018600Y011760D03*
X018840Y013080D03*
X017340Y013440D03*
X014460Y013440D03*
X014160Y013320D03*
X010200Y013680D03*
X009660Y015060D03*
X016140Y014640D03*
X016200Y015180D03*
X016260Y017160D03*
X025020Y016680D03*
X025020Y016200D03*
X030300Y015060D03*
X031080Y015060D03*
X032040Y015060D03*
X030720Y014340D03*
X029340Y013800D03*
X030180Y013500D03*
X029880Y013260D03*
X029580Y013260D03*
X035340Y013320D03*
X036180Y013320D03*
X036480Y013320D03*
X036300Y013740D03*
X035340Y014100D03*
X035880Y015060D03*
X037320Y015060D03*
X035940Y017340D03*
X035460Y017340D03*
X038340Y012000D03*
X038220Y011700D03*
X055440Y014340D03*
X056700Y014580D03*
X062940Y014820D03*
X022140Y003480D03*
X021540Y003240D03*
X018900Y005580D03*
X007980Y004620D03*
D18*
X006038Y004081D02*
X004770Y004081D01*
X004770Y004017D02*
X004770Y005214D01*
X004729Y005313D01*
X004653Y005389D01*
X003273Y006769D01*
X003174Y006810D01*
X003150Y006810D01*
X003210Y006842D01*
X003265Y006883D01*
X003313Y006932D01*
X003353Y006988D01*
X003383Y007050D01*
X003404Y007116D01*
X003409Y007150D01*
X002721Y007249D01*
X002721Y007249D01*
X003409Y007150D01*
X003413Y007184D01*
X003413Y007253D01*
X003401Y007321D01*
X003379Y007386D01*
X003346Y007447D01*
X003305Y007502D01*
X003256Y007550D01*
X003200Y007590D01*
X003138Y007620D01*
X003072Y007641D01*
X002783Y007682D01*
X002494Y007724D01*
X002425Y007723D01*
X002370Y007713D01*
X002370Y008197D01*
X002376Y008182D01*
X002511Y008037D01*
X003160Y007741D01*
X003357Y007734D01*
X003543Y007804D01*
X003687Y007939D01*
X003769Y008119D01*
X003776Y008316D01*
X003707Y008502D01*
X003572Y008647D01*
X002923Y008942D01*
X002726Y008949D01*
X002540Y008880D01*
X002396Y008745D01*
X002370Y008689D01*
X002370Y012788D01*
X005146Y015564D01*
X005146Y015323D01*
X005600Y015323D01*
X005600Y016018D01*
X006712Y017130D01*
X008828Y017130D01*
X006214Y014516D01*
X006214Y015163D01*
X005760Y015163D01*
X005760Y015323D01*
X005600Y015323D01*
X005600Y015163D01*
X005146Y015163D01*
X005146Y014511D01*
X005158Y014465D01*
X005182Y014424D01*
X005215Y014390D01*
X005256Y014367D01*
X005302Y014354D01*
X005600Y014354D01*
X005600Y015163D01*
X005760Y015163D01*
X005760Y014354D01*
X006052Y014354D01*
X006027Y014329D01*
X005951Y014253D01*
X005910Y014154D01*
X005910Y014066D01*
X003648Y014066D01*
X003806Y014225D02*
X005939Y014225D01*
X005910Y014066D02*
X005278Y014066D01*
X005190Y014029D01*
X005122Y013962D01*
X005086Y013873D01*
X005086Y012361D01*
X005122Y012272D01*
X005190Y012205D01*
X005278Y012168D01*
X005430Y012168D01*
X005430Y011269D01*
X005246Y011215D01*
X005092Y011091D01*
X004997Y010917D01*
X004976Y010720D01*
X005176Y010036D01*
X005300Y009882D01*
X005455Y009797D01*
X005438Y009780D01*
X005388Y009780D01*
X005256Y009725D01*
X005155Y009624D01*
X005100Y009492D01*
X005100Y009348D01*
X005155Y009216D01*
X005256Y009115D01*
X005388Y009060D01*
X005532Y009060D01*
X005664Y009115D01*
X005765Y009216D01*
X005820Y009348D01*
X005820Y009398D01*
X005910Y009488D01*
X005910Y004972D01*
X004770Y006112D01*
X004770Y008341D01*
X004805Y008376D01*
X004860Y008508D01*
X004860Y008652D01*
X004805Y008784D01*
X004704Y008885D01*
X004572Y008940D01*
X004428Y008940D01*
X004296Y008885D01*
X004293Y008882D01*
X004355Y009068D01*
X004341Y009265D01*
X004252Y009442D01*
X003713Y009909D01*
X003526Y009971D01*
X003328Y009957D01*
X003151Y009869D01*
X003022Y009719D01*
X002959Y009531D01*
X002973Y009334D01*
X003062Y009157D01*
X003601Y008690D01*
X003788Y008628D01*
X003986Y008642D01*
X004163Y008730D01*
X004182Y008752D01*
X004140Y008652D01*
X004140Y008508D01*
X004195Y008376D01*
X004230Y008341D01*
X004230Y005946D01*
X004271Y005847D01*
X006683Y003435D01*
X006581Y003435D01*
X006398Y003359D01*
X006258Y003219D01*
X006183Y003036D01*
X006183Y002324D01*
X006258Y002141D01*
X006398Y002001D01*
X006581Y001925D01*
X006779Y001925D01*
X006962Y002001D01*
X007102Y002141D01*
X007177Y002324D01*
X007177Y002941D01*
X007294Y002824D01*
X007429Y002360D01*
X007553Y002206D01*
X007727Y002111D01*
X007924Y002090D01*
X008114Y002145D01*
X008268Y002269D01*
X008363Y002443D01*
X008375Y002550D01*
X008588Y002550D01*
X009371Y001767D01*
X009447Y001691D01*
X009546Y001650D01*
X019494Y001650D01*
X019593Y001691D01*
X020880Y002978D01*
X021971Y001887D01*
X022047Y001811D01*
X022146Y001770D01*
X029034Y001770D01*
X029133Y001811D01*
X029542Y002220D01*
X029553Y002206D01*
X029727Y002111D01*
X029924Y002090D01*
X030114Y002145D01*
X030268Y002269D01*
X030363Y002443D01*
X030375Y002550D01*
X030608Y002550D01*
X031271Y001887D01*
X031347Y001811D01*
X031446Y001770D01*
X040074Y001770D01*
X040173Y001811D01*
X040563Y002201D01*
X040727Y002111D01*
X040924Y002090D01*
X041114Y002145D01*
X041268Y002269D01*
X041363Y002443D01*
X041375Y002550D01*
X041588Y002550D01*
X042251Y001887D01*
X042327Y001811D01*
X042426Y001770D01*
X051054Y001770D01*
X051153Y001811D01*
X051551Y002209D01*
X051553Y002206D01*
X051727Y002111D01*
X051924Y002090D01*
X052114Y002145D01*
X052268Y002269D01*
X052363Y002443D01*
X052384Y002640D01*
X052218Y003210D01*
X052319Y003210D01*
X052616Y002746D01*
X052779Y002633D01*
X052972Y002591D01*
X053167Y002626D01*
X053334Y002733D01*
X053447Y002896D01*
X053464Y002974D01*
X054551Y001887D01*
X054627Y001811D01*
X054726Y001770D01*
X062934Y001770D01*
X063033Y001811D01*
X063842Y002620D01*
X063972Y002591D01*
X064167Y002626D01*
X064334Y002733D01*
X064447Y002896D01*
X064489Y003089D01*
X064467Y003210D01*
X065094Y003210D01*
X065193Y003251D01*
X065269Y003327D01*
X066529Y004587D01*
X066570Y004686D01*
X066570Y011994D01*
X066529Y012093D01*
X066453Y012169D01*
X061182Y017440D01*
X066940Y017440D01*
X066940Y001420D01*
X001420Y001420D01*
X001420Y017440D01*
X006078Y017440D01*
X001827Y013189D01*
X001751Y013113D01*
X001710Y013014D01*
X001710Y005946D01*
X001751Y005847D01*
X002397Y005201D01*
X002376Y005178D01*
X002307Y004993D01*
X002313Y004795D01*
X002396Y004615D01*
X002540Y004480D01*
X002726Y004411D01*
X002923Y004418D01*
X003572Y004713D01*
X003707Y004858D01*
X003776Y005044D01*
X003769Y005241D01*
X003687Y005421D01*
X003543Y005556D01*
X003357Y005626D01*
X003160Y005619D01*
X002873Y005488D01*
X002750Y005612D01*
X003144Y005669D01*
X003315Y005770D01*
X003397Y005881D01*
X004230Y005048D01*
X004230Y004552D01*
X004163Y004630D01*
X003986Y004718D01*
X003788Y004732D01*
X003601Y004670D01*
X003062Y004203D01*
X002973Y004026D01*
X002959Y003829D01*
X003022Y003641D01*
X003151Y003491D01*
X003328Y003403D01*
X003526Y003389D01*
X003713Y003451D01*
X004230Y003899D01*
X004230Y003788D01*
X003906Y003284D01*
X003871Y003089D01*
X003913Y002896D01*
X004026Y002733D01*
X004193Y002626D01*
X004388Y002591D01*
X004581Y002633D01*
X004744Y002746D01*
X005129Y003346D01*
X005164Y003541D01*
X005122Y003734D01*
X005009Y003897D01*
X004842Y004004D01*
X004770Y004017D01*
X004969Y003922D02*
X006196Y003922D01*
X006355Y003764D02*
X005101Y003764D01*
X005150Y003605D02*
X006513Y003605D01*
X006672Y003447D02*
X005975Y003447D01*
X006014Y003415D02*
X005860Y003539D01*
X005670Y003594D01*
X005473Y003573D01*
X005300Y003478D01*
X005176Y003324D01*
X004976Y002640D01*
X004997Y002443D01*
X005092Y002269D01*
X005246Y002145D01*
X005436Y002090D01*
X005633Y002111D01*
X005807Y002206D01*
X005931Y002360D01*
X006131Y003045D01*
X006109Y003241D01*
X006014Y003415D01*
X006084Y003288D02*
X006327Y003288D01*
X006221Y003130D02*
X006121Y003130D01*
X006109Y002971D02*
X006183Y002971D01*
X006183Y002813D02*
X006063Y002813D01*
X006016Y002654D02*
X006183Y002654D01*
X006183Y002496D02*
X005970Y002496D01*
X005912Y002337D02*
X006183Y002337D01*
X006243Y002179D02*
X005756Y002179D01*
X005205Y002179D02*
X001420Y002179D01*
X001420Y002337D02*
X005055Y002337D01*
X004991Y002496D02*
X001420Y002496D01*
X001420Y002654D02*
X004150Y002654D01*
X003971Y002813D02*
X001420Y002813D01*
X001420Y002971D02*
X003897Y002971D01*
X003878Y003130D02*
X001420Y003130D01*
X001420Y003288D02*
X003909Y003288D01*
X004011Y003447D02*
X003699Y003447D01*
X003891Y003605D02*
X004112Y003605D01*
X004074Y003764D02*
X004214Y003764D01*
X005147Y003447D02*
X005274Y003447D01*
X005165Y003288D02*
X005091Y003288D01*
X005119Y003130D02*
X004990Y003130D01*
X005072Y002971D02*
X004888Y002971D01*
X004786Y002813D02*
X005026Y002813D01*
X004980Y002654D02*
X004611Y002654D01*
X003241Y003447D02*
X001420Y003447D01*
X001420Y003605D02*
X003053Y003605D01*
X002981Y003764D02*
X001420Y003764D01*
X001420Y003922D02*
X002966Y003922D01*
X003000Y004081D02*
X001420Y004081D01*
X001420Y004239D02*
X003103Y004239D01*
X003286Y004398D02*
X001420Y004398D01*
X001420Y004556D02*
X002459Y004556D01*
X002350Y004715D02*
X001420Y004715D01*
X001420Y004873D02*
X002311Y004873D01*
X002321Y005032D02*
X001420Y005032D01*
X001420Y005190D02*
X002387Y005190D01*
X002250Y005349D02*
X001420Y005349D01*
X001420Y005507D02*
X002091Y005507D01*
X001933Y005666D02*
X001420Y005666D01*
X001420Y005824D02*
X001774Y005824D01*
X001710Y005983D02*
X001420Y005983D01*
X001420Y006141D02*
X001710Y006141D01*
X001710Y006300D02*
X001420Y006300D01*
X001420Y006458D02*
X001710Y006458D01*
X001710Y006617D02*
X001420Y006617D01*
X001420Y006775D02*
X001710Y006775D01*
X001710Y006934D02*
X001420Y006934D01*
X001420Y007092D02*
X001710Y007092D01*
X001710Y007251D02*
X001420Y007251D01*
X001420Y007409D02*
X001710Y007409D01*
X001710Y007568D02*
X001420Y007568D01*
X001420Y007726D02*
X001710Y007726D01*
X001710Y007885D02*
X001420Y007885D01*
X001420Y008043D02*
X001710Y008043D01*
X001710Y008202D02*
X001420Y008202D01*
X001420Y008360D02*
X001710Y008360D01*
X001710Y008519D02*
X001420Y008519D01*
X001420Y008677D02*
X001710Y008677D01*
X001710Y008836D02*
X001420Y008836D01*
X001420Y008994D02*
X001710Y008994D01*
X001710Y009153D02*
X001420Y009153D01*
X001420Y009311D02*
X001710Y009311D01*
X001710Y009470D02*
X001420Y009470D01*
X001420Y009628D02*
X001710Y009628D01*
X001710Y009787D02*
X001420Y009787D01*
X001420Y009945D02*
X001710Y009945D01*
X001710Y010104D02*
X001420Y010104D01*
X001420Y010262D02*
X001710Y010262D01*
X001710Y010421D02*
X001420Y010421D01*
X001420Y010579D02*
X001710Y010579D01*
X001710Y010738D02*
X001420Y010738D01*
X001420Y010896D02*
X001710Y010896D01*
X001710Y011055D02*
X001420Y011055D01*
X001420Y011213D02*
X001710Y011213D01*
X001710Y011372D02*
X001420Y011372D01*
X001420Y011530D02*
X001710Y011530D01*
X001710Y011689D02*
X001420Y011689D01*
X001420Y011847D02*
X001710Y011847D01*
X001710Y012006D02*
X001420Y012006D01*
X001420Y012164D02*
X001710Y012164D01*
X001710Y012323D02*
X001420Y012323D01*
X001420Y012481D02*
X001710Y012481D01*
X001710Y012640D02*
X001420Y012640D01*
X001420Y012798D02*
X001710Y012798D01*
X001710Y012957D02*
X001420Y012957D01*
X001420Y013115D02*
X001753Y013115D01*
X001827Y013189D02*
X001827Y013189D01*
X001912Y013274D02*
X001420Y013274D01*
X001420Y013432D02*
X002070Y013432D01*
X002229Y013591D02*
X001420Y013591D01*
X001420Y013749D02*
X002387Y013749D01*
X002546Y013908D02*
X001420Y013908D01*
X001420Y014066D02*
X002704Y014066D01*
X002863Y014225D02*
X001420Y014225D01*
X001420Y014383D02*
X003021Y014383D01*
X003180Y014542D02*
X001420Y014542D01*
X001420Y014700D02*
X003338Y014700D01*
X003497Y014859D02*
X001420Y014859D01*
X001420Y015017D02*
X003655Y015017D01*
X003814Y015176D02*
X001420Y015176D01*
X001420Y015334D02*
X003972Y015334D01*
X004131Y015493D02*
X001420Y015493D01*
X001420Y015651D02*
X004289Y015651D01*
X004448Y015810D02*
X001420Y015810D01*
X001420Y015968D02*
X004606Y015968D01*
X004765Y016127D02*
X001420Y016127D01*
X001420Y016285D02*
X004923Y016285D01*
X005082Y016444D02*
X001420Y016444D01*
X001420Y016602D02*
X005240Y016602D01*
X005399Y016761D02*
X001420Y016761D01*
X001420Y016919D02*
X005557Y016919D01*
X005716Y017078D02*
X001420Y017078D01*
X001420Y017236D02*
X005874Y017236D01*
X006033Y017395D02*
X001420Y017395D01*
X005867Y016285D02*
X007983Y016285D01*
X007825Y016127D02*
X006077Y016127D01*
X006058Y016132D02*
X005760Y016132D01*
X005760Y015323D01*
X006214Y015323D01*
X006214Y015975D01*
X006202Y016021D01*
X006178Y016062D01*
X006145Y016096D01*
X006104Y016119D01*
X006058Y016132D01*
X006214Y015968D02*
X007666Y015968D01*
X007508Y015810D02*
X006214Y015810D01*
X006214Y015651D02*
X007349Y015651D01*
X007191Y015493D02*
X006214Y015493D01*
X006214Y015334D02*
X007032Y015334D01*
X006874Y015176D02*
X005760Y015176D01*
X005760Y015334D02*
X005600Y015334D01*
X005600Y015176D02*
X004757Y015176D01*
X004916Y015334D02*
X005146Y015334D01*
X005146Y015493D02*
X005074Y015493D01*
X005600Y015493D02*
X005760Y015493D01*
X005760Y015651D02*
X005600Y015651D01*
X005600Y015810D02*
X005760Y015810D01*
X005760Y015968D02*
X005600Y015968D01*
X005708Y016127D02*
X005760Y016127D01*
X006025Y016444D02*
X008142Y016444D01*
X008300Y016602D02*
X006184Y016602D01*
X006342Y016761D02*
X008459Y016761D01*
X008617Y016919D02*
X006501Y016919D01*
X006659Y017078D02*
X008776Y017078D01*
X012282Y015520D02*
X012608Y015520D01*
X012680Y015550D01*
X012752Y015520D01*
X013108Y015520D01*
X013180Y015550D01*
X013252Y015520D01*
X013608Y015520D01*
X013680Y015550D01*
X013752Y015520D01*
X014108Y015520D01*
X014180Y015550D01*
X014252Y015520D01*
X014608Y015520D01*
X014680Y015550D01*
X014752Y015520D01*
X015108Y015520D01*
X015180Y015550D01*
X015252Y015520D01*
X015608Y015520D01*
X015696Y015557D01*
X015763Y015624D01*
X015800Y015712D01*
X015800Y015930D01*
X024781Y015930D01*
X024816Y015895D01*
X024948Y015840D01*
X025092Y015840D01*
X025224Y015895D01*
X025325Y015996D01*
X025380Y016128D01*
X025380Y016272D01*
X025325Y016404D01*
X025289Y016440D01*
X025325Y016476D01*
X025380Y016608D01*
X025380Y016650D01*
X030078Y016650D01*
X030060Y016608D01*
X030060Y015712D01*
X030097Y015624D01*
X030164Y015557D01*
X030252Y015520D01*
X030478Y015520D01*
X030763Y015235D01*
X030720Y015132D01*
X030720Y015090D01*
X030660Y015090D01*
X030660Y015132D01*
X030605Y015264D01*
X030504Y015365D01*
X030372Y015420D01*
X030228Y015420D01*
X030096Y015365D01*
X029995Y015264D01*
X029940Y015132D01*
X029940Y014988D01*
X029995Y014856D01*
X030096Y014755D01*
X030228Y014700D01*
X027714Y014700D01*
X027714Y014670D02*
X027714Y015163D01*
X027260Y015163D01*
X027260Y015323D01*
X027100Y015323D01*
X027100Y016132D01*
X026802Y016132D01*
X026756Y016119D01*
X026715Y016096D01*
X026682Y016062D01*
X026658Y016021D01*
X026646Y015975D01*
X026646Y015323D01*
X027100Y015323D01*
X027100Y015163D01*
X026646Y015163D01*
X026646Y014670D01*
X016500Y014670D01*
X016500Y014712D01*
X016445Y014844D01*
X016344Y014945D01*
X016212Y015000D01*
X016068Y015000D01*
X015936Y014945D01*
X015901Y014910D01*
X012892Y014910D01*
X012282Y015520D01*
X012309Y015493D02*
X026646Y015493D01*
X026646Y015651D02*
X015775Y015651D01*
X015800Y015810D02*
X026646Y015810D01*
X026646Y015968D02*
X025297Y015968D01*
X025379Y016127D02*
X026783Y016127D01*
X027100Y016127D02*
X027260Y016127D01*
X027260Y016132D02*
X027260Y015323D01*
X027714Y015323D01*
X027714Y015975D01*
X027702Y016021D01*
X027678Y016062D01*
X027645Y016096D01*
X027604Y016119D01*
X027558Y016132D01*
X027260Y016132D01*
X027260Y015968D02*
X027100Y015968D01*
X027100Y015810D02*
X027260Y015810D01*
X027260Y015651D02*
X027100Y015651D01*
X027100Y015493D02*
X027260Y015493D01*
X027260Y015334D02*
X027100Y015334D01*
X027100Y015176D02*
X012626Y015176D01*
X012468Y015334D02*
X026646Y015334D01*
X027260Y015176D02*
X029958Y015176D01*
X029940Y015017D02*
X027714Y015017D01*
X027714Y014859D02*
X029994Y014859D01*
X030228Y014700D02*
X030278Y014700D01*
X030387Y014591D01*
X030486Y014550D01*
X031194Y014550D01*
X031293Y014591D01*
X031369Y014667D01*
X031609Y014907D01*
X031650Y015006D01*
X031650Y015068D01*
X031680Y015038D01*
X031680Y014988D01*
X031735Y014856D01*
X031836Y014755D01*
X031968Y014700D01*
X031402Y014700D01*
X031560Y014859D02*
X031734Y014859D01*
X031680Y015017D02*
X031650Y015017D01*
X032112Y014700D02*
X032244Y014755D01*
X032345Y014856D01*
X032400Y014988D01*
X032400Y015098D01*
X032888Y014610D01*
X032826Y014610D01*
X032727Y014569D01*
X031170Y013012D01*
X031170Y013134D01*
X031129Y013233D01*
X029809Y014553D01*
X029733Y014629D01*
X029634Y014670D01*
X027714Y014670D01*
X026646Y014700D02*
X016500Y014700D01*
X016431Y014859D02*
X026646Y014859D01*
X026646Y015017D02*
X012785Y015017D01*
X014512Y013410D02*
X016980Y013410D01*
X016980Y013368D01*
X017035Y013236D01*
X017136Y013135D01*
X017268Y013080D01*
X017318Y013080D01*
X018365Y012034D01*
X018295Y011964D01*
X018240Y011832D01*
X018240Y011688D01*
X018295Y011556D01*
X018334Y011517D01*
X018371Y011427D01*
X018612Y011186D01*
X018553Y011154D01*
X018429Y011000D01*
X018236Y010338D01*
X018146Y010248D01*
X018177Y010324D01*
X018177Y011036D01*
X018102Y011219D01*
X017962Y011359D01*
X017779Y011435D01*
X017581Y011435D01*
X017398Y011359D01*
X017370Y011331D01*
X017075Y011627D01*
X017100Y011688D01*
X017100Y011832D01*
X017045Y011964D01*
X016944Y012065D01*
X016812Y012120D01*
X016668Y012120D01*
X016536Y012065D01*
X016435Y011964D01*
X016380Y011832D01*
X016380Y011688D01*
X016435Y011556D01*
X016474Y011517D01*
X016511Y011427D01*
X016757Y011181D01*
X016633Y011249D01*
X016436Y011270D01*
X016246Y011215D01*
X016092Y011091D01*
X015997Y010917D01*
X015976Y010720D01*
X016176Y010036D01*
X016300Y009882D01*
X016473Y009787D01*
X016670Y009766D01*
X016860Y009821D01*
X017014Y009945D01*
X017533Y009945D01*
X017581Y009925D02*
X017779Y009925D01*
X017854Y009956D01*
X015008Y007110D01*
X014402Y007110D01*
X014404Y007116D01*
X014409Y007150D01*
X013721Y007249D01*
X013721Y007249D01*
X014409Y007150D01*
X014413Y007184D01*
X014413Y007253D01*
X014401Y007321D01*
X014379Y007386D01*
X014346Y007447D01*
X014305Y007502D01*
X014256Y007550D01*
X014200Y007590D01*
X014138Y007620D01*
X014072Y007641D01*
X013783Y007682D01*
X013494Y007724D01*
X013425Y007723D01*
X013357Y007711D01*
X013292Y007689D01*
X013231Y007657D01*
X013176Y007616D01*
X013128Y007566D01*
X013090Y007512D01*
X012824Y007778D01*
X012864Y007795D01*
X012965Y007896D01*
X013020Y008028D01*
X013020Y008172D01*
X012965Y008304D01*
X012930Y008339D01*
X012930Y011560D01*
X013108Y011560D01*
X013180Y011590D01*
X013252Y011560D01*
X013608Y011560D01*
X013680Y011590D01*
X013752Y011560D01*
X014108Y011560D01*
X014180Y011590D01*
X014252Y011560D01*
X014608Y011560D01*
X014680Y011590D01*
X014752Y011560D01*
X015108Y011560D01*
X015196Y011597D01*
X015231Y011632D01*
X015276Y011620D01*
X015430Y011620D01*
X015584Y011620D01*
X015629Y011632D01*
X015671Y011656D01*
X015704Y011689D01*
X015728Y011731D01*
X015740Y011776D01*
X015740Y012200D01*
X015740Y012624D01*
X015728Y012669D01*
X015704Y012711D01*
X015671Y012744D01*
X015629Y012768D01*
X015584Y012780D01*
X015430Y012780D01*
X015430Y012200D01*
X015430Y012200D01*
X015740Y012200D01*
X015430Y012200D01*
X015430Y012200D01*
X015430Y012780D01*
X015276Y012780D01*
X015231Y012768D01*
X015196Y012803D01*
X015108Y012840D01*
X015022Y012840D01*
X014520Y013342D01*
X014520Y013392D01*
X014512Y013410D01*
X014588Y013274D02*
X017019Y013274D01*
X017184Y013115D02*
X014747Y013115D01*
X014905Y012957D02*
X017442Y012957D01*
X017600Y012798D02*
X015201Y012798D01*
X015430Y012640D02*
X015430Y012640D01*
X015430Y012481D02*
X015430Y012481D01*
X015430Y012323D02*
X015430Y012323D01*
X015430Y012200D02*
X015430Y011620D01*
X015430Y012200D01*
X015430Y012200D01*
X015430Y012164D02*
X015430Y012164D01*
X015430Y012006D02*
X015430Y012006D01*
X015430Y011847D02*
X015430Y011847D01*
X015430Y011689D02*
X015430Y011689D01*
X015703Y011689D02*
X016380Y011689D01*
X016386Y011847D02*
X015740Y011847D01*
X015740Y012006D02*
X016476Y012006D01*
X017004Y012006D02*
X018336Y012006D01*
X018246Y011847D02*
X017094Y011847D01*
X017100Y011689D02*
X018240Y011689D01*
X018321Y011530D02*
X017172Y011530D01*
X017330Y011372D02*
X017428Y011372D01*
X017932Y011372D02*
X018427Y011372D01*
X018585Y011213D02*
X018104Y011213D01*
X018170Y011055D02*
X018474Y011055D01*
X018399Y010896D02*
X018177Y010896D01*
X018177Y010738D02*
X018353Y010738D01*
X018306Y010579D02*
X018177Y010579D01*
X018177Y010421D02*
X018260Y010421D01*
X018160Y010262D02*
X018152Y010262D01*
X017581Y009925D02*
X017398Y010001D01*
X017258Y010141D01*
X017183Y010324D01*
X017183Y010756D01*
X016898Y011040D01*
X016931Y011000D01*
X017131Y010315D01*
X017109Y010119D01*
X017014Y009945D01*
X017101Y010104D02*
X017295Y010104D01*
X017208Y010262D02*
X017125Y010262D01*
X017100Y010421D02*
X017183Y010421D01*
X017183Y010579D02*
X017054Y010579D01*
X017007Y010738D02*
X017183Y010738D01*
X017042Y010896D02*
X016961Y010896D01*
X016072Y011055D02*
X012930Y011055D01*
X012930Y011213D02*
X016244Y011213D01*
X016567Y011372D02*
X012930Y011372D01*
X012930Y011530D02*
X016461Y011530D01*
X016699Y011213D02*
X016725Y011213D01*
X015995Y010896D02*
X012930Y010896D01*
X012930Y010738D02*
X015214Y010738D01*
X015193Y010734D02*
X015026Y010627D01*
X014913Y010464D01*
X014871Y010271D01*
X014906Y010076D01*
X015291Y009476D01*
X015454Y009363D01*
X015647Y009321D01*
X015842Y009356D01*
X016009Y009463D01*
X016122Y009626D01*
X016164Y009819D01*
X016129Y010014D01*
X015744Y010614D01*
X015581Y010727D01*
X015388Y010769D01*
X015193Y010734D01*
X014993Y010579D02*
X012930Y010579D01*
X012930Y010421D02*
X014904Y010421D01*
X014873Y010262D02*
X012930Y010262D01*
X012930Y010104D02*
X014901Y010104D01*
X014990Y009945D02*
X014605Y009945D01*
X014526Y009971D02*
X014328Y009957D01*
X014151Y009869D01*
X014022Y009719D01*
X013959Y009531D01*
X013973Y009334D01*
X014062Y009157D01*
X014601Y008690D01*
X014788Y008628D01*
X014986Y008642D01*
X015163Y008730D01*
X015292Y008880D01*
X015355Y009068D01*
X015341Y009265D01*
X015252Y009442D01*
X014713Y009909D01*
X014526Y009971D01*
X014304Y009945D02*
X012930Y009945D01*
X012930Y009787D02*
X014080Y009787D01*
X013991Y009628D02*
X012930Y009628D01*
X012930Y009470D02*
X013964Y009470D01*
X013985Y009311D02*
X012930Y009311D01*
X012930Y009153D02*
X014067Y009153D01*
X014250Y008994D02*
X012930Y008994D01*
X012930Y008836D02*
X013493Y008836D01*
X013540Y008880D02*
X013396Y008745D01*
X013313Y008565D01*
X013307Y008367D01*
X013376Y008182D01*
X013511Y008037D01*
X014160Y007741D01*
X014357Y007734D01*
X014543Y007804D01*
X014687Y007939D01*
X014769Y008119D01*
X014776Y008316D01*
X014707Y008502D01*
X014572Y008647D01*
X013923Y008942D01*
X013726Y008949D01*
X013540Y008880D01*
X013365Y008677D02*
X012930Y008677D01*
X012930Y008519D02*
X013312Y008519D01*
X013309Y008360D02*
X012930Y008360D01*
X013008Y008202D02*
X013368Y008202D01*
X013505Y008043D02*
X013020Y008043D01*
X012954Y007885D02*
X013845Y007885D01*
X013783Y007682D02*
X013721Y007249D01*
X013721Y007249D01*
X013783Y007682D01*
X013767Y007568D02*
X013767Y007568D01*
X013744Y007409D02*
X013744Y007409D01*
X013721Y007251D02*
X013721Y007251D01*
X014367Y007409D02*
X015307Y007409D01*
X015149Y007251D02*
X014413Y007251D01*
X014231Y007568D02*
X015466Y007568D01*
X015624Y007726D02*
X012876Y007726D01*
X013034Y007568D02*
X013129Y007568D01*
X014629Y007885D02*
X015783Y007885D01*
X015941Y008043D02*
X014735Y008043D01*
X014772Y008202D02*
X016100Y008202D01*
X016258Y008360D02*
X014760Y008360D01*
X014691Y008519D02*
X016417Y008519D01*
X016575Y008677D02*
X015056Y008677D01*
X015254Y008836D02*
X016734Y008836D01*
X016892Y008994D02*
X015330Y008994D01*
X015349Y009153D02*
X017051Y009153D01*
X017209Y009311D02*
X015318Y009311D01*
X015301Y009470D02*
X015220Y009470D01*
X015194Y009628D02*
X015037Y009628D01*
X015092Y009787D02*
X014855Y009787D01*
X016013Y009470D02*
X017368Y009470D01*
X017526Y009628D02*
X016122Y009628D01*
X016157Y009787D02*
X016477Y009787D01*
X016742Y009787D02*
X017685Y009787D01*
X017827Y009945D02*
X017843Y009945D01*
X016249Y009945D02*
X016141Y009945D01*
X016156Y010104D02*
X016071Y010104D01*
X016110Y010262D02*
X015969Y010262D01*
X016063Y010421D02*
X015868Y010421D01*
X015766Y010579D02*
X016017Y010579D01*
X015977Y010738D02*
X015531Y010738D01*
X015740Y012164D02*
X018234Y012164D01*
X018076Y012323D02*
X015740Y012323D01*
X015740Y012481D02*
X017917Y012481D01*
X017759Y012640D02*
X015736Y012640D01*
X006715Y015017D02*
X006214Y015017D01*
X006214Y014859D02*
X006557Y014859D01*
X006398Y014700D02*
X006214Y014700D01*
X006214Y014542D02*
X006240Y014542D01*
X005760Y014542D02*
X005600Y014542D01*
X005600Y014700D02*
X005760Y014700D01*
X005760Y014859D02*
X005600Y014859D01*
X005600Y015017D02*
X005760Y015017D01*
X005146Y015017D02*
X004599Y015017D01*
X004440Y014859D02*
X005146Y014859D01*
X005146Y014700D02*
X004282Y014700D01*
X004123Y014542D02*
X005146Y014542D01*
X005228Y014383D02*
X003965Y014383D01*
X003489Y013908D02*
X005100Y013908D01*
X005086Y013749D02*
X003331Y013749D01*
X003172Y013591D02*
X005086Y013591D01*
X005086Y013432D02*
X003014Y013432D01*
X002855Y013274D02*
X005086Y013274D01*
X005086Y013115D02*
X002697Y013115D01*
X002538Y012957D02*
X005086Y012957D01*
X005086Y012798D02*
X002380Y012798D01*
X002370Y012640D02*
X005086Y012640D01*
X005086Y012481D02*
X002370Y012481D01*
X002370Y012323D02*
X005101Y012323D01*
X005430Y012164D02*
X002370Y012164D01*
X002370Y012006D02*
X005430Y012006D01*
X005430Y011847D02*
X002370Y011847D01*
X002370Y011689D02*
X005430Y011689D01*
X005430Y011530D02*
X002370Y011530D01*
X002370Y011372D02*
X005430Y011372D01*
X005244Y011213D02*
X002370Y011213D01*
X002370Y011055D02*
X005072Y011055D01*
X004995Y010896D02*
X002370Y010896D01*
X002370Y010738D02*
X004214Y010738D01*
X004193Y010734D02*
X004026Y010627D01*
X003913Y010464D01*
X003871Y010271D01*
X003906Y010076D01*
X004291Y009476D01*
X004454Y009363D01*
X004647Y009321D01*
X004842Y009356D01*
X005009Y009463D01*
X005122Y009626D01*
X005164Y009819D01*
X005129Y010014D01*
X004744Y010614D01*
X004581Y010727D01*
X004388Y010769D01*
X004193Y010734D01*
X003993Y010579D02*
X002370Y010579D01*
X002370Y010421D02*
X003904Y010421D01*
X003873Y010262D02*
X002370Y010262D01*
X002370Y010104D02*
X003901Y010104D01*
X003990Y009945D02*
X003605Y009945D01*
X003855Y009787D02*
X004092Y009787D01*
X004037Y009628D02*
X004194Y009628D01*
X004220Y009470D02*
X004301Y009470D01*
X004318Y009311D02*
X005115Y009311D01*
X005100Y009470D02*
X005013Y009470D01*
X005122Y009628D02*
X005159Y009628D01*
X005157Y009787D02*
X005445Y009787D01*
X005249Y009945D02*
X005141Y009945D01*
X005156Y010104D02*
X005071Y010104D01*
X005110Y010262D02*
X004969Y010262D01*
X005063Y010421D02*
X004868Y010421D01*
X004766Y010579D02*
X005017Y010579D01*
X004977Y010738D02*
X004531Y010738D01*
X003304Y009945D02*
X002370Y009945D01*
X002370Y009787D02*
X003080Y009787D01*
X002991Y009628D02*
X002370Y009628D01*
X002370Y009470D02*
X002964Y009470D01*
X002985Y009311D02*
X002370Y009311D01*
X002370Y009153D02*
X003067Y009153D01*
X003250Y008994D02*
X002370Y008994D01*
X002370Y008836D02*
X002493Y008836D01*
X003157Y008836D02*
X003433Y008836D01*
X003505Y008677D02*
X003640Y008677D01*
X003691Y008519D02*
X004140Y008519D01*
X004151Y008677D02*
X004056Y008677D01*
X004330Y008994D02*
X005910Y008994D01*
X005910Y008836D02*
X004754Y008836D01*
X004849Y008677D02*
X005910Y008677D01*
X005910Y008519D02*
X004860Y008519D01*
X004789Y008360D02*
X005910Y008360D01*
X005910Y008202D02*
X004770Y008202D01*
X004770Y008043D02*
X005910Y008043D01*
X005910Y007885D02*
X004770Y007885D01*
X004770Y007726D02*
X005910Y007726D01*
X005910Y007568D02*
X004770Y007568D01*
X004770Y007409D02*
X005910Y007409D01*
X005910Y007251D02*
X004770Y007251D01*
X004770Y007092D02*
X005910Y007092D01*
X005910Y006934D02*
X004770Y006934D01*
X004770Y006775D02*
X005910Y006775D01*
X005910Y006617D02*
X004770Y006617D01*
X004770Y006458D02*
X005910Y006458D01*
X005910Y006300D02*
X004770Y006300D01*
X004770Y006141D02*
X005910Y006141D01*
X005910Y005983D02*
X004899Y005983D01*
X005058Y005824D02*
X005910Y005824D01*
X005910Y005666D02*
X005216Y005666D01*
X005375Y005507D02*
X005910Y005507D01*
X005910Y005349D02*
X005533Y005349D01*
X005692Y005190D02*
X005910Y005190D01*
X005910Y005032D02*
X005850Y005032D01*
X005245Y004873D02*
X004770Y004873D01*
X004770Y004715D02*
X005404Y004715D01*
X005562Y004556D02*
X004770Y004556D01*
X004770Y004398D02*
X005721Y004398D01*
X005879Y004239D02*
X004770Y004239D01*
X004230Y004556D02*
X004227Y004556D01*
X004230Y004715D02*
X003993Y004715D01*
X003735Y004715D02*
X003573Y004715D01*
X003469Y004556D02*
X003227Y004556D01*
X003713Y004873D02*
X004230Y004873D01*
X004230Y005032D02*
X003772Y005032D01*
X003771Y005190D02*
X004088Y005190D01*
X003930Y005349D02*
X003721Y005349D01*
X003771Y005507D02*
X003596Y005507D01*
X003613Y005666D02*
X003119Y005666D01*
X002914Y005507D02*
X002855Y005507D01*
X003355Y005824D02*
X003454Y005824D01*
X004059Y005983D02*
X004230Y005983D01*
X004230Y006141D02*
X003901Y006141D01*
X003742Y006300D02*
X004230Y006300D01*
X004230Y006458D02*
X003584Y006458D01*
X003425Y006617D02*
X004230Y006617D01*
X004230Y006775D02*
X003258Y006775D01*
X003314Y006934D02*
X004230Y006934D01*
X004230Y007092D02*
X003396Y007092D01*
X003413Y007251D02*
X004230Y007251D01*
X004230Y007409D02*
X003367Y007409D01*
X003231Y007568D02*
X004230Y007568D01*
X004230Y007726D02*
X002370Y007726D01*
X002370Y007885D02*
X002845Y007885D01*
X002783Y007682D02*
X002721Y007249D01*
X002721Y007249D01*
X002783Y007682D01*
X002767Y007568D02*
X002767Y007568D01*
X002744Y007409D02*
X002744Y007409D01*
X002721Y007251D02*
X002721Y007251D01*
X003629Y007885D02*
X004230Y007885D01*
X004230Y008043D02*
X003735Y008043D01*
X003772Y008202D02*
X004230Y008202D01*
X004211Y008360D02*
X003760Y008360D01*
X002505Y008043D02*
X002370Y008043D01*
X004349Y009153D02*
X005218Y009153D01*
X005702Y009153D02*
X005910Y009153D01*
X005910Y009311D02*
X005805Y009311D01*
X005891Y009470D02*
X005910Y009470D01*
X014157Y008836D02*
X014433Y008836D01*
X014505Y008677D02*
X014640Y008677D01*
X024721Y007249D02*
X025409Y007150D01*
X024721Y007249D01*
X024721Y007249D01*
X025357Y007428D02*
X025413Y007451D01*
X025489Y007527D01*
X027751Y009789D01*
X027860Y009821D01*
X028014Y009945D01*
X028533Y009945D01*
X028581Y009925D02*
X028683Y009925D01*
X027071Y008313D01*
X027030Y008214D01*
X027030Y008032D01*
X026194Y007195D01*
X026184Y007205D01*
X026052Y007260D01*
X025908Y007260D01*
X025776Y007205D01*
X025681Y007110D01*
X025402Y007110D01*
X025404Y007116D01*
X025409Y007150D01*
X025413Y007184D01*
X025413Y007253D01*
X025401Y007321D01*
X025379Y007386D01*
X025357Y007428D01*
X025367Y007409D02*
X026407Y007409D01*
X026249Y007251D02*
X026074Y007251D01*
X025886Y007251D02*
X025413Y007251D01*
X025529Y007568D02*
X026566Y007568D01*
X026724Y007726D02*
X025688Y007726D01*
X025846Y007885D02*
X026883Y007885D01*
X027030Y008043D02*
X026005Y008043D01*
X026163Y008202D02*
X027030Y008202D01*
X027118Y008360D02*
X026322Y008360D01*
X026480Y008519D02*
X027277Y008519D01*
X027435Y008677D02*
X026639Y008677D01*
X026797Y008836D02*
X027594Y008836D01*
X027752Y008994D02*
X026956Y008994D01*
X027114Y009153D02*
X027911Y009153D01*
X028069Y009311D02*
X027273Y009311D01*
X027431Y009470D02*
X028228Y009470D01*
X028386Y009628D02*
X027590Y009628D01*
X027748Y009787D02*
X028545Y009787D01*
X028581Y009925D02*
X028398Y010001D01*
X028258Y010141D01*
X028183Y010324D01*
X028183Y011036D01*
X028258Y011219D01*
X028398Y011359D01*
X028581Y011435D01*
X028779Y011435D01*
X028962Y011359D01*
X028970Y011351D01*
X029007Y011389D01*
X029106Y011430D01*
X030488Y011430D01*
X030626Y011567D01*
X030608Y011560D01*
X030252Y011560D01*
X030164Y011597D01*
X030097Y011664D01*
X030060Y011752D01*
X030060Y012648D01*
X030097Y012736D01*
X030150Y012789D01*
X030150Y012908D01*
X030094Y012965D01*
X030084Y012955D01*
X029952Y012900D01*
X029808Y012900D01*
X029676Y012955D01*
X029575Y013056D01*
X029541Y013139D01*
X027644Y011243D01*
X027807Y011154D01*
X027931Y011000D01*
X028131Y010315D01*
X028109Y010119D01*
X028014Y009945D01*
X028101Y010104D02*
X028295Y010104D01*
X028208Y010262D02*
X028125Y010262D01*
X028100Y010421D02*
X028183Y010421D01*
X028183Y010579D02*
X028054Y010579D01*
X028007Y010738D02*
X028183Y010738D01*
X028183Y010896D02*
X027961Y010896D01*
X027886Y011055D02*
X028190Y011055D01*
X028256Y011213D02*
X027699Y011213D01*
X027773Y011372D02*
X028428Y011372D01*
X028090Y011689D02*
X030086Y011689D01*
X030060Y011847D02*
X028249Y011847D01*
X028407Y012006D02*
X030060Y012006D01*
X030060Y012164D02*
X028566Y012164D01*
X028724Y012323D02*
X030060Y012323D01*
X030060Y012481D02*
X028883Y012481D01*
X029041Y012640D02*
X030060Y012640D01*
X030150Y012798D02*
X029200Y012798D01*
X029358Y012957D02*
X029674Y012957D01*
X029550Y013115D02*
X029517Y013115D01*
X030086Y012957D02*
X030102Y012957D01*
X031170Y013115D02*
X031273Y013115D01*
X031432Y013274D02*
X031088Y013274D01*
X030930Y013432D02*
X031590Y013432D01*
X031749Y013591D02*
X030771Y013591D01*
X030613Y013749D02*
X031907Y013749D01*
X032066Y013908D02*
X030454Y013908D01*
X030296Y014066D02*
X032224Y014066D01*
X032383Y014225D02*
X030137Y014225D01*
X029979Y014383D02*
X032541Y014383D01*
X032700Y014542D02*
X029820Y014542D01*
X029809Y014553D02*
X029809Y014553D01*
X030642Y015176D02*
X030738Y015176D01*
X030664Y015334D02*
X030535Y015334D01*
X030506Y015493D02*
X027714Y015493D01*
X027714Y015651D02*
X030085Y015651D01*
X030060Y015810D02*
X027714Y015810D01*
X027714Y015968D02*
X030060Y015968D01*
X030060Y016127D02*
X027577Y016127D01*
X025374Y016285D02*
X030060Y016285D01*
X030060Y016444D02*
X025293Y016444D01*
X025377Y016602D02*
X030060Y016602D01*
X030065Y015334D02*
X027714Y015334D01*
X031968Y014700D02*
X032112Y014700D01*
X032798Y014700D01*
X032640Y014859D02*
X032346Y014859D01*
X032400Y015017D02*
X032481Y015017D01*
X036324Y012990D02*
X036384Y013015D01*
X036485Y013116D01*
X036519Y013199D01*
X036930Y012788D01*
X036930Y012200D01*
X036930Y012714D01*
X036930Y012780D01*
X036903Y012780D01*
X036889Y012813D01*
X036829Y012873D01*
X036753Y012949D01*
X036654Y012990D01*
X036324Y012990D01*
X036484Y013115D02*
X036603Y013115D01*
X036735Y012957D02*
X036762Y012957D01*
X036895Y012798D02*
X036920Y012798D01*
X036930Y012714D02*
X036930Y012714D01*
X036930Y012640D02*
X036930Y012640D01*
X036930Y012481D02*
X036930Y012481D01*
X036930Y012323D02*
X036930Y012323D01*
X036930Y012200D02*
X036930Y012200D01*
X030588Y011530D02*
X027932Y011530D01*
X028932Y011372D02*
X028990Y011372D01*
X032389Y009567D02*
X032880Y010058D01*
X033540Y009398D01*
X033540Y009348D01*
X033595Y009216D01*
X033605Y009206D01*
X033068Y008670D01*
X032999Y008670D01*
X032964Y008745D01*
X032820Y008880D01*
X032634Y008949D01*
X032437Y008942D01*
X031788Y008647D01*
X031653Y008502D01*
X031584Y008316D01*
X031591Y008119D01*
X031673Y007939D01*
X031817Y007804D01*
X032003Y007734D01*
X032200Y007741D01*
X032849Y008037D01*
X032936Y008130D01*
X033234Y008130D01*
X033333Y008171D01*
X033409Y008247D01*
X034312Y009150D01*
X035528Y009150D01*
X035729Y008949D01*
X035726Y008949D01*
X035540Y008880D01*
X035396Y008745D01*
X035313Y008565D01*
X035307Y008367D01*
X035376Y008182D01*
X035511Y008037D01*
X036160Y007741D01*
X036357Y007734D01*
X036543Y007804D01*
X036554Y007814D01*
X036595Y007716D01*
X036630Y007681D01*
X036630Y007372D01*
X036409Y007150D01*
X036413Y007184D01*
X036413Y007253D01*
X036401Y007321D01*
X036379Y007386D01*
X036346Y007447D01*
X036305Y007502D01*
X036256Y007550D01*
X036200Y007590D01*
X036138Y007620D01*
X036072Y007641D01*
X035783Y007682D01*
X035494Y007724D01*
X035425Y007723D01*
X035357Y007711D01*
X035292Y007689D01*
X035231Y007657D01*
X035176Y007616D01*
X035128Y007566D01*
X035089Y007510D01*
X035058Y007448D01*
X035038Y007382D01*
X035033Y007348D01*
X035028Y007314D01*
X035029Y007245D01*
X035041Y007178D01*
X035063Y007112D01*
X035095Y007051D01*
X035136Y006996D01*
X035186Y006948D01*
X035242Y006909D01*
X035304Y006878D01*
X035369Y006858D01*
X035658Y006816D01*
X035721Y007249D01*
X035658Y006816D01*
X035947Y006775D01*
X036016Y006776D01*
X036037Y006779D01*
X035897Y006639D01*
X035297Y006552D01*
X035127Y006451D01*
X035008Y006293D01*
X034959Y006101D01*
X034988Y005905D01*
X035089Y005735D01*
X035247Y005616D01*
X035439Y005568D01*
X036144Y005669D01*
X036315Y005770D01*
X036433Y005929D01*
X036482Y006120D01*
X036454Y006316D01*
X036411Y006389D01*
X037129Y007107D01*
X037170Y007206D01*
X037170Y007681D01*
X037205Y007716D01*
X037260Y007848D01*
X037260Y007950D01*
X039954Y007950D01*
X040053Y007991D01*
X040129Y008067D01*
X040132Y008070D01*
X042613Y008070D01*
X042673Y007939D01*
X042817Y007804D01*
X043003Y007734D01*
X043200Y007741D01*
X043432Y007847D01*
X043541Y007738D01*
X043216Y007691D01*
X043045Y007590D01*
X042956Y007470D01*
X042186Y007470D01*
X042087Y007429D01*
X039905Y005247D01*
X039801Y005290D01*
X039559Y005290D01*
X039334Y005197D01*
X039163Y005026D01*
X039126Y004936D01*
X038853Y005209D01*
X038754Y005250D01*
X036766Y005250D01*
X036687Y005421D01*
X036543Y005556D01*
X036357Y005626D01*
X036160Y005619D01*
X035511Y005323D01*
X035376Y005178D01*
X035307Y004993D01*
X035313Y004795D01*
X035396Y004615D01*
X035540Y004480D01*
X035726Y004411D01*
X035923Y004418D01*
X036204Y004546D01*
X036008Y004350D01*
X032129Y004350D01*
X031759Y004670D01*
X031572Y004732D01*
X031374Y004718D01*
X031197Y004630D01*
X031068Y004480D01*
X031024Y004350D01*
X029204Y004350D01*
X029290Y004559D01*
X029290Y004801D01*
X029259Y004877D01*
X031312Y006930D01*
X031974Y006930D01*
X032007Y006873D01*
X032166Y006755D01*
X032357Y006706D01*
X033063Y006808D01*
X033233Y006909D01*
X033352Y007067D01*
X033401Y007259D01*
X033372Y007455D01*
X033271Y007625D01*
X033113Y007744D01*
X032921Y007792D01*
X032216Y007691D01*
X032045Y007590D01*
X031956Y007470D01*
X031146Y007470D01*
X031047Y007429D01*
X028877Y005259D01*
X028801Y005290D01*
X028559Y005290D01*
X028334Y005197D01*
X028163Y005026D01*
X028107Y004890D01*
X025719Y004890D01*
X025776Y005044D01*
X025769Y005241D01*
X025687Y005421D01*
X025543Y005556D01*
X025510Y005569D01*
X027649Y007707D01*
X027690Y007806D01*
X027690Y007988D01*
X028126Y008424D01*
X028163Y008334D01*
X028334Y008163D01*
X028559Y008070D01*
X028801Y008070D01*
X029026Y008163D01*
X029197Y008334D01*
X029290Y008559D01*
X029290Y008801D01*
X029253Y008891D01*
X029572Y009210D01*
X029581Y009210D01*
X029616Y009175D01*
X029748Y009120D01*
X029892Y009120D01*
X030024Y009175D01*
X030125Y009276D01*
X030180Y009408D01*
X030180Y009552D01*
X030137Y009655D01*
X030215Y009733D01*
X030238Y009626D01*
X030351Y009463D01*
X030479Y009381D01*
X028268Y007170D01*
X027779Y007170D01*
X027744Y007205D01*
X027612Y007260D01*
X027468Y007260D01*
X027336Y007205D01*
X027235Y007104D01*
X027180Y006972D01*
X027180Y006828D01*
X027235Y006696D01*
X027336Y006595D01*
X027468Y006540D01*
X027612Y006540D01*
X027744Y006595D01*
X027779Y006630D01*
X028434Y006630D01*
X028533Y006671D01*
X031011Y009149D01*
X031005Y009068D01*
X031035Y008977D01*
X029978Y007920D01*
X029928Y007920D01*
X029796Y007865D01*
X029695Y007764D01*
X029640Y007632D01*
X029640Y007488D01*
X029695Y007356D01*
X029796Y007255D01*
X029928Y007200D01*
X030072Y007200D01*
X030204Y007255D01*
X030305Y007356D01*
X030360Y007488D01*
X030360Y007538D01*
X031458Y008636D01*
X031572Y008628D01*
X031759Y008690D01*
X032298Y009157D01*
X032387Y009334D01*
X032401Y009531D01*
X032389Y009567D01*
X032450Y009628D02*
X033310Y009628D01*
X033152Y009787D02*
X032608Y009787D01*
X032767Y009945D02*
X032993Y009945D01*
X033469Y009470D02*
X032396Y009470D01*
X032375Y009311D02*
X033555Y009311D01*
X033551Y009153D02*
X032293Y009153D01*
X032110Y008994D02*
X033392Y008994D01*
X033234Y008836D02*
X032867Y008836D01*
X032995Y008677D02*
X033075Y008677D01*
X033680Y008519D02*
X035312Y008519D01*
X035309Y008360D02*
X033522Y008360D01*
X033363Y008202D02*
X035368Y008202D01*
X035505Y008043D02*
X032855Y008043D01*
X032515Y007885D02*
X035845Y007885D01*
X035783Y007682D02*
X035721Y007249D01*
X035721Y007249D01*
X035721Y007249D01*
X035033Y007348D01*
X035721Y007249D01*
X035721Y007249D01*
X035783Y007682D01*
X035767Y007568D02*
X035767Y007568D01*
X035744Y007409D02*
X035744Y007409D01*
X035721Y007251D02*
X035721Y007251D01*
X035712Y007251D02*
X035712Y007251D01*
X035698Y007092D02*
X035698Y007092D01*
X035675Y006934D02*
X035675Y006934D01*
X035944Y006775D02*
X032836Y006775D01*
X033252Y006934D02*
X035207Y006934D01*
X035074Y007092D02*
X033358Y007092D01*
X033398Y007251D02*
X035029Y007251D01*
X035046Y007409D02*
X033379Y007409D01*
X033306Y007568D02*
X035129Y007568D01*
X036231Y007568D02*
X036630Y007568D01*
X036630Y007409D02*
X036367Y007409D01*
X036413Y007251D02*
X036509Y007251D01*
X037114Y007092D02*
X041750Y007092D01*
X041592Y006934D02*
X036955Y006934D01*
X036797Y006775D02*
X041433Y006775D01*
X041275Y006617D02*
X036638Y006617D01*
X036480Y006458D02*
X041116Y006458D01*
X040958Y006300D02*
X036456Y006300D01*
X036479Y006141D02*
X040799Y006141D01*
X040641Y005983D02*
X036447Y005983D01*
X036355Y005824D02*
X040482Y005824D01*
X040324Y005666D02*
X036119Y005666D01*
X035914Y005507D02*
X032446Y005507D01*
X032200Y005619D02*
X032003Y005626D01*
X031817Y005556D01*
X031673Y005421D01*
X031591Y005241D01*
X031584Y005044D01*
X031653Y004858D01*
X031788Y004713D01*
X032437Y004418D01*
X032634Y004411D01*
X032820Y004480D01*
X032964Y004615D01*
X033047Y004795D01*
X033053Y004993D01*
X032984Y005178D01*
X032849Y005323D01*
X032200Y005619D01*
X031764Y005507D02*
X029889Y005507D01*
X030047Y005666D02*
X035181Y005666D01*
X035036Y005824D02*
X030206Y005824D01*
X030364Y005983D02*
X034976Y005983D01*
X034970Y006141D02*
X030523Y006141D01*
X030681Y006300D02*
X035013Y006300D01*
X035138Y006458D02*
X030840Y006458D01*
X030998Y006617D02*
X035743Y006617D01*
X035976Y006775D02*
X036033Y006775D01*
X037170Y007251D02*
X041909Y007251D01*
X042067Y007409D02*
X037170Y007409D01*
X037170Y007568D02*
X043029Y007568D01*
X042731Y007885D02*
X037260Y007885D01*
X037209Y007726D02*
X043460Y007726D01*
X044328Y007530D02*
X046103Y007530D01*
X046089Y007510D01*
X046058Y007448D01*
X046038Y007382D01*
X046033Y007348D01*
X046028Y007314D01*
X046029Y007245D01*
X046041Y007178D01*
X046063Y007112D01*
X046095Y007051D01*
X046136Y006996D01*
X046186Y006948D01*
X046242Y006909D01*
X046304Y006878D01*
X046369Y006858D01*
X046658Y006816D01*
X046721Y007249D01*
X046721Y007249D01*
X047409Y007150D01*
X047404Y007116D01*
X047383Y007050D01*
X047353Y006988D01*
X047313Y006932D01*
X047265Y006883D01*
X047210Y006842D01*
X047149Y006809D01*
X047084Y006787D01*
X047016Y006776D01*
X046947Y006775D01*
X046658Y006816D01*
X046721Y007249D01*
X046721Y007249D01*
X047409Y007150D01*
X047413Y007184D01*
X047413Y007253D01*
X047401Y007321D01*
X047379Y007386D01*
X047346Y007447D01*
X047305Y007502D01*
X047277Y007530D01*
X050514Y007530D01*
X050613Y007571D01*
X050689Y007647D01*
X051112Y008070D01*
X053613Y008070D01*
X053673Y007939D01*
X053817Y007804D01*
X054003Y007734D01*
X054200Y007741D01*
X054849Y008037D01*
X054880Y008070D01*
X057248Y008070D01*
X057611Y007707D01*
X057494Y007724D01*
X057425Y007723D01*
X057357Y007711D01*
X057292Y007689D01*
X057231Y007657D01*
X057176Y007616D01*
X057128Y007566D01*
X057089Y007510D01*
X057058Y007448D01*
X057038Y007382D01*
X057033Y007348D01*
X057028Y007314D01*
X057029Y007245D01*
X057041Y007178D01*
X057063Y007112D01*
X057095Y007051D01*
X057136Y006996D01*
X057186Y006948D01*
X057242Y006909D01*
X057304Y006878D01*
X057369Y006858D01*
X057658Y006816D01*
X057721Y007249D01*
X057721Y007249D01*
X058409Y007150D01*
X058404Y007116D01*
X058383Y007050D01*
X058353Y006988D01*
X058313Y006932D01*
X058265Y006883D01*
X058210Y006842D01*
X058149Y006809D01*
X058084Y006787D01*
X058016Y006776D01*
X057947Y006775D01*
X057658Y006816D01*
X057721Y007249D01*
X057721Y007249D01*
X058409Y007150D01*
X058413Y007184D01*
X058413Y007253D01*
X058401Y007321D01*
X058379Y007386D01*
X058346Y007447D01*
X058305Y007502D01*
X058277Y007530D01*
X064794Y007530D01*
X064893Y007571D01*
X065058Y007736D01*
X065200Y007741D01*
X065849Y008037D01*
X065984Y008182D01*
X066030Y008304D01*
X066030Y007765D01*
X065921Y007792D01*
X065216Y007691D01*
X065045Y007590D01*
X064956Y007470D01*
X064146Y007470D01*
X064047Y007429D01*
X061877Y005259D01*
X061801Y005290D01*
X061559Y005290D01*
X061334Y005197D01*
X061163Y005026D01*
X061107Y004890D01*
X058719Y004890D01*
X058776Y005044D01*
X058769Y005241D01*
X058687Y005421D01*
X058543Y005556D01*
X058357Y005626D01*
X058160Y005619D01*
X057511Y005323D01*
X057376Y005178D01*
X057307Y004993D01*
X057313Y004795D01*
X057396Y004615D01*
X057540Y004480D01*
X057726Y004411D01*
X057923Y004418D01*
X058241Y004562D01*
X058028Y004350D01*
X054129Y004350D01*
X053759Y004670D01*
X053572Y004732D01*
X053374Y004718D01*
X053197Y004630D01*
X053068Y004480D01*
X053024Y004350D01*
X051204Y004350D01*
X051290Y004559D01*
X051290Y004801D01*
X051265Y004863D01*
X053332Y006930D01*
X053974Y006930D01*
X054007Y006873D01*
X054166Y006755D01*
X054357Y006706D01*
X055063Y006808D01*
X055233Y006909D01*
X055352Y007067D01*
X055401Y007259D01*
X055372Y007455D01*
X055271Y007625D01*
X055113Y007744D01*
X054921Y007792D01*
X054216Y007691D01*
X054045Y007590D01*
X053956Y007470D01*
X053166Y007470D01*
X053067Y007429D01*
X050891Y005253D01*
X050801Y005290D01*
X050559Y005290D01*
X050334Y005197D01*
X050163Y005026D01*
X050070Y004801D01*
X050070Y004559D01*
X050156Y004350D01*
X050046Y004350D01*
X049947Y004309D01*
X049871Y004233D01*
X049268Y003630D01*
X049144Y003630D01*
X049122Y003734D01*
X049009Y003897D01*
X048842Y004004D01*
X048647Y004039D01*
X048454Y003997D01*
X048291Y003884D01*
X047906Y003284D01*
X047871Y003089D01*
X047897Y002970D01*
X043612Y002970D01*
X043130Y003452D01*
X043209Y003491D01*
X043338Y003641D01*
X043401Y003829D01*
X043387Y004026D01*
X043298Y004203D01*
X043129Y004350D01*
X043208Y004350D01*
X043211Y004347D01*
X043287Y004271D01*
X043386Y004230D01*
X046614Y004230D01*
X046713Y004271D01*
X046857Y004416D01*
X046923Y004418D01*
X047572Y004713D01*
X047707Y004858D01*
X047776Y005044D01*
X047769Y005241D01*
X047687Y005421D01*
X047543Y005556D01*
X047357Y005626D01*
X047160Y005619D01*
X046511Y005323D01*
X046376Y005178D01*
X046307Y004993D01*
X046313Y004795D01*
X046325Y004770D01*
X044035Y004770D01*
X044047Y004795D01*
X044053Y004993D01*
X043984Y005178D01*
X043849Y005323D01*
X043200Y005619D01*
X043003Y005626D01*
X042817Y005556D01*
X042673Y005421D01*
X042591Y005241D01*
X042584Y005044D01*
X042641Y004890D01*
X042306Y004890D01*
X042207Y004849D01*
X042131Y004773D01*
X041828Y004470D01*
X040253Y004470D01*
X040290Y004559D01*
X040290Y004801D01*
X040270Y004849D01*
X042352Y006930D01*
X042974Y006930D01*
X043007Y006873D01*
X043166Y006755D01*
X043357Y006706D01*
X044063Y006808D01*
X044233Y006909D01*
X044352Y007067D01*
X044401Y007259D01*
X044372Y007455D01*
X044328Y007530D01*
X044379Y007409D02*
X046046Y007409D01*
X046033Y007348D02*
X046721Y007249D01*
X046033Y007348D01*
X046029Y007251D02*
X044398Y007251D01*
X044358Y007092D02*
X046074Y007092D01*
X046207Y006934D02*
X044252Y006934D01*
X043836Y006775D02*
X046944Y006775D01*
X046976Y006775D02*
X052413Y006775D01*
X052255Y006617D02*
X047149Y006617D01*
X047194Y006605D02*
X047003Y006654D01*
X046297Y006552D01*
X046127Y006451D01*
X046008Y006293D01*
X045959Y006101D01*
X045988Y005905D01*
X046089Y005735D01*
X046247Y005616D01*
X046439Y005568D01*
X047144Y005669D01*
X047315Y005770D01*
X047433Y005929D01*
X047482Y006120D01*
X047454Y006316D01*
X047353Y006487D01*
X047194Y006605D01*
X047370Y006458D02*
X052096Y006458D01*
X051938Y006300D02*
X047456Y006300D01*
X047479Y006141D02*
X051779Y006141D01*
X051621Y005983D02*
X047447Y005983D01*
X047355Y005824D02*
X051462Y005824D01*
X051304Y005666D02*
X047119Y005666D01*
X046914Y005507D02*
X043446Y005507D01*
X043794Y005349D02*
X046566Y005349D01*
X046387Y005190D02*
X043973Y005190D01*
X044039Y005032D02*
X046321Y005032D01*
X046311Y004873D02*
X044049Y004873D01*
X042588Y005032D02*
X040453Y005032D01*
X040612Y005190D02*
X042589Y005190D01*
X042639Y005349D02*
X040770Y005349D01*
X040929Y005507D02*
X042764Y005507D01*
X041404Y005983D02*
X045976Y005983D01*
X045970Y006141D02*
X041563Y006141D01*
X041721Y006300D02*
X046013Y006300D01*
X046138Y006458D02*
X041880Y006458D01*
X042038Y006617D02*
X046743Y006617D01*
X046675Y006934D02*
X046675Y006934D01*
X046698Y007092D02*
X046698Y007092D01*
X046721Y007249D02*
X046721Y007249D01*
X046712Y007251D02*
X046712Y007251D01*
X047367Y007409D02*
X053047Y007409D01*
X052889Y007251D02*
X047413Y007251D01*
X047396Y007092D02*
X052730Y007092D01*
X052572Y006934D02*
X047314Y006934D01*
X050604Y007568D02*
X054029Y007568D01*
X053731Y007885D02*
X050926Y007885D01*
X051085Y008043D02*
X053625Y008043D01*
X054515Y007885D02*
X057434Y007885D01*
X057275Y008043D02*
X054855Y008043D01*
X055136Y007726D02*
X057592Y007726D01*
X057129Y007568D02*
X055306Y007568D01*
X055379Y007409D02*
X057046Y007409D01*
X057033Y007348D02*
X057721Y007249D01*
X057033Y007348D01*
X057029Y007251D02*
X055398Y007251D01*
X055358Y007092D02*
X057074Y007092D01*
X057207Y006934D02*
X055252Y006934D01*
X054836Y006775D02*
X057944Y006775D01*
X057976Y006775D02*
X063393Y006775D01*
X063235Y006617D02*
X058149Y006617D01*
X058194Y006605D02*
X058003Y006654D01*
X057297Y006552D01*
X057127Y006451D01*
X057008Y006293D01*
X056959Y006101D01*
X056988Y005905D01*
X057089Y005735D01*
X057247Y005616D01*
X057439Y005568D01*
X058144Y005669D01*
X058315Y005770D01*
X058433Y005929D01*
X058482Y006120D01*
X058454Y006316D01*
X058353Y006487D01*
X058194Y006605D01*
X058370Y006458D02*
X063076Y006458D01*
X062918Y006300D02*
X058456Y006300D01*
X058479Y006141D02*
X062759Y006141D01*
X062601Y005983D02*
X058447Y005983D01*
X058355Y005824D02*
X062442Y005824D01*
X062284Y005666D02*
X058119Y005666D01*
X057914Y005507D02*
X054446Y005507D01*
X054200Y005619D02*
X054003Y005626D01*
X053817Y005556D01*
X053673Y005421D01*
X053591Y005241D01*
X053584Y005044D01*
X053653Y004858D01*
X053788Y004713D01*
X054437Y004418D01*
X054634Y004411D01*
X054820Y004480D01*
X054964Y004615D01*
X055047Y004795D01*
X055053Y004993D01*
X054984Y005178D01*
X054849Y005323D01*
X054200Y005619D01*
X053764Y005507D02*
X051909Y005507D01*
X052067Y005666D02*
X057181Y005666D01*
X057036Y005824D02*
X052226Y005824D01*
X052384Y005983D02*
X056976Y005983D01*
X056970Y006141D02*
X052543Y006141D01*
X052701Y006300D02*
X057013Y006300D01*
X057138Y006458D02*
X052860Y006458D01*
X053018Y006617D02*
X057743Y006617D01*
X057675Y006934D02*
X057675Y006934D01*
X057698Y007092D02*
X057698Y007092D01*
X057721Y007249D02*
X057721Y007249D01*
X057712Y007251D02*
X057712Y007251D01*
X058367Y007409D02*
X064027Y007409D01*
X063869Y007251D02*
X058413Y007251D01*
X058396Y007092D02*
X063710Y007092D01*
X063552Y006934D02*
X058314Y006934D01*
X058747Y008070D02*
X058769Y008119D01*
X058776Y008316D01*
X058707Y008502D01*
X058572Y008647D01*
X057923Y008942D01*
X057726Y008949D01*
X057540Y008880D01*
X057396Y008745D01*
X057334Y008610D01*
X055026Y008610D01*
X054964Y008745D01*
X054841Y008860D01*
X054952Y008970D01*
X058278Y008970D01*
X058601Y008690D01*
X058788Y008628D01*
X058986Y008642D01*
X059163Y008730D01*
X059292Y008880D01*
X059342Y009030D01*
X061167Y009030D01*
X061163Y009026D01*
X061070Y008801D01*
X061070Y008559D01*
X061163Y008334D01*
X061334Y008163D01*
X061559Y008070D01*
X061801Y008070D01*
X062026Y008163D01*
X062197Y008334D01*
X062290Y008559D01*
X062290Y008801D01*
X062197Y009026D01*
X062193Y009030D01*
X064018Y009030D01*
X064068Y008880D01*
X064197Y008730D01*
X064374Y008642D01*
X064572Y008628D01*
X064759Y008690D01*
X065298Y009157D01*
X065387Y009334D01*
X065401Y009531D01*
X065338Y009719D01*
X065209Y009869D01*
X065032Y009957D01*
X064834Y009971D01*
X064647Y009909D01*
X064256Y009570D01*
X064129Y009570D01*
X064454Y010076D01*
X064489Y010271D01*
X064447Y010464D01*
X064334Y010627D01*
X064167Y010734D01*
X063972Y010769D01*
X063779Y010727D01*
X063616Y010614D01*
X063231Y010014D01*
X063196Y009819D01*
X063207Y009769D01*
X063128Y009690D01*
X060136Y009690D01*
X060164Y009819D01*
X060129Y010014D01*
X059874Y010410D01*
X060066Y010410D01*
X060176Y010036D01*
X060300Y009882D01*
X060473Y009787D01*
X060670Y009766D01*
X060860Y009821D01*
X061014Y009945D01*
X061533Y009945D01*
X061581Y009925D02*
X061779Y009925D01*
X061962Y010001D01*
X062102Y010141D01*
X062177Y010324D01*
X062177Y010581D01*
X062278Y010481D01*
X062229Y010315D01*
X062251Y010119D01*
X062346Y009945D01*
X061827Y009945D01*
X061581Y009925D02*
X061398Y010001D01*
X061258Y010141D01*
X061183Y010324D01*
X061183Y011036D01*
X061196Y011070D01*
X060874Y011070D01*
X060931Y011000D01*
X061131Y010315D01*
X061109Y010119D01*
X061014Y009945D01*
X061101Y010104D02*
X061295Y010104D01*
X061208Y010262D02*
X061125Y010262D01*
X061100Y010421D02*
X061183Y010421D01*
X061183Y010579D02*
X061054Y010579D01*
X061007Y010738D02*
X061183Y010738D01*
X061183Y010896D02*
X060961Y010896D01*
X060886Y011055D02*
X061190Y011055D01*
X061953Y011569D02*
X062029Y011493D01*
X062029Y011493D01*
X062471Y011051D01*
X062553Y011154D01*
X062727Y011249D01*
X062924Y011270D01*
X063114Y011215D01*
X063268Y011091D01*
X063363Y010917D01*
X063384Y010720D01*
X063184Y010036D01*
X063060Y009882D01*
X062887Y009787D01*
X062690Y009766D01*
X062500Y009821D01*
X062346Y009945D01*
X062259Y010104D02*
X062065Y010104D01*
X062152Y010262D02*
X062235Y010262D01*
X062260Y010421D02*
X062177Y010421D01*
X062177Y010579D02*
X062179Y010579D01*
X062467Y011055D02*
X062474Y011055D01*
X062309Y011213D02*
X062661Y011213D01*
X063116Y011213D02*
X066030Y011213D01*
X066030Y011055D02*
X063288Y011055D01*
X063365Y010896D02*
X066030Y010896D01*
X066030Y010738D02*
X064146Y010738D01*
X064367Y010579D02*
X066030Y010579D01*
X066030Y010421D02*
X064456Y010421D01*
X064487Y010262D02*
X066030Y010262D01*
X066030Y010104D02*
X064459Y010104D01*
X064370Y009945D02*
X064755Y009945D01*
X064505Y009787D02*
X064268Y009787D01*
X064323Y009628D02*
X064166Y009628D01*
X063203Y009787D02*
X062883Y009787D01*
X062618Y009787D02*
X060742Y009787D01*
X060477Y009787D02*
X060157Y009787D01*
X060141Y009945D02*
X060249Y009945D01*
X060156Y010104D02*
X060071Y010104D01*
X060110Y010262D02*
X059969Y010262D01*
X063111Y009945D02*
X063219Y009945D01*
X063204Y010104D02*
X063289Y010104D01*
X063250Y010262D02*
X063391Y010262D01*
X063297Y010421D02*
X063492Y010421D01*
X063594Y010579D02*
X063343Y010579D01*
X063383Y010738D02*
X063829Y010738D01*
X065056Y009945D02*
X066030Y009945D01*
X066030Y009787D02*
X065280Y009787D01*
X065369Y009628D02*
X066030Y009628D01*
X066030Y009470D02*
X065396Y009470D01*
X065375Y009311D02*
X066030Y009311D01*
X066030Y009153D02*
X065293Y009153D01*
X065110Y008994D02*
X066030Y008994D01*
X066030Y008836D02*
X065867Y008836D01*
X065820Y008880D02*
X065964Y008745D01*
X066030Y008601D01*
X066030Y011828D01*
X064290Y013568D01*
X064290Y013427D01*
X064000Y013138D01*
X064230Y012908D01*
X064230Y012700D01*
X063700Y012700D01*
X063700Y013070D01*
X063660Y013070D01*
X063660Y012700D01*
X063700Y012700D01*
X063700Y012660D01*
X064230Y012660D01*
X064230Y012452D01*
X063908Y012130D01*
X063700Y012130D01*
X063700Y012660D01*
X063660Y012660D01*
X063130Y012660D01*
X062700Y012660D01*
X062700Y012700D01*
X063660Y012700D01*
X063660Y012660D01*
X063660Y012130D01*
X063452Y012130D01*
X063180Y012402D01*
X062908Y012130D01*
X062700Y012130D01*
X062700Y012660D01*
X062660Y012660D01*
X062660Y012130D01*
X062452Y012130D01*
X062222Y012360D01*
X061933Y012070D01*
X061427Y012070D01*
X061180Y012317D01*
X060933Y012070D01*
X060427Y012070D01*
X060180Y012317D01*
X059933Y012070D01*
X059427Y012070D01*
X059070Y012427D01*
X059070Y012728D01*
X057952Y011610D01*
X061854Y011610D01*
X061953Y011569D01*
X061992Y011530D02*
X066030Y011530D01*
X066030Y011372D02*
X062150Y011372D01*
X062027Y012164D02*
X062418Y012164D01*
X062260Y012323D02*
X062185Y012323D01*
X062660Y012323D02*
X062700Y012323D01*
X062700Y012481D02*
X062660Y012481D01*
X062660Y012640D02*
X062700Y012640D01*
X062700Y012700D02*
X062700Y012930D01*
X062660Y012930D01*
X062660Y012700D01*
X062700Y012700D01*
X062700Y012798D02*
X062660Y012798D01*
X063100Y012323D02*
X063260Y012323D01*
X063418Y012164D02*
X062942Y012164D01*
X062700Y012164D02*
X062660Y012164D01*
X063660Y012164D02*
X063700Y012164D01*
X063700Y012323D02*
X063660Y012323D01*
X063660Y012481D02*
X063700Y012481D01*
X063700Y012640D02*
X063660Y012640D01*
X063660Y012798D02*
X063700Y012798D01*
X063700Y012957D02*
X063660Y012957D01*
X064023Y013115D02*
X064743Y013115D01*
X064585Y013274D02*
X064136Y013274D01*
X064290Y013432D02*
X064426Y013432D01*
X064873Y013749D02*
X066940Y013749D01*
X066940Y013591D02*
X065031Y013591D01*
X065190Y013432D02*
X066940Y013432D01*
X066940Y013274D02*
X065348Y013274D01*
X065507Y013115D02*
X066940Y013115D01*
X066940Y012957D02*
X065665Y012957D01*
X065824Y012798D02*
X066940Y012798D01*
X066940Y012640D02*
X065982Y012640D01*
X066141Y012481D02*
X066940Y012481D01*
X066940Y012323D02*
X066299Y012323D01*
X066458Y012164D02*
X066940Y012164D01*
X066940Y012006D02*
X066565Y012006D01*
X066570Y011847D02*
X066940Y011847D01*
X066940Y011689D02*
X066570Y011689D01*
X066570Y011530D02*
X066940Y011530D01*
X066940Y011372D02*
X066570Y011372D01*
X066570Y011213D02*
X066940Y011213D01*
X066940Y011055D02*
X066570Y011055D01*
X066570Y010896D02*
X066940Y010896D01*
X066940Y010738D02*
X066570Y010738D01*
X066570Y010579D02*
X066940Y010579D01*
X066940Y010421D02*
X066570Y010421D01*
X066570Y010262D02*
X066940Y010262D01*
X066940Y010104D02*
X066570Y010104D01*
X066570Y009945D02*
X066940Y009945D01*
X066940Y009787D02*
X066570Y009787D01*
X066570Y009628D02*
X066940Y009628D01*
X066940Y009470D02*
X066570Y009470D01*
X066570Y009311D02*
X066940Y009311D01*
X066940Y009153D02*
X066570Y009153D01*
X066570Y008994D02*
X066940Y008994D01*
X066940Y008836D02*
X066570Y008836D01*
X066570Y008677D02*
X066940Y008677D01*
X066940Y008519D02*
X066570Y008519D01*
X066570Y008360D02*
X066940Y008360D01*
X066940Y008202D02*
X066570Y008202D01*
X066570Y008043D02*
X066940Y008043D01*
X066940Y007885D02*
X066570Y007885D01*
X066570Y007726D02*
X066940Y007726D01*
X066940Y007568D02*
X066570Y007568D01*
X066570Y007409D02*
X066940Y007409D01*
X066940Y007251D02*
X066570Y007251D01*
X066570Y007092D02*
X066940Y007092D01*
X066940Y006934D02*
X066570Y006934D01*
X066570Y006775D02*
X066940Y006775D01*
X066940Y006617D02*
X066570Y006617D01*
X066570Y006458D02*
X066940Y006458D01*
X066940Y006300D02*
X066570Y006300D01*
X066570Y006141D02*
X066940Y006141D01*
X066940Y005983D02*
X066570Y005983D01*
X066570Y005824D02*
X066940Y005824D01*
X066940Y005666D02*
X066570Y005666D01*
X066570Y005507D02*
X066940Y005507D01*
X066940Y005349D02*
X066570Y005349D01*
X066570Y005190D02*
X066940Y005190D01*
X066940Y005032D02*
X066570Y005032D01*
X066570Y004873D02*
X066940Y004873D01*
X066940Y004715D02*
X066570Y004715D01*
X066498Y004556D02*
X066940Y004556D01*
X066940Y004398D02*
X066339Y004398D01*
X066181Y004239D02*
X066940Y004239D01*
X066940Y004081D02*
X066022Y004081D01*
X065864Y003922D02*
X066940Y003922D01*
X066940Y003764D02*
X065705Y003764D01*
X065547Y003605D02*
X066940Y003605D01*
X066940Y003447D02*
X065388Y003447D01*
X065230Y003288D02*
X066940Y003288D01*
X066940Y003130D02*
X064482Y003130D01*
X064463Y002971D02*
X066940Y002971D01*
X066940Y002813D02*
X064389Y002813D01*
X064210Y002654D02*
X066940Y002654D01*
X066940Y002496D02*
X063717Y002496D01*
X063559Y002337D02*
X066940Y002337D01*
X066940Y002179D02*
X063400Y002179D01*
X063242Y002020D02*
X066940Y002020D01*
X066940Y001862D02*
X063083Y001862D01*
X066940Y001703D02*
X019605Y001703D01*
X019763Y001862D02*
X021997Y001862D01*
X021838Y002020D02*
X019922Y002020D01*
X020080Y002179D02*
X021680Y002179D01*
X021521Y002337D02*
X020239Y002337D01*
X020397Y002496D02*
X021363Y002496D01*
X021204Y002654D02*
X020556Y002654D01*
X020714Y002813D02*
X021046Y002813D01*
X020887Y002971D02*
X020873Y002971D01*
X025772Y005032D02*
X028169Y005032D01*
X028327Y005190D02*
X025771Y005190D01*
X025721Y005349D02*
X028967Y005349D01*
X029125Y005507D02*
X025596Y005507D01*
X025607Y005666D02*
X029284Y005666D01*
X029442Y005824D02*
X025766Y005824D01*
X025924Y005983D02*
X029601Y005983D01*
X029759Y006141D02*
X026083Y006141D01*
X026241Y006300D02*
X029918Y006300D01*
X030076Y006458D02*
X026400Y006458D01*
X026558Y006617D02*
X027314Y006617D01*
X027202Y006775D02*
X026717Y006775D01*
X026875Y006934D02*
X027180Y006934D01*
X027230Y007092D02*
X027034Y007092D01*
X027192Y007251D02*
X027446Y007251D01*
X027351Y007409D02*
X028507Y007409D01*
X028349Y007251D02*
X027634Y007251D01*
X027509Y007568D02*
X028666Y007568D01*
X028824Y007726D02*
X027657Y007726D01*
X027690Y007885D02*
X028983Y007885D01*
X029141Y008043D02*
X027745Y008043D01*
X027903Y008202D02*
X028296Y008202D01*
X028152Y008360D02*
X028062Y008360D01*
X029064Y008202D02*
X029300Y008202D01*
X029208Y008360D02*
X029458Y008360D01*
X029617Y008519D02*
X029273Y008519D01*
X029290Y008677D02*
X029775Y008677D01*
X029934Y008836D02*
X029276Y008836D01*
X029356Y008994D02*
X030092Y008994D01*
X029970Y009153D02*
X030251Y009153D01*
X030140Y009311D02*
X030409Y009311D01*
X030347Y009470D02*
X030180Y009470D01*
X030148Y009628D02*
X030238Y009628D01*
X029670Y009153D02*
X029514Y009153D01*
X030539Y008677D02*
X030735Y008677D01*
X030697Y008836D02*
X030894Y008836D01*
X030856Y008994D02*
X031030Y008994D01*
X031720Y008677D02*
X031855Y008677D01*
X031927Y008836D02*
X032203Y008836D01*
X031669Y008519D02*
X031340Y008519D01*
X031182Y008360D02*
X031600Y008360D01*
X031588Y008202D02*
X031023Y008202D01*
X030865Y008043D02*
X031625Y008043D01*
X031731Y007885D02*
X030706Y007885D01*
X030548Y007726D02*
X032460Y007726D01*
X032029Y007568D02*
X030389Y007568D01*
X030327Y007409D02*
X031027Y007409D01*
X030869Y007251D02*
X030194Y007251D01*
X029806Y007251D02*
X029112Y007251D01*
X029271Y007409D02*
X029673Y007409D01*
X029640Y007568D02*
X029429Y007568D01*
X029588Y007726D02*
X029679Y007726D01*
X029746Y007885D02*
X029843Y007885D01*
X029905Y008043D02*
X030101Y008043D01*
X030063Y008202D02*
X030260Y008202D01*
X030222Y008360D02*
X030418Y008360D01*
X030380Y008519D02*
X030577Y008519D01*
X033136Y007726D02*
X036591Y007726D01*
X040105Y008043D02*
X042625Y008043D01*
X042197Y006775D02*
X043139Y006775D01*
X041246Y005824D02*
X046036Y005824D01*
X046181Y005666D02*
X041087Y005666D01*
X040165Y005507D02*
X036596Y005507D01*
X036721Y005349D02*
X040007Y005349D01*
X039327Y005190D02*
X038872Y005190D01*
X039030Y005032D02*
X039169Y005032D01*
X040295Y004873D02*
X042265Y004873D01*
X042073Y004715D02*
X040290Y004715D01*
X040289Y004556D02*
X041914Y004556D01*
X043257Y004239D02*
X043365Y004239D01*
X043360Y004081D02*
X047000Y004081D01*
X046973Y004026D02*
X046959Y003829D01*
X047022Y003641D01*
X047151Y003491D01*
X047328Y003403D01*
X047526Y003389D01*
X047713Y003451D01*
X048252Y003918D01*
X048341Y004095D01*
X048355Y004292D01*
X048292Y004480D01*
X048163Y004630D01*
X047986Y004718D01*
X047788Y004732D01*
X047601Y004670D01*
X047062Y004203D01*
X046973Y004026D01*
X046966Y003922D02*
X043394Y003922D01*
X043379Y003764D02*
X046981Y003764D01*
X047053Y003605D02*
X043307Y003605D01*
X043135Y003447D02*
X047241Y003447D01*
X047699Y003447D02*
X048011Y003447D01*
X048112Y003605D02*
X047891Y003605D01*
X048074Y003764D02*
X048214Y003764D01*
X048254Y003922D02*
X048347Y003922D01*
X048334Y004081D02*
X049719Y004081D01*
X049877Y004239D02*
X048351Y004239D01*
X048320Y004398D02*
X050137Y004398D01*
X050071Y004556D02*
X048227Y004556D01*
X047993Y004715D02*
X050070Y004715D01*
X050100Y004873D02*
X047713Y004873D01*
X047735Y004715D02*
X047573Y004715D01*
X047469Y004556D02*
X047227Y004556D01*
X047286Y004398D02*
X046839Y004398D01*
X046635Y004239D02*
X047103Y004239D01*
X048969Y003922D02*
X049560Y003922D01*
X049402Y003764D02*
X049101Y003764D01*
X047909Y003288D02*
X043294Y003288D01*
X043452Y003130D02*
X047878Y003130D01*
X047897Y002971D02*
X043611Y002971D01*
X041801Y002337D02*
X041305Y002337D01*
X041369Y002496D02*
X041643Y002496D01*
X041960Y002179D02*
X041155Y002179D01*
X040604Y002179D02*
X040540Y002179D01*
X040382Y002020D02*
X042118Y002020D01*
X042277Y001862D02*
X040223Y001862D01*
X031297Y001862D02*
X029183Y001862D01*
X029342Y002020D02*
X031138Y002020D01*
X030980Y002179D02*
X030155Y002179D01*
X030305Y002337D02*
X030821Y002337D01*
X030663Y002496D02*
X030369Y002496D01*
X029604Y002179D02*
X029500Y002179D01*
X029223Y004398D02*
X031040Y004398D01*
X031133Y004556D02*
X029289Y004556D01*
X029290Y004715D02*
X031367Y004715D01*
X031625Y004715D02*
X031787Y004715D01*
X031891Y004556D02*
X032133Y004556D01*
X032074Y004398D02*
X036056Y004398D01*
X035459Y004556D02*
X032901Y004556D01*
X033010Y004715D02*
X035350Y004715D01*
X035311Y004873D02*
X033049Y004873D01*
X033039Y005032D02*
X035321Y005032D01*
X035387Y005190D02*
X032973Y005190D01*
X032794Y005349D02*
X035566Y005349D01*
X031639Y005349D02*
X029730Y005349D01*
X029572Y005190D02*
X031589Y005190D01*
X031588Y005032D02*
X029413Y005032D01*
X029260Y004873D02*
X031647Y004873D01*
X031157Y006775D02*
X032139Y006775D01*
X030710Y007092D02*
X028954Y007092D01*
X028795Y006934D02*
X030552Y006934D01*
X030393Y006775D02*
X028637Y006775D01*
X027766Y006617D02*
X030235Y006617D01*
X033839Y008677D02*
X035365Y008677D01*
X035493Y008836D02*
X033997Y008836D01*
X034156Y008994D02*
X035684Y008994D01*
X047596Y005507D02*
X051145Y005507D01*
X050987Y005349D02*
X047721Y005349D01*
X047771Y005190D02*
X050327Y005190D01*
X050169Y005032D02*
X047772Y005032D01*
X051223Y004398D02*
X053040Y004398D01*
X053133Y004556D02*
X051289Y004556D01*
X051290Y004715D02*
X053367Y004715D01*
X053625Y004715D02*
X053787Y004715D01*
X053891Y004556D02*
X054133Y004556D01*
X054074Y004398D02*
X058076Y004398D01*
X058227Y004556D02*
X058234Y004556D01*
X057459Y004556D02*
X054901Y004556D01*
X055010Y004715D02*
X057350Y004715D01*
X057311Y004873D02*
X055049Y004873D01*
X055039Y005032D02*
X057321Y005032D01*
X057387Y005190D02*
X054973Y005190D01*
X054794Y005349D02*
X057566Y005349D01*
X058596Y005507D02*
X062125Y005507D01*
X061967Y005349D02*
X058721Y005349D01*
X058771Y005190D02*
X061327Y005190D01*
X061169Y005032D02*
X058772Y005032D01*
X053647Y004873D02*
X051275Y004873D01*
X051433Y005032D02*
X053588Y005032D01*
X053589Y005190D02*
X051592Y005190D01*
X051750Y005349D02*
X053639Y005349D01*
X053177Y006775D02*
X054139Y006775D01*
X054460Y007726D02*
X050768Y007726D01*
X054867Y008836D02*
X057493Y008836D01*
X057365Y008677D02*
X054995Y008677D01*
X058157Y008836D02*
X058433Y008836D01*
X058505Y008677D02*
X058640Y008677D01*
X058691Y008519D02*
X061087Y008519D01*
X061070Y008677D02*
X059056Y008677D01*
X059254Y008836D02*
X061084Y008836D01*
X061150Y008994D02*
X059330Y008994D01*
X058760Y008360D02*
X061152Y008360D01*
X061296Y008202D02*
X058772Y008202D01*
X058747Y008070D02*
X064613Y008070D01*
X064591Y008119D01*
X064584Y008316D01*
X064653Y008502D01*
X064788Y008647D01*
X065437Y008942D01*
X065634Y008949D01*
X065820Y008880D01*
X065995Y008677D02*
X066030Y008677D01*
X065203Y008836D02*
X064927Y008836D01*
X064855Y008677D02*
X064720Y008677D01*
X064669Y008519D02*
X062273Y008519D01*
X062290Y008677D02*
X064304Y008677D01*
X064106Y008836D02*
X062276Y008836D01*
X062210Y008994D02*
X064030Y008994D01*
X064600Y008360D02*
X062208Y008360D01*
X062064Y008202D02*
X064588Y008202D01*
X065515Y007885D02*
X066030Y007885D01*
X066030Y008043D02*
X065855Y008043D01*
X065992Y008202D02*
X066030Y008202D01*
X065460Y007726D02*
X065048Y007726D01*
X065029Y007568D02*
X064884Y007568D01*
X066030Y011689D02*
X058030Y011689D01*
X058189Y011847D02*
X066011Y011847D01*
X065853Y012006D02*
X058347Y012006D01*
X058506Y012164D02*
X059333Y012164D01*
X059175Y012323D02*
X058664Y012323D01*
X058823Y012481D02*
X059070Y012481D01*
X059070Y012640D02*
X058981Y012640D01*
X060027Y012164D02*
X060333Y012164D01*
X061027Y012164D02*
X061333Y012164D01*
X063942Y012164D02*
X065694Y012164D01*
X065536Y012323D02*
X064100Y012323D01*
X064230Y012481D02*
X065377Y012481D01*
X065219Y012640D02*
X064230Y012640D01*
X064230Y012798D02*
X065060Y012798D01*
X064902Y012957D02*
X064181Y012957D01*
X064714Y013908D02*
X066940Y013908D01*
X066940Y014066D02*
X064556Y014066D01*
X064397Y014225D02*
X066940Y014225D01*
X066940Y014383D02*
X064239Y014383D01*
X064080Y014542D02*
X066940Y014542D01*
X066940Y014700D02*
X063922Y014700D01*
X063763Y014859D02*
X066940Y014859D01*
X066940Y015017D02*
X063605Y015017D01*
X063446Y015176D02*
X066940Y015176D01*
X066940Y015334D02*
X063288Y015334D01*
X063129Y015493D02*
X066940Y015493D01*
X066940Y015651D02*
X062971Y015651D01*
X062812Y015810D02*
X066940Y015810D01*
X066940Y015968D02*
X062654Y015968D01*
X062495Y016127D02*
X066940Y016127D01*
X066940Y016285D02*
X062337Y016285D01*
X062178Y016444D02*
X066940Y016444D01*
X066940Y016602D02*
X062020Y016602D01*
X061861Y016761D02*
X066940Y016761D01*
X066940Y016919D02*
X061703Y016919D01*
X061544Y017078D02*
X066940Y017078D01*
X066940Y017236D02*
X061386Y017236D01*
X061227Y017395D02*
X066940Y017395D01*
X052370Y003130D02*
X052241Y003130D01*
X052288Y002971D02*
X052472Y002971D01*
X052574Y002813D02*
X052334Y002813D01*
X052380Y002654D02*
X052749Y002654D01*
X052369Y002496D02*
X053943Y002496D01*
X053784Y002654D02*
X053210Y002654D01*
X053389Y002813D02*
X053626Y002813D01*
X053467Y002971D02*
X053463Y002971D01*
X054101Y002337D02*
X052305Y002337D01*
X052155Y002179D02*
X054260Y002179D01*
X054418Y002020D02*
X051362Y002020D01*
X051520Y002179D02*
X051604Y002179D01*
X051203Y001862D02*
X054577Y001862D01*
X066940Y001545D02*
X001420Y001545D01*
X001420Y001703D02*
X009435Y001703D01*
X009277Y001862D02*
X001420Y001862D01*
X001420Y002020D02*
X006379Y002020D01*
X006981Y002020D02*
X009118Y002020D01*
X008960Y002179D02*
X008155Y002179D01*
X008305Y002337D02*
X008801Y002337D01*
X008643Y002496D02*
X008369Y002496D01*
X007604Y002179D02*
X007117Y002179D01*
X007177Y002337D02*
X007448Y002337D01*
X007390Y002496D02*
X007177Y002496D01*
X007177Y002654D02*
X007344Y002654D01*
X007297Y002813D02*
X007177Y002813D01*
X005087Y005032D02*
X004770Y005032D01*
X004770Y005190D02*
X004928Y005190D01*
X004770Y005349D02*
X004693Y005349D01*
X004611Y005507D02*
X004535Y005507D01*
X004453Y005666D02*
X004376Y005666D01*
X004294Y005824D02*
X004218Y005824D01*
X005600Y014383D02*
X005760Y014383D01*
M02*
