G75*
%MOIN*%
%OFA0B0*%
%FSLAX24Y24*%
%IPPOS*%
%LPD*%
%AMOC8*
5,1,8,0,0,1.08239X$1,22.5*
%
%ADD10C,0.0000*%
%ADD11C,0.0515*%
%ADD12C,0.0740*%
%ADD13R,0.0630X0.0709*%
%ADD14R,0.0630X0.1063*%
%ADD15OC8,0.0740*%
%ADD16C,0.0060*%
%ADD17C,0.0240*%
%ADD18C,0.0160*%
D10*
X000180Y000180D02*
X000180Y018550D01*
X068172Y018550D01*
X068172Y000180D01*
X000180Y000180D01*
D11*
X006680Y002423D02*
X006680Y002937D01*
X005625Y003089D02*
X005481Y002595D01*
X004378Y003098D02*
X004657Y003532D01*
X003852Y004229D02*
X003462Y003892D01*
X002807Y004912D02*
X003276Y005125D01*
X002976Y006147D02*
X002466Y006074D01*
X002466Y007286D02*
X002976Y007213D01*
X003276Y008235D02*
X002807Y008448D01*
X003462Y009468D02*
X003852Y009131D01*
X004657Y009828D02*
X004378Y010262D01*
X005481Y010765D02*
X005625Y010271D01*
X006680Y010423D02*
X006680Y010937D01*
X007879Y010765D02*
X007735Y010271D01*
X008703Y009828D02*
X008982Y010262D01*
X009898Y009468D02*
X009508Y009131D01*
X010084Y008235D02*
X010553Y008448D01*
X013807Y008448D02*
X014276Y008235D01*
X014852Y009131D02*
X014462Y009468D01*
X015378Y010262D02*
X015657Y009828D01*
X016625Y010271D02*
X016481Y010765D01*
X017680Y010937D02*
X017680Y010423D01*
X018735Y010271D02*
X018879Y010765D01*
X019982Y010262D02*
X019703Y009828D01*
X020508Y009131D02*
X020898Y009468D01*
X021553Y008448D02*
X021084Y008235D01*
X021384Y007213D02*
X021894Y007286D01*
X024466Y007286D02*
X024976Y007213D01*
X025276Y008235D02*
X024807Y008448D01*
X025462Y009468D02*
X025852Y009131D01*
X026657Y009828D02*
X026378Y010262D01*
X027481Y010765D02*
X027625Y010271D01*
X028680Y010423D02*
X028680Y010937D01*
X029879Y010765D02*
X029735Y010271D01*
X030703Y009828D02*
X030982Y010262D01*
X031898Y009468D02*
X031508Y009131D01*
X032084Y008235D02*
X032553Y008448D01*
X035807Y008448D02*
X036276Y008235D01*
X036852Y009131D02*
X036462Y009468D01*
X037378Y010262D02*
X037657Y009828D01*
X038625Y010271D02*
X038481Y010765D01*
X039680Y010937D02*
X039680Y010423D01*
X040735Y010271D02*
X040879Y010765D01*
X041982Y010262D02*
X041703Y009828D01*
X042508Y009131D02*
X042898Y009468D01*
X043553Y008448D02*
X043084Y008235D01*
X043384Y007213D02*
X043894Y007286D01*
X046466Y007286D02*
X046976Y007213D01*
X047276Y008235D02*
X046807Y008448D01*
X047462Y009468D02*
X047852Y009131D01*
X048657Y009828D02*
X048378Y010262D01*
X049481Y010765D02*
X049625Y010271D01*
X050680Y010423D02*
X050680Y010937D01*
X051879Y010765D02*
X051735Y010271D01*
X052703Y009828D02*
X052982Y010262D01*
X053898Y009468D02*
X053508Y009131D01*
X054084Y008235D02*
X054553Y008448D01*
X057807Y008448D02*
X058276Y008235D01*
X058852Y009131D02*
X058462Y009468D01*
X059378Y010262D02*
X059657Y009828D01*
X060625Y010271D02*
X060481Y010765D01*
X061680Y010937D02*
X061680Y010423D01*
X062735Y010271D02*
X062879Y010765D01*
X063982Y010262D02*
X063703Y009828D01*
X064508Y009131D02*
X064898Y009468D01*
X065553Y008448D02*
X065084Y008235D01*
X065384Y007213D02*
X065894Y007286D01*
X065084Y005125D02*
X065553Y004912D01*
X064898Y003892D02*
X064508Y004229D01*
X063703Y003532D02*
X063982Y003098D01*
X062879Y002595D02*
X062735Y003089D01*
X061680Y002937D02*
X061680Y002423D01*
X060481Y002595D02*
X060625Y003089D01*
X059657Y003532D02*
X059378Y003098D01*
X058462Y003892D02*
X058852Y004229D01*
X058276Y005125D02*
X057807Y004912D01*
X054553Y004912D02*
X054084Y005125D01*
X053508Y004229D02*
X053898Y003892D01*
X052982Y003098D02*
X052703Y003532D01*
X051735Y003089D02*
X051879Y002595D01*
X050680Y002423D02*
X050680Y002937D01*
X049625Y003089D02*
X049481Y002595D01*
X048378Y003098D02*
X048657Y003532D01*
X047852Y004229D02*
X047462Y003892D01*
X046807Y004912D02*
X047276Y005125D01*
X046976Y006147D02*
X046466Y006074D01*
X043553Y004912D02*
X043084Y005125D01*
X042508Y004229D02*
X042898Y003892D01*
X041982Y003098D02*
X041703Y003532D01*
X040735Y003089D02*
X040879Y002595D01*
X039680Y002423D02*
X039680Y002937D01*
X038625Y003089D02*
X038481Y002595D01*
X037378Y003098D02*
X037657Y003532D01*
X036852Y004229D02*
X036462Y003892D01*
X035807Y004912D02*
X036276Y005125D01*
X035976Y006147D02*
X035466Y006074D01*
X032553Y004912D02*
X032084Y005125D01*
X031508Y004229D02*
X031898Y003892D01*
X030982Y003098D02*
X030703Y003532D01*
X029735Y003089D02*
X029879Y002595D01*
X028680Y002423D02*
X028680Y002937D01*
X027625Y003089D02*
X027481Y002595D01*
X026378Y003098D02*
X026657Y003532D01*
X025852Y004229D02*
X025462Y003892D01*
X024807Y004912D02*
X025276Y005125D01*
X024976Y006147D02*
X024466Y006074D01*
X021553Y004912D02*
X021084Y005125D01*
X020508Y004229D02*
X020898Y003892D01*
X019982Y003098D02*
X019703Y003532D01*
X018735Y003089D02*
X018879Y002595D01*
X017680Y002423D02*
X017680Y002937D01*
X016625Y003089D02*
X016481Y002595D01*
X015378Y003098D02*
X015657Y003532D01*
X014852Y004229D02*
X014462Y003892D01*
X013807Y004912D02*
X014276Y005125D01*
X013976Y006147D02*
X013466Y006074D01*
X010553Y004912D02*
X010084Y005125D01*
X009508Y004229D02*
X009898Y003892D01*
X008982Y003098D02*
X008703Y003532D01*
X007735Y003089D02*
X007879Y002595D01*
X010384Y007213D02*
X010894Y007286D01*
X013466Y007286D02*
X013976Y007213D01*
X032384Y007213D02*
X032894Y007286D01*
X035466Y007286D02*
X035976Y007213D01*
X054384Y007213D02*
X054894Y007286D01*
X057466Y007286D02*
X057976Y007213D01*
X057976Y006147D02*
X057466Y006074D01*
D12*
X061680Y004680D03*
X050680Y004680D03*
X039680Y004680D03*
X028680Y004680D03*
X017680Y004680D03*
X006680Y004680D03*
X006680Y008680D03*
X017680Y008680D03*
X028680Y008680D03*
X039680Y008680D03*
X050680Y008680D03*
X061680Y008680D03*
D13*
X034231Y015180D03*
X033129Y015180D03*
X012731Y015180D03*
X011629Y015180D03*
D14*
X011629Y013680D03*
X012731Y013680D03*
X033129Y013680D03*
X034231Y013680D03*
D15*
X059680Y013680D03*
X060680Y013680D03*
X061680Y013680D03*
X062680Y013680D03*
X063680Y013680D03*
X063680Y012680D03*
X062680Y012680D03*
X061680Y012680D03*
X060680Y012680D03*
X059680Y012680D03*
D16*
X059700Y012660D01*
X059700Y010440D01*
X060060Y010080D01*
X060060Y008700D01*
X058740Y008700D01*
X058560Y008880D01*
X054420Y008880D01*
X054240Y008700D01*
X050700Y008700D01*
X050680Y008680D01*
X050640Y008700D01*
X047100Y008700D01*
X045960Y009840D01*
X042240Y009840D01*
X041100Y008700D01*
X039720Y008700D01*
X039680Y008680D01*
X039660Y008700D01*
X038220Y008700D01*
X037020Y009900D01*
X033000Y009900D01*
X031800Y008700D01*
X028680Y008700D01*
X028680Y008680D01*
X028680Y008700D02*
X025740Y008700D01*
X025440Y009000D01*
X021120Y009000D01*
X020400Y008280D01*
X020100Y008280D01*
X020280Y007980D02*
X021180Y008880D01*
X024540Y008880D01*
X025020Y008400D01*
X025041Y008342D01*
X025080Y008340D01*
X025200Y008220D01*
X031500Y008220D01*
X032160Y008880D01*
X032700Y008880D01*
X033180Y008400D01*
X036000Y008400D01*
X036041Y008342D01*
X036000Y008340D01*
X036780Y007560D01*
X043200Y007560D01*
X043980Y008340D01*
X047040Y008340D01*
X047041Y008342D01*
X047100Y008340D01*
X050340Y008340D01*
X050880Y007800D01*
X057480Y007800D01*
X058020Y008340D01*
X058041Y008342D01*
X060060Y008700D02*
X061680Y008700D01*
X061680Y008680D01*
X062340Y008640D02*
X062340Y012360D01*
X062640Y012660D01*
X062680Y012680D01*
X062880Y013140D02*
X063180Y012840D01*
X063180Y010980D01*
X063300Y010860D01*
X063300Y007020D01*
X061980Y005700D01*
X047040Y005700D01*
X046380Y005040D01*
X043320Y005040D01*
X043319Y005018D01*
X043260Y005040D01*
X040020Y005040D01*
X039540Y005520D01*
X032820Y005520D01*
X032340Y005040D01*
X032319Y005018D01*
X032280Y005040D01*
X028980Y005040D01*
X028500Y005520D01*
X021840Y005520D01*
X021360Y005040D01*
X021319Y005018D01*
X021300Y004620D02*
X020340Y004620D01*
X019920Y004200D01*
X016980Y004200D01*
X016140Y003360D01*
X015540Y003360D01*
X015517Y003315D01*
X015480Y003360D01*
X015480Y004500D01*
X014460Y005520D01*
X009180Y005520D01*
X007380Y003720D01*
X004920Y003720D01*
X004560Y003360D01*
X004517Y003315D01*
X004560Y002700D02*
X005460Y003600D01*
X007440Y003600D01*
X008460Y004620D01*
X009660Y004620D01*
X009780Y004500D01*
X010680Y004500D01*
X011160Y004980D01*
X014040Y004980D01*
X014041Y005018D01*
X014580Y005580D02*
X014460Y005700D01*
X003120Y005700D01*
X002760Y006060D01*
X002721Y006111D01*
X003120Y006840D02*
X002760Y007200D01*
X002721Y007249D01*
X003120Y006840D02*
X010980Y006840D01*
X011340Y007200D01*
X013680Y007200D01*
X013721Y007249D01*
X013860Y007680D02*
X023220Y007680D01*
X024360Y006540D01*
X046260Y006540D01*
X046680Y006120D01*
X046721Y006111D01*
X047580Y005520D02*
X047100Y005040D01*
X047041Y005018D01*
X047640Y004620D02*
X050040Y004620D01*
X050520Y004140D01*
X053640Y004140D01*
X053700Y004080D01*
X053703Y004061D01*
X053160Y004020D02*
X053700Y003480D01*
X058080Y003480D01*
X058620Y004020D01*
X058657Y004061D01*
X058680Y004020D01*
X063780Y004020D01*
X064320Y003480D01*
X065040Y003480D01*
X066300Y004740D01*
X066300Y011760D01*
X063240Y014820D01*
X062940Y014820D01*
X062880Y015060D02*
X062400Y014580D01*
X056700Y014580D01*
X056820Y014400D02*
X062640Y014400D01*
X063180Y013860D01*
X063180Y013500D01*
X063540Y013140D01*
X063900Y013140D01*
X064380Y012660D01*
X064380Y009540D01*
X064140Y009300D01*
X064140Y006900D01*
X065940Y005100D01*
X065940Y004740D01*
X065280Y004080D01*
X064740Y004080D01*
X064703Y004061D01*
X066420Y004680D02*
X063960Y002220D01*
X062700Y002220D01*
X062040Y002880D01*
X062040Y003120D01*
X061860Y003300D01*
X061020Y003300D01*
X060600Y002880D01*
X060553Y002842D01*
X060300Y003480D02*
X059520Y002700D01*
X051960Y002700D01*
X051840Y002820D01*
X051807Y002842D01*
X050700Y002640D02*
X050680Y002680D01*
X050220Y002220D01*
X040680Y002220D01*
X040260Y002640D01*
X039720Y002640D01*
X039680Y002680D01*
X039660Y002640D01*
X039060Y002640D01*
X038640Y002220D01*
X029100Y002220D01*
X028680Y002640D01*
X028680Y002680D01*
X028680Y002640D02*
X028080Y002640D01*
X027660Y002220D01*
X018120Y002220D01*
X017700Y002640D01*
X017680Y002680D01*
X017220Y002220D01*
X007680Y002220D01*
X007260Y002640D01*
X006720Y002640D01*
X006680Y002680D01*
X006120Y002880D02*
X006720Y003480D01*
X008040Y003480D01*
X008940Y002580D01*
X016260Y002580D01*
X016500Y002820D01*
X016553Y002842D01*
X016560Y002880D01*
X017100Y002880D01*
X017700Y003480D01*
X019020Y003480D01*
X019800Y002700D01*
X027420Y002700D01*
X027540Y002820D01*
X027553Y002842D01*
X027600Y002880D01*
X028080Y002880D01*
X028680Y003480D01*
X030060Y003480D01*
X030840Y002700D01*
X038400Y002700D01*
X038520Y002820D01*
X038553Y002842D01*
X037680Y003480D02*
X037560Y003360D01*
X037517Y003315D01*
X037500Y003360D01*
X031440Y003360D01*
X030840Y003960D01*
X027120Y003960D01*
X026520Y003360D01*
X026517Y003315D01*
X026460Y003360D01*
X022560Y003360D01*
X021300Y004620D01*
X020280Y003960D02*
X020760Y003480D01*
X022140Y003480D01*
X021540Y003240D02*
X019920Y003240D01*
X019860Y003300D01*
X019843Y003315D01*
X020280Y003960D02*
X016920Y003960D01*
X015660Y002700D01*
X015240Y002700D01*
X014700Y003240D01*
X014700Y004020D01*
X014657Y004061D01*
X014580Y005580D02*
X018900Y005580D01*
X023580Y007620D02*
X024540Y006660D01*
X057180Y006660D01*
X057720Y006120D01*
X057721Y006111D01*
X055380Y007200D02*
X055020Y006840D01*
X047100Y006840D01*
X046740Y007200D01*
X046721Y007249D01*
X046680Y007200D01*
X044340Y007200D01*
X043980Y006840D01*
X036120Y006840D01*
X035760Y007200D01*
X035721Y007249D01*
X035700Y007200D01*
X035340Y006840D01*
X032220Y006840D01*
X031860Y007200D01*
X024780Y007200D01*
X024721Y007249D01*
X024900Y007620D02*
X029940Y007620D01*
X030000Y007560D01*
X031740Y007800D02*
X032280Y008340D01*
X032319Y008342D01*
X031740Y007800D02*
X024900Y007800D01*
X024360Y008340D01*
X021360Y008340D01*
X021319Y008342D01*
X021300Y008340D01*
X020760Y007800D01*
X013920Y007800D01*
X013380Y008340D01*
X010320Y008340D01*
X010319Y008342D01*
X009960Y008580D02*
X010260Y008880D01*
X013560Y008880D01*
X014040Y008400D01*
X014041Y008342D01*
X014100Y008340D01*
X014880Y008340D01*
X015240Y007980D01*
X020280Y007980D01*
X019560Y008100D02*
X020700Y009240D01*
X020703Y009299D01*
X021060Y009840D02*
X021600Y009300D01*
X025620Y009300D01*
X025657Y009299D01*
X026520Y010020D02*
X026700Y009840D01*
X028200Y009840D01*
X028920Y009120D01*
X030540Y009120D01*
X031260Y009840D01*
X031800Y009840D01*
X031980Y010020D01*
X037500Y010020D01*
X037517Y010045D01*
X037200Y010980D02*
X038460Y009720D01*
X040920Y009720D01*
X041220Y010020D01*
X041820Y010020D01*
X041843Y010045D01*
X041880Y010080D01*
X042480Y010680D01*
X048540Y010680D01*
X049500Y009720D01*
X052080Y009720D01*
X052380Y010020D01*
X052800Y010020D01*
X052843Y010045D01*
X052680Y010500D02*
X052020Y009840D01*
X051540Y009840D01*
X050700Y010680D01*
X050680Y010680D01*
X051000Y011340D02*
X051780Y010560D01*
X051807Y010518D01*
X052680Y010500D02*
X051720Y011460D01*
X040500Y011460D01*
X039720Y010680D01*
X039680Y010680D01*
X039660Y010680D01*
X038340Y012000D01*
X038100Y011820D02*
X038220Y011700D01*
X038100Y011820D02*
X038100Y012300D01*
X034620Y015780D01*
X031500Y015780D01*
X030840Y015120D01*
X030840Y015000D01*
X029400Y013560D01*
X019020Y013560D01*
X018660Y013200D01*
X014400Y013200D01*
X014280Y013320D01*
X014160Y013320D01*
X014460Y013440D02*
X016200Y015180D01*
X016140Y014640D02*
X017340Y013440D01*
X018840Y013080D02*
X013140Y013080D01*
X013080Y013020D01*
X012300Y013020D01*
X011640Y013680D01*
X011629Y013680D01*
X010200Y013680D01*
X007260Y013680D01*
X003960Y010380D01*
X003960Y009960D01*
X004500Y009420D01*
X005460Y009420D01*
X005340Y009240D02*
X006120Y008460D01*
X006240Y008460D01*
X006480Y008220D01*
X009300Y008220D01*
X009780Y008700D01*
X009900Y008700D01*
X010680Y009480D01*
X014460Y009480D01*
X014640Y009300D01*
X014657Y009299D01*
X014700Y009240D01*
X015720Y008220D01*
X018660Y008220D01*
X020280Y009840D01*
X021060Y009840D01*
X020700Y010080D02*
X020100Y010680D01*
X019680Y010680D01*
X018840Y009840D01*
X015720Y009840D01*
X015540Y010020D01*
X015517Y010045D01*
X015480Y010020D01*
X010800Y010020D01*
X010620Y009840D01*
X009660Y009840D01*
X009120Y009300D01*
X006060Y009300D01*
X005340Y010020D01*
X004560Y010020D01*
X004517Y010045D01*
X005553Y010518D02*
X005580Y010500D01*
X006060Y010500D01*
X007140Y009420D01*
X009060Y009420D01*
X009600Y009960D01*
X010560Y009960D01*
X011280Y010680D01*
X016380Y010680D01*
X016500Y010560D01*
X016553Y010518D01*
X016560Y010560D01*
X017340Y011340D01*
X025860Y011340D01*
X026640Y010560D01*
X027540Y010560D01*
X027553Y010518D01*
X028320Y010500D02*
X028320Y010260D01*
X029340Y009240D01*
X030060Y009240D01*
X030840Y010020D01*
X030843Y010045D01*
X030900Y010080D01*
X031860Y010080D01*
X032760Y010980D01*
X033120Y010980D01*
X037200Y010980D01*
X037860Y011220D02*
X038520Y010560D01*
X038553Y010518D01*
X038580Y010500D01*
X038880Y010500D01*
X039540Y009840D01*
X040860Y009840D01*
X041820Y010800D01*
X049260Y010800D01*
X049500Y010560D01*
X049553Y010518D01*
X049020Y010020D02*
X049620Y009420D01*
X053280Y009420D01*
X053880Y010020D01*
X059460Y010020D01*
X059517Y010045D01*
X060180Y012180D02*
X061680Y010680D01*
X063180Y015060D02*
X066420Y011820D01*
X066420Y004680D01*
X065319Y005018D02*
X065280Y005040D01*
X063300Y007020D01*
X062340Y008640D02*
X060960Y007260D01*
X057780Y007260D01*
X057721Y007249D01*
X057720Y007200D01*
X055380Y007200D01*
X054480Y005520D02*
X047580Y005520D01*
X047640Y004620D02*
X047100Y004080D01*
X042720Y004080D01*
X042703Y004061D01*
X042180Y004020D02*
X042720Y003480D01*
X047100Y003480D01*
X047640Y004020D01*
X047657Y004061D01*
X047700Y004020D01*
X053160Y004020D01*
X054480Y005520D02*
X054960Y005040D01*
X058020Y005040D01*
X058041Y005018D01*
X060300Y003480D02*
X061860Y003480D01*
X062460Y002880D01*
X062760Y002880D01*
X062807Y002842D01*
X061680Y002680D02*
X061680Y002640D01*
X061260Y002220D01*
X051720Y002220D01*
X051300Y002640D01*
X050700Y002640D01*
X048517Y003315D02*
X048480Y003300D01*
X042720Y003300D01*
X042120Y002700D01*
X041700Y002700D01*
X040920Y003480D01*
X037680Y003480D01*
X036660Y004020D02*
X036657Y004061D01*
X036600Y004020D01*
X036060Y003480D01*
X031740Y003480D01*
X031140Y004080D01*
X025680Y004080D01*
X025657Y004061D01*
X027720Y004980D02*
X028500Y004200D01*
X030960Y004200D01*
X031380Y004620D01*
X032340Y004620D01*
X032460Y004500D01*
X035520Y004500D01*
X036000Y004980D01*
X036041Y005018D01*
X036660Y004020D02*
X042180Y004020D01*
X041100Y007680D02*
X036840Y007680D01*
X036660Y007860D01*
X036660Y008400D01*
X035640Y009420D01*
X033900Y009420D01*
X035460Y009660D02*
X035580Y009660D01*
X036900Y008340D01*
X036900Y007920D01*
X041100Y007680D02*
X042660Y009240D01*
X042703Y009299D01*
X040800Y010500D02*
X040320Y010020D01*
X039540Y010020D01*
X039300Y010260D01*
X039300Y010500D01*
X038460Y011340D01*
X031500Y011340D01*
X030720Y010560D01*
X029820Y010560D01*
X029807Y010518D01*
X028680Y010680D02*
X027360Y012000D01*
X018540Y012000D01*
X018300Y011760D01*
X016740Y011760D01*
X008340Y011760D01*
X007260Y010680D01*
X006680Y010680D01*
X008843Y010045D02*
X008880Y010080D01*
X010500Y010080D01*
X011940Y011520D01*
X018360Y011520D01*
X018600Y011760D01*
X027060Y011760D01*
X028320Y010500D01*
X029340Y009960D02*
X029820Y009480D01*
X029340Y009960D02*
X029340Y013320D01*
X031080Y015060D01*
X031320Y015300D01*
X032100Y015300D01*
X032220Y015180D01*
X033129Y015180D01*
X033480Y014700D02*
X033780Y015000D01*
X033780Y015540D01*
X033900Y015660D01*
X034560Y015660D01*
X036300Y013920D01*
X036300Y013740D01*
X036420Y013560D02*
X036180Y013320D01*
X036240Y013080D02*
X034860Y013080D01*
X034260Y013680D01*
X034231Y013680D01*
X034260Y013680D02*
X034260Y014340D01*
X030720Y014340D01*
X029880Y013500D01*
X029820Y013500D01*
X029580Y013260D01*
X029880Y013260D02*
X032520Y013260D01*
X032820Y012960D01*
X036420Y012960D01*
X036720Y013260D01*
X036720Y013380D01*
X036540Y013560D01*
X036420Y013560D01*
X036480Y013320D02*
X036240Y013080D01*
X035340Y013320D02*
X035340Y014100D01*
X034260Y014340D02*
X034260Y015180D01*
X034231Y015180D01*
X034680Y015900D02*
X035520Y015060D01*
X035880Y015060D01*
X037320Y015060D02*
X038400Y013980D01*
X056760Y013980D01*
X056940Y014160D01*
X060900Y014160D01*
X061380Y013680D01*
X061680Y013680D01*
X062220Y013800D02*
X062220Y013440D01*
X062520Y013140D01*
X062880Y013140D01*
X060180Y012840D02*
X060180Y012180D01*
X060180Y012840D02*
X059880Y013140D01*
X055320Y013140D01*
X052680Y010500D01*
X051000Y011340D02*
X042180Y011340D01*
X041400Y010560D01*
X040860Y010560D01*
X040807Y010518D01*
X040800Y010500D01*
X037860Y011220D02*
X032820Y011220D01*
X032640Y011040D01*
X032520Y011040D01*
X026517Y010045D02*
X026520Y010020D01*
X026517Y010045D02*
X026460Y010080D01*
X020700Y010080D01*
X017680Y008680D02*
X017640Y008700D01*
X015840Y008700D01*
X014700Y009840D01*
X010800Y009840D01*
X009780Y008820D01*
X009720Y008820D01*
X009600Y008700D01*
X006720Y008700D01*
X006680Y008680D01*
X006180Y008340D02*
X006420Y008100D01*
X009360Y008100D01*
X009840Y008580D01*
X009960Y008580D01*
X012420Y009240D02*
X014160Y009240D01*
X015300Y008100D01*
X019560Y008100D01*
X023700Y008100D02*
X024420Y008100D01*
X024900Y007620D01*
X025980Y006900D02*
X027540Y006900D01*
X027720Y004980D02*
X025080Y004980D01*
X025041Y005018D01*
X013860Y007680D02*
X013440Y008100D01*
X012660Y008100D01*
X006180Y008340D02*
X003060Y008340D01*
X003041Y008342D01*
X003840Y008580D02*
X004500Y008580D01*
X003840Y008580D02*
X003060Y009360D01*
X003060Y009660D01*
X010560Y017160D01*
X016260Y017160D01*
X012731Y015180D02*
X012720Y015180D01*
X012720Y013680D01*
X012731Y013680D01*
X014220Y013680D01*
X014460Y013440D01*
X009780Y015180D02*
X009660Y015060D01*
X009780Y015180D02*
X011629Y015180D01*
X025020Y016200D02*
X034800Y016200D01*
X035940Y017340D01*
X035460Y017340D02*
X034800Y016680D01*
X025020Y016680D01*
X029340Y013800D02*
X031440Y015900D01*
X034680Y015900D01*
X032760Y014700D02*
X032400Y015060D01*
X032040Y015060D01*
X032760Y014700D02*
X033480Y014700D01*
X031380Y016020D02*
X030420Y015060D01*
X030300Y015060D01*
X031380Y016020D02*
X053460Y016020D01*
X055380Y014100D01*
X056700Y014100D01*
X056880Y014280D01*
X061740Y014280D01*
X062220Y013800D01*
X062880Y015060D02*
X063180Y015060D01*
X056820Y014400D02*
X056760Y014340D01*
X055440Y014340D01*
X049020Y010020D02*
X048540Y010020D01*
X048517Y010045D01*
X033129Y013680D02*
X030360Y013680D01*
X030180Y013500D01*
X005340Y009240D02*
X003660Y009240D01*
X003657Y009299D01*
X003041Y005018D02*
X003060Y004980D01*
X003060Y003780D01*
X004140Y002700D01*
X004560Y002700D01*
X005553Y002842D02*
X005580Y002880D01*
X006120Y002880D01*
X007440Y004080D02*
X003660Y004080D01*
X003657Y004061D01*
X007440Y004080D02*
X007980Y004620D01*
D17*
X007980Y004620D03*
X018900Y005580D03*
X022140Y003480D03*
X021540Y003240D03*
X025980Y006900D03*
X027540Y006900D03*
X030000Y007560D03*
X033900Y009420D03*
X035460Y009660D03*
X033120Y010980D03*
X032520Y011040D03*
X029820Y009480D03*
X023700Y008100D03*
X023580Y007620D03*
X020100Y008280D03*
X012660Y008100D03*
X012420Y009240D03*
X005460Y009420D03*
X004500Y008580D03*
X016740Y011760D03*
X018600Y011760D03*
X018840Y013080D03*
X017340Y013440D03*
X014460Y013440D03*
X014160Y013320D03*
X010200Y013680D03*
X009660Y015060D03*
X016140Y014640D03*
X016200Y015180D03*
X016260Y017160D03*
X025020Y016680D03*
X025020Y016200D03*
X030300Y015060D03*
X031080Y015060D03*
X032040Y015060D03*
X030720Y014340D03*
X029340Y013800D03*
X030180Y013500D03*
X029880Y013260D03*
X029580Y013260D03*
X035340Y013320D03*
X036180Y013320D03*
X036480Y013320D03*
X036300Y013740D03*
X035340Y014100D03*
X035880Y015060D03*
X037320Y015060D03*
X035940Y017340D03*
X035460Y017340D03*
X038340Y012000D03*
X038220Y011700D03*
X036900Y007920D03*
X055440Y014340D03*
X056700Y014580D03*
X062940Y014820D03*
D18*
X062651Y015213D02*
X062288Y014850D01*
X056939Y014850D01*
X056904Y014885D01*
X056772Y014940D01*
X056628Y014940D01*
X056496Y014885D01*
X056395Y014784D01*
X056340Y014652D01*
X056340Y014610D01*
X055679Y014610D01*
X055644Y014645D01*
X055512Y014700D01*
X055368Y014700D01*
X055236Y014645D01*
X055226Y014635D01*
X053613Y016249D01*
X053514Y016290D01*
X035272Y016290D01*
X035962Y016980D01*
X036012Y016980D01*
X036144Y017035D01*
X036245Y017136D01*
X036300Y017268D01*
X036300Y017412D01*
X036288Y017440D01*
X066940Y017440D01*
X066940Y001420D01*
X001420Y001420D01*
X001420Y017440D01*
X016031Y017440D01*
X016021Y017430D01*
X010506Y017430D01*
X010407Y017389D01*
X002907Y009889D01*
X002831Y009813D01*
X002790Y009714D01*
X002790Y009306D01*
X002831Y009207D01*
X003241Y008798D01*
X002923Y008942D01*
X002726Y008949D01*
X002540Y008880D01*
X002396Y008745D01*
X002313Y008565D01*
X002307Y008367D01*
X002376Y008182D01*
X002511Y008037D01*
X003160Y007741D01*
X003357Y007734D01*
X003543Y007804D01*
X003687Y007939D01*
X003747Y008070D01*
X006068Y008070D01*
X006191Y007947D01*
X006267Y007871D01*
X006366Y007830D01*
X009414Y007830D01*
X009513Y007871D01*
X009644Y008002D01*
X009673Y007939D01*
X009817Y007804D01*
X010003Y007734D01*
X010200Y007741D01*
X010849Y008037D01*
X010880Y008070D01*
X012300Y008070D01*
X012300Y008028D01*
X012355Y007896D01*
X012456Y007795D01*
X012588Y007740D01*
X012732Y007740D01*
X012864Y007795D01*
X012899Y007830D01*
X013328Y007830D01*
X013435Y007723D01*
X013425Y007723D01*
X013357Y007711D01*
X013292Y007689D01*
X013231Y007657D01*
X013176Y007616D01*
X013128Y007566D01*
X013089Y007510D01*
X013058Y007448D01*
X013038Y007382D01*
X013033Y007348D01*
X013028Y007314D01*
X013029Y007245D01*
X013041Y007178D01*
X013063Y007112D01*
X013095Y007051D01*
X013136Y006996D01*
X013186Y006948D01*
X013242Y006909D01*
X013304Y006878D01*
X013369Y006858D01*
X013658Y006816D01*
X013721Y007249D01*
X013721Y007249D01*
X014409Y007150D01*
X014404Y007116D01*
X014383Y007050D01*
X014353Y006988D01*
X014313Y006932D01*
X014265Y006883D01*
X014210Y006842D01*
X014149Y006809D01*
X014084Y006787D01*
X014016Y006776D01*
X013947Y006775D01*
X013658Y006816D01*
X013721Y007249D01*
X013721Y007249D01*
X014409Y007150D01*
X014413Y007184D01*
X014413Y007253D01*
X014401Y007321D01*
X014379Y007386D01*
X014366Y007410D01*
X020921Y007410D01*
X020878Y007240D01*
X020906Y007044D01*
X021007Y006873D01*
X021166Y006755D01*
X021357Y006706D01*
X022063Y006808D01*
X022233Y006909D01*
X022352Y007067D01*
X022401Y007259D01*
X022379Y007410D01*
X023108Y007410D01*
X024101Y006417D01*
X024008Y006293D01*
X023959Y006101D01*
X023988Y005905D01*
X024056Y005790D01*
X021786Y005790D01*
X021687Y005749D01*
X021445Y005507D01*
X021200Y005619D01*
X021003Y005626D01*
X020817Y005556D01*
X020673Y005421D01*
X020591Y005241D01*
X020584Y005044D01*
X020641Y004890D01*
X020286Y004890D01*
X020187Y004849D01*
X020111Y004773D01*
X019808Y004470D01*
X018253Y004470D01*
X018290Y004559D01*
X018290Y004801D01*
X018197Y005026D01*
X018026Y005197D01*
X017801Y005290D01*
X017559Y005290D01*
X017334Y005197D01*
X017163Y005026D01*
X017070Y004801D01*
X017070Y004559D01*
X017107Y004470D01*
X016926Y004470D01*
X016827Y004429D01*
X016751Y004353D01*
X016123Y003725D01*
X016122Y003734D01*
X016009Y003897D01*
X015842Y004004D01*
X015750Y004020D01*
X015750Y004554D01*
X015709Y004653D01*
X015633Y004729D01*
X015052Y005310D01*
X018661Y005310D01*
X018696Y005275D01*
X018828Y005220D01*
X018972Y005220D01*
X019104Y005275D01*
X019205Y005376D01*
X019260Y005508D01*
X019260Y005652D01*
X019205Y005784D01*
X019104Y005885D01*
X018972Y005940D01*
X018828Y005940D01*
X018696Y005885D01*
X018661Y005850D01*
X014692Y005850D01*
X014689Y005853D01*
X014613Y005929D01*
X014514Y005970D01*
X014444Y005970D01*
X014482Y006120D01*
X014454Y006316D01*
X014353Y006487D01*
X014194Y006605D01*
X014003Y006654D01*
X013297Y006552D01*
X013127Y006451D01*
X013008Y006293D01*
X012959Y006101D01*
X012978Y005970D01*
X003444Y005970D01*
X003482Y006120D01*
X003454Y006316D01*
X003353Y006487D01*
X003194Y006605D01*
X003003Y006654D01*
X002297Y006552D01*
X002127Y006451D01*
X002008Y006293D01*
X001959Y006101D01*
X001988Y005905D01*
X002089Y005735D01*
X002247Y005616D01*
X002439Y005568D01*
X002816Y005622D01*
X002891Y005547D01*
X002926Y005512D01*
X002511Y005323D01*
X002376Y005178D01*
X002307Y004993D01*
X002313Y004795D01*
X002396Y004615D01*
X002540Y004480D01*
X002726Y004411D01*
X002790Y004413D01*
X002790Y003726D01*
X002831Y003627D01*
X002907Y003551D01*
X003987Y002471D01*
X004086Y002430D01*
X004614Y002430D01*
X004713Y002471D01*
X004789Y002547D01*
X005014Y002773D01*
X004976Y002640D01*
X004997Y002443D01*
X005092Y002269D01*
X005246Y002145D01*
X005436Y002090D01*
X005633Y002111D01*
X005807Y002206D01*
X005931Y002360D01*
X006004Y002610D01*
X006174Y002610D01*
X006183Y002614D01*
X006183Y002324D01*
X006258Y002141D01*
X006398Y002001D01*
X006581Y001925D01*
X006779Y001925D01*
X006962Y002001D01*
X007102Y002141D01*
X007177Y002324D01*
X007177Y002341D01*
X007451Y002067D01*
X007527Y001991D01*
X007626Y001950D01*
X017274Y001950D01*
X017373Y001991D01*
X017390Y002009D01*
X017398Y002001D01*
X017581Y001925D01*
X017779Y001925D01*
X017959Y001999D01*
X017967Y001991D01*
X018066Y001950D01*
X027714Y001950D01*
X027813Y001991D01*
X027889Y002067D01*
X028183Y002361D01*
X028183Y002324D01*
X028258Y002141D01*
X028398Y002001D01*
X028581Y001925D01*
X028779Y001925D01*
X028945Y001994D01*
X028947Y001991D01*
X029046Y001950D01*
X038694Y001950D01*
X038793Y001991D01*
X038869Y002067D01*
X039172Y002370D01*
X039183Y002370D01*
X039183Y002324D01*
X039258Y002141D01*
X039398Y002001D01*
X039581Y001925D01*
X039779Y001925D01*
X039962Y002001D01*
X040102Y002141D01*
X040177Y002324D01*
X040177Y002341D01*
X040451Y002067D01*
X040527Y001991D01*
X040626Y001950D01*
X050274Y001950D01*
X050373Y001991D01*
X050390Y002009D01*
X050398Y002001D01*
X050581Y001925D01*
X050779Y001925D01*
X050962Y002001D01*
X051102Y002141D01*
X051177Y002324D01*
X051177Y002370D01*
X051188Y002370D01*
X051491Y002067D01*
X051567Y001991D01*
X051666Y001950D01*
X061314Y001950D01*
X061413Y001991D01*
X061415Y001994D01*
X061581Y001925D01*
X061779Y001925D01*
X061962Y002001D01*
X062102Y002141D01*
X062177Y002324D01*
X062177Y002361D01*
X062547Y001991D01*
X062646Y001950D01*
X064014Y001950D01*
X064113Y001991D01*
X064189Y002067D01*
X064189Y002067D01*
X066573Y004451D01*
X066649Y004527D01*
X066690Y004626D01*
X066690Y011874D01*
X066649Y011973D01*
X066573Y012049D01*
X063333Y015289D01*
X063234Y015330D01*
X062826Y015330D01*
X062727Y015289D01*
X062651Y015213D01*
X062614Y015176D02*
X054686Y015176D01*
X054528Y015334D02*
X066940Y015334D01*
X066940Y015176D02*
X063446Y015176D01*
X063605Y015017D02*
X066940Y015017D01*
X066940Y014859D02*
X063763Y014859D01*
X063922Y014700D02*
X066940Y014700D01*
X066940Y014542D02*
X064080Y014542D01*
X064239Y014383D02*
X066940Y014383D01*
X066940Y014225D02*
X064397Y014225D01*
X064556Y014066D02*
X066940Y014066D01*
X066940Y013908D02*
X064714Y013908D01*
X064873Y013749D02*
X066940Y013749D01*
X066940Y013591D02*
X065031Y013591D01*
X065190Y013432D02*
X066940Y013432D01*
X066940Y013274D02*
X065348Y013274D01*
X065507Y013115D02*
X066940Y013115D01*
X066940Y012957D02*
X065665Y012957D01*
X065824Y012798D02*
X066940Y012798D01*
X066940Y012640D02*
X065982Y012640D01*
X066141Y012481D02*
X066940Y012481D01*
X066940Y012323D02*
X066299Y012323D01*
X066458Y012164D02*
X066940Y012164D01*
X066940Y012006D02*
X066616Y012006D01*
X066690Y011847D02*
X066940Y011847D01*
X066940Y011689D02*
X066690Y011689D01*
X066690Y011530D02*
X066940Y011530D01*
X066940Y011372D02*
X066690Y011372D01*
X066690Y011213D02*
X066940Y011213D01*
X066940Y011055D02*
X066690Y011055D01*
X066690Y010896D02*
X066940Y010896D01*
X066940Y010738D02*
X066690Y010738D01*
X066690Y010579D02*
X066940Y010579D01*
X066940Y010421D02*
X066690Y010421D01*
X066690Y010262D02*
X066940Y010262D01*
X066940Y010104D02*
X066690Y010104D01*
X066690Y009945D02*
X066940Y009945D01*
X066940Y009787D02*
X066690Y009787D01*
X066690Y009628D02*
X066940Y009628D01*
X066940Y009470D02*
X066690Y009470D01*
X066690Y009311D02*
X066940Y009311D01*
X066940Y009153D02*
X066690Y009153D01*
X066690Y008994D02*
X066940Y008994D01*
X066940Y008836D02*
X066690Y008836D01*
X066690Y008677D02*
X066940Y008677D01*
X066940Y008519D02*
X066690Y008519D01*
X066690Y008360D02*
X066940Y008360D01*
X066940Y008202D02*
X066690Y008202D01*
X066690Y008043D02*
X066940Y008043D01*
X066940Y007885D02*
X066690Y007885D01*
X066690Y007726D02*
X066940Y007726D01*
X066940Y007568D02*
X066690Y007568D01*
X066690Y007409D02*
X066940Y007409D01*
X066940Y007251D02*
X066690Y007251D01*
X066690Y007092D02*
X066940Y007092D01*
X066940Y006934D02*
X066690Y006934D01*
X066690Y006775D02*
X066940Y006775D01*
X066940Y006617D02*
X066690Y006617D01*
X066690Y006458D02*
X066940Y006458D01*
X066940Y006300D02*
X066690Y006300D01*
X066690Y006141D02*
X066940Y006141D01*
X066940Y005983D02*
X066690Y005983D01*
X066690Y005824D02*
X066940Y005824D01*
X066940Y005666D02*
X066690Y005666D01*
X066690Y005507D02*
X066940Y005507D01*
X066940Y005349D02*
X066690Y005349D01*
X066690Y005190D02*
X066940Y005190D01*
X066940Y005032D02*
X066690Y005032D01*
X066690Y004873D02*
X066940Y004873D01*
X066940Y004715D02*
X066690Y004715D01*
X066661Y004556D02*
X066940Y004556D01*
X066940Y004398D02*
X066519Y004398D01*
X066573Y004451D02*
X066573Y004451D01*
X066361Y004239D02*
X066940Y004239D01*
X066940Y004081D02*
X066202Y004081D01*
X066044Y003922D02*
X066940Y003922D01*
X066940Y003764D02*
X065885Y003764D01*
X065727Y003605D02*
X066940Y003605D01*
X066940Y003447D02*
X065568Y003447D01*
X065410Y003288D02*
X066940Y003288D01*
X066940Y003130D02*
X065251Y003130D01*
X065093Y002971D02*
X066940Y002971D01*
X066940Y002813D02*
X064934Y002813D01*
X064776Y002654D02*
X066940Y002654D01*
X066940Y002496D02*
X064617Y002496D01*
X064459Y002337D02*
X066940Y002337D01*
X066940Y002179D02*
X064300Y002179D01*
X064142Y002020D02*
X066940Y002020D01*
X066940Y001862D02*
X001420Y001862D01*
X001420Y002020D02*
X006379Y002020D01*
X006243Y002179D02*
X005756Y002179D01*
X005912Y002337D02*
X006183Y002337D01*
X006183Y002496D02*
X005970Y002496D01*
X005055Y002337D02*
X001420Y002337D01*
X001420Y002179D02*
X005205Y002179D01*
X004991Y002496D02*
X004737Y002496D01*
X004896Y002654D02*
X004980Y002654D01*
X003963Y002496D02*
X001420Y002496D01*
X001420Y002654D02*
X003804Y002654D01*
X003646Y002813D02*
X001420Y002813D01*
X001420Y002971D02*
X003487Y002971D01*
X003329Y003130D02*
X001420Y003130D01*
X001420Y003288D02*
X003170Y003288D01*
X003012Y003447D02*
X001420Y003447D01*
X001420Y003605D02*
X002853Y003605D01*
X002790Y003764D02*
X001420Y003764D01*
X001420Y003922D02*
X002790Y003922D01*
X002790Y004081D02*
X001420Y004081D01*
X001420Y004239D02*
X002790Y004239D01*
X002790Y004398D02*
X001420Y004398D01*
X001420Y004556D02*
X002459Y004556D01*
X002350Y004715D02*
X001420Y004715D01*
X001420Y004873D02*
X002311Y004873D01*
X002321Y005032D02*
X001420Y005032D01*
X001420Y005190D02*
X002387Y005190D01*
X002566Y005349D02*
X001420Y005349D01*
X001420Y005507D02*
X002914Y005507D01*
X002891Y005547D02*
X002891Y005547D01*
X002181Y005666D02*
X001420Y005666D01*
X001420Y005824D02*
X002036Y005824D01*
X001976Y005983D02*
X001420Y005983D01*
X001420Y006141D02*
X001970Y006141D01*
X002013Y006300D02*
X001420Y006300D01*
X001420Y006458D02*
X002138Y006458D01*
X002743Y006617D02*
X001420Y006617D01*
X001420Y006775D02*
X002944Y006775D01*
X002947Y006775D02*
X003016Y006776D01*
X003084Y006787D01*
X003149Y006809D01*
X003210Y006842D01*
X003265Y006883D01*
X003313Y006932D01*
X003353Y006988D01*
X003383Y007050D01*
X003404Y007116D01*
X003409Y007150D01*
X002721Y007249D01*
X002721Y007249D01*
X002658Y006816D01*
X002721Y007249D01*
X002721Y007249D01*
X003409Y007150D01*
X003413Y007184D01*
X003413Y007253D01*
X003401Y007321D01*
X003379Y007386D01*
X003346Y007447D01*
X003305Y007502D01*
X003256Y007550D01*
X003200Y007590D01*
X003138Y007620D01*
X003072Y007641D01*
X002783Y007682D01*
X002494Y007724D01*
X002425Y007723D01*
X002357Y007711D01*
X002292Y007689D01*
X002231Y007657D01*
X002176Y007616D01*
X002128Y007566D01*
X002089Y007510D01*
X002058Y007448D01*
X002038Y007382D01*
X002033Y007348D01*
X002028Y007314D01*
X002029Y007245D01*
X002041Y007178D01*
X002063Y007112D01*
X002095Y007051D01*
X002136Y006996D01*
X002186Y006948D01*
X002242Y006909D01*
X002304Y006878D01*
X002369Y006858D01*
X002658Y006816D01*
X002947Y006775D01*
X002976Y006775D02*
X010139Y006775D01*
X010166Y006755D02*
X010357Y006706D01*
X011063Y006808D01*
X011233Y006909D01*
X011352Y007067D01*
X011401Y007259D01*
X011372Y007455D01*
X011271Y007625D01*
X011113Y007744D01*
X010921Y007792D01*
X010216Y007691D01*
X010045Y007590D01*
X009927Y007431D01*
X009878Y007240D01*
X009906Y007044D01*
X010007Y006873D01*
X010166Y006755D01*
X009972Y006934D02*
X003314Y006934D01*
X003396Y007092D02*
X009899Y007092D01*
X009881Y007251D02*
X003413Y007251D01*
X003367Y007409D02*
X009921Y007409D01*
X010029Y007568D02*
X003231Y007568D01*
X002783Y007682D02*
X002721Y007249D01*
X002721Y007249D01*
X002033Y007348D01*
X002721Y007249D01*
X002721Y007249D01*
X002783Y007682D01*
X002767Y007568D02*
X002767Y007568D01*
X002744Y007409D02*
X002744Y007409D01*
X002721Y007251D02*
X002721Y007251D01*
X002712Y007251D02*
X002712Y007251D01*
X002698Y007092D02*
X002698Y007092D01*
X002675Y006934D02*
X002675Y006934D01*
X002207Y006934D02*
X001420Y006934D01*
X001420Y007092D02*
X002074Y007092D01*
X002029Y007251D02*
X001420Y007251D01*
X001420Y007409D02*
X002046Y007409D01*
X002129Y007568D02*
X001420Y007568D01*
X001420Y007726D02*
X010460Y007726D01*
X010515Y007885D02*
X012366Y007885D01*
X012300Y008043D02*
X010855Y008043D01*
X009731Y007885D02*
X009526Y007885D01*
X011136Y007726D02*
X013432Y007726D01*
X013129Y007568D02*
X011306Y007568D01*
X011379Y007409D02*
X013046Y007409D01*
X013033Y007348D02*
X013721Y007249D01*
X013033Y007348D01*
X013029Y007251D02*
X011398Y007251D01*
X011358Y007092D02*
X013074Y007092D01*
X013207Y006934D02*
X011252Y006934D01*
X010836Y006775D02*
X013944Y006775D01*
X013976Y006775D02*
X021139Y006775D01*
X020972Y006934D02*
X014314Y006934D01*
X014396Y007092D02*
X020899Y007092D01*
X020881Y007251D02*
X014413Y007251D01*
X014367Y007409D02*
X020921Y007409D01*
X022379Y007409D02*
X023109Y007409D01*
X023268Y007251D02*
X022398Y007251D01*
X022358Y007092D02*
X023426Y007092D01*
X023585Y006934D02*
X022252Y006934D01*
X021836Y006775D02*
X023743Y006775D01*
X023902Y006617D02*
X014149Y006617D01*
X014370Y006458D02*
X024060Y006458D01*
X024013Y006300D02*
X014456Y006300D01*
X014479Y006141D02*
X023970Y006141D01*
X023976Y005983D02*
X014447Y005983D01*
X013013Y006300D02*
X003456Y006300D01*
X003479Y006141D02*
X012970Y006141D01*
X012976Y005983D02*
X003447Y005983D01*
X003370Y006458D02*
X013138Y006458D01*
X013743Y006617D02*
X003149Y006617D01*
X002845Y007885D02*
X001420Y007885D01*
X001420Y008043D02*
X002505Y008043D01*
X002368Y008202D02*
X001420Y008202D01*
X001420Y008360D02*
X002309Y008360D01*
X002312Y008519D02*
X001420Y008519D01*
X001420Y008677D02*
X002365Y008677D01*
X002493Y008836D02*
X001420Y008836D01*
X001420Y008994D02*
X003044Y008994D01*
X003157Y008836D02*
X003203Y008836D01*
X002886Y009153D02*
X001420Y009153D01*
X001420Y009311D02*
X002790Y009311D01*
X002790Y009470D02*
X001420Y009470D01*
X001420Y009628D02*
X002790Y009628D01*
X002820Y009787D02*
X001420Y009787D01*
X001420Y009945D02*
X002963Y009945D01*
X003122Y010104D02*
X001420Y010104D01*
X001420Y010262D02*
X003280Y010262D01*
X003439Y010421D02*
X001420Y010421D01*
X001420Y010579D02*
X003597Y010579D01*
X003756Y010738D02*
X001420Y010738D01*
X001420Y010896D02*
X003914Y010896D01*
X004073Y011055D02*
X001420Y011055D01*
X001420Y011213D02*
X004231Y011213D01*
X004390Y011372D02*
X001420Y011372D01*
X001420Y011530D02*
X004548Y011530D01*
X004707Y011689D02*
X001420Y011689D01*
X001420Y011847D02*
X004865Y011847D01*
X005024Y012006D02*
X001420Y012006D01*
X001420Y012164D02*
X005182Y012164D01*
X005341Y012323D02*
X001420Y012323D01*
X001420Y012481D02*
X005499Y012481D01*
X005658Y012640D02*
X001420Y012640D01*
X001420Y012798D02*
X005816Y012798D01*
X005975Y012957D02*
X001420Y012957D01*
X001420Y013115D02*
X006133Y013115D01*
X006292Y013274D02*
X001420Y013274D01*
X001420Y013432D02*
X006450Y013432D01*
X006609Y013591D02*
X001420Y013591D01*
X001420Y013749D02*
X006767Y013749D01*
X006926Y013908D02*
X001420Y013908D01*
X001420Y014066D02*
X007084Y014066D01*
X007243Y014225D02*
X001420Y014225D01*
X001420Y014383D02*
X007401Y014383D01*
X007560Y014542D02*
X001420Y014542D01*
X001420Y014700D02*
X007718Y014700D01*
X007877Y014859D02*
X001420Y014859D01*
X001420Y015017D02*
X008035Y015017D01*
X008194Y015176D02*
X001420Y015176D01*
X001420Y015334D02*
X008352Y015334D01*
X008511Y015493D02*
X001420Y015493D01*
X001420Y015651D02*
X008669Y015651D01*
X008828Y015810D02*
X001420Y015810D01*
X001420Y015968D02*
X008986Y015968D01*
X009145Y016127D02*
X001420Y016127D01*
X001420Y016285D02*
X009303Y016285D01*
X009462Y016444D02*
X001420Y016444D01*
X001420Y016602D02*
X009620Y016602D01*
X009779Y016761D02*
X001420Y016761D01*
X001420Y016919D02*
X009937Y016919D01*
X010096Y017078D02*
X001420Y017078D01*
X001420Y017236D02*
X010254Y017236D01*
X010421Y017395D02*
X001420Y017395D01*
X009116Y015334D02*
X009425Y015334D01*
X009456Y015365D02*
X009355Y015264D01*
X009300Y015132D01*
X009300Y014988D01*
X009355Y014856D01*
X009456Y014755D01*
X009588Y014700D01*
X008482Y014700D01*
X008640Y014859D02*
X009354Y014859D01*
X009300Y015017D02*
X008799Y015017D01*
X008957Y015176D02*
X009318Y015176D01*
X009456Y015365D02*
X009588Y015420D01*
X009654Y015420D01*
X009726Y015450D01*
X011074Y015450D01*
X011074Y015582D01*
X011110Y015670D01*
X011178Y015738D01*
X011266Y015774D01*
X011992Y015774D01*
X012080Y015738D01*
X012147Y015670D01*
X012184Y015582D01*
X012184Y014778D01*
X012147Y014690D01*
X012080Y014622D01*
X011992Y014586D01*
X011266Y014586D01*
X011178Y014622D01*
X011110Y014690D01*
X011074Y014778D01*
X011074Y014910D01*
X009988Y014910D01*
X009965Y014856D01*
X009864Y014755D01*
X009732Y014700D01*
X011106Y014700D01*
X011074Y014859D02*
X009966Y014859D01*
X009732Y014700D02*
X009588Y014700D01*
X008323Y014542D02*
X015791Y014542D01*
X015780Y014568D02*
X015835Y014436D01*
X015936Y014335D01*
X016068Y014280D01*
X016118Y014280D01*
X016928Y013470D01*
X014512Y013470D01*
X014470Y013511D01*
X014465Y013524D01*
X014364Y013625D01*
X014232Y013680D01*
X014088Y013680D01*
X013956Y013625D01*
X013855Y013524D01*
X013800Y013392D01*
X013800Y013350D01*
X013226Y013350D01*
X013226Y013603D01*
X012809Y013603D01*
X012809Y013757D01*
X013226Y013757D01*
X013226Y014235D01*
X013214Y014281D01*
X013190Y014322D01*
X013157Y014356D01*
X013116Y014379D01*
X013070Y014391D01*
X012809Y014391D01*
X012809Y013757D01*
X012654Y013757D01*
X012654Y013603D01*
X012236Y013603D01*
X012236Y013466D01*
X012184Y013518D01*
X012184Y014259D01*
X012147Y014347D01*
X012080Y014415D01*
X011992Y014451D01*
X011266Y014451D01*
X011178Y014415D01*
X011110Y014347D01*
X011074Y014259D01*
X011074Y013950D01*
X010439Y013950D01*
X010404Y013985D01*
X010272Y014040D01*
X010128Y014040D01*
X009996Y013985D01*
X009961Y013950D01*
X007732Y013950D01*
X010672Y016890D01*
X016021Y016890D01*
X016056Y016855D01*
X016188Y016800D01*
X016332Y016800D01*
X016464Y016855D01*
X016565Y016956D01*
X016620Y017088D01*
X016620Y017232D01*
X016565Y017364D01*
X016489Y017440D01*
X035112Y017440D01*
X035100Y017412D01*
X035100Y017362D01*
X034688Y016950D01*
X025259Y016950D01*
X025224Y016985D01*
X025092Y017040D01*
X024948Y017040D01*
X024816Y016985D01*
X024715Y016884D01*
X024660Y016752D01*
X024660Y016608D01*
X024715Y016476D01*
X024751Y016440D01*
X024715Y016404D01*
X024660Y016272D01*
X024660Y016128D01*
X024715Y015996D01*
X024816Y015895D01*
X024948Y015840D01*
X025092Y015840D01*
X025224Y015895D01*
X025259Y015930D01*
X030908Y015930D01*
X030390Y015412D01*
X030372Y015420D01*
X030228Y015420D01*
X030096Y015365D01*
X029995Y015264D01*
X029940Y015132D01*
X029940Y014988D01*
X029995Y014856D01*
X030005Y014846D01*
X029318Y014160D01*
X029268Y014160D01*
X029136Y014105D01*
X029035Y014004D01*
X028980Y013872D01*
X028980Y013830D01*
X018966Y013830D01*
X018867Y013789D01*
X018791Y013713D01*
X018548Y013470D01*
X017700Y013470D01*
X017700Y013512D01*
X017645Y013644D01*
X017544Y013745D01*
X017412Y013800D01*
X017362Y013800D01*
X016500Y014662D01*
X016500Y014712D01*
X016445Y014844D01*
X016344Y014945D01*
X016212Y015000D01*
X016068Y015000D01*
X015936Y014945D01*
X015835Y014844D01*
X015780Y014712D01*
X015780Y014568D01*
X015780Y014700D02*
X013175Y014700D01*
X013190Y014715D02*
X013157Y014682D01*
X013116Y014658D01*
X013070Y014646D01*
X012809Y014646D01*
X012809Y015103D01*
X012809Y015257D01*
X013226Y015257D01*
X013226Y015558D01*
X013214Y015604D01*
X013190Y015645D01*
X013157Y015678D01*
X013116Y015702D01*
X013070Y015714D01*
X012809Y015714D01*
X012809Y015257D01*
X012654Y015257D01*
X012654Y015103D01*
X012236Y015103D01*
X012236Y014802D01*
X012248Y014756D01*
X012272Y014715D01*
X012306Y014682D01*
X012347Y014658D01*
X012393Y014646D01*
X012654Y014646D01*
X012654Y015103D01*
X012809Y015103D01*
X013226Y015103D01*
X013226Y014802D01*
X013214Y014756D01*
X013190Y014715D01*
X013226Y014859D02*
X015849Y014859D01*
X016431Y014859D02*
X029994Y014859D01*
X029940Y015017D02*
X013226Y015017D01*
X012809Y015017D02*
X012654Y015017D01*
X012654Y014859D02*
X012809Y014859D01*
X012809Y014700D02*
X012654Y014700D01*
X012654Y014391D02*
X012393Y014391D01*
X012347Y014379D01*
X012306Y014356D01*
X012272Y014322D01*
X012248Y014281D01*
X012236Y014235D01*
X012236Y013757D01*
X012654Y013757D01*
X012654Y014391D01*
X012654Y014383D02*
X012809Y014383D01*
X012809Y014225D02*
X012654Y014225D01*
X012654Y014066D02*
X012809Y014066D01*
X012809Y013908D02*
X012654Y013908D01*
X012654Y013749D02*
X012184Y013749D01*
X012184Y013591D02*
X012236Y013591D01*
X012236Y013908D02*
X012184Y013908D01*
X012184Y014066D02*
X012236Y014066D01*
X012236Y014225D02*
X012184Y014225D01*
X012112Y014383D02*
X012361Y014383D01*
X012287Y014700D02*
X012152Y014700D01*
X012184Y014859D02*
X012236Y014859D01*
X012236Y015017D02*
X012184Y015017D01*
X012184Y015176D02*
X012654Y015176D01*
X012654Y015257D02*
X012236Y015257D01*
X012236Y015558D01*
X012248Y015604D01*
X012272Y015645D01*
X012306Y015678D01*
X012347Y015702D01*
X012393Y015714D01*
X012654Y015714D01*
X012654Y015257D01*
X012654Y015334D02*
X012809Y015334D01*
X012809Y015176D02*
X029958Y015176D01*
X030065Y015334D02*
X013226Y015334D01*
X013226Y015493D02*
X030471Y015493D01*
X030629Y015651D02*
X013184Y015651D01*
X012809Y015651D02*
X012654Y015651D01*
X012654Y015493D02*
X012809Y015493D01*
X012278Y015651D02*
X012155Y015651D01*
X012184Y015493D02*
X012236Y015493D01*
X012236Y015334D02*
X012184Y015334D01*
X011074Y015493D02*
X009274Y015493D01*
X009433Y015651D02*
X011102Y015651D01*
X009750Y015968D02*
X024743Y015968D01*
X024661Y016127D02*
X009908Y016127D01*
X010067Y016285D02*
X024666Y016285D01*
X024747Y016444D02*
X010225Y016444D01*
X010384Y016602D02*
X024663Y016602D01*
X024664Y016761D02*
X010542Y016761D01*
X009591Y015810D02*
X030788Y015810D01*
X031440Y015030D02*
X031680Y015030D01*
X031680Y014988D01*
X031735Y014856D01*
X031836Y014755D01*
X031968Y014700D01*
X031152Y014700D01*
X031284Y014755D01*
X031385Y014856D01*
X031440Y014988D01*
X031440Y015030D01*
X031440Y015017D02*
X031680Y015017D01*
X031734Y014859D02*
X031386Y014859D01*
X031152Y014700D02*
X031102Y014700D01*
X030352Y013950D01*
X032574Y013950D01*
X032574Y014259D01*
X032610Y014347D01*
X032678Y014415D01*
X032714Y014430D01*
X032706Y014430D01*
X032607Y014471D01*
X032531Y014547D01*
X032531Y014547D01*
X032288Y014790D01*
X032279Y014790D01*
X032244Y014755D01*
X032112Y014700D01*
X032378Y014700D01*
X032537Y014542D02*
X030943Y014542D01*
X030785Y014383D02*
X032646Y014383D01*
X032574Y014225D02*
X030626Y014225D01*
X030468Y014066D02*
X032574Y014066D01*
X033539Y014432D02*
X033633Y014471D01*
X033830Y014668D01*
X033847Y014658D01*
X033893Y014646D01*
X034154Y014646D01*
X034154Y015103D01*
X034309Y015103D01*
X034309Y015257D01*
X034581Y015257D01*
X035378Y014460D01*
X035268Y014460D01*
X035136Y014405D01*
X035035Y014304D01*
X034980Y014172D01*
X034980Y014028D01*
X035035Y013896D01*
X035070Y013861D01*
X035070Y013559D01*
X035035Y013524D01*
X034980Y013392D01*
X034980Y013248D01*
X034988Y013230D01*
X034726Y013230D01*
X034726Y013603D01*
X034309Y013603D01*
X034309Y013757D01*
X034726Y013757D01*
X034726Y014235D01*
X034714Y014281D01*
X034690Y014322D01*
X034657Y014356D01*
X034616Y014379D01*
X034570Y014391D01*
X034309Y014391D01*
X034309Y013757D01*
X034154Y013757D01*
X034154Y013603D01*
X033736Y013603D01*
X033736Y013230D01*
X033684Y013230D01*
X033684Y014259D01*
X033647Y014347D01*
X033580Y014415D01*
X033539Y014432D01*
X033612Y014383D02*
X033861Y014383D01*
X033847Y014379D02*
X033806Y014356D01*
X033772Y014322D01*
X033748Y014281D01*
X033736Y014235D01*
X033736Y013757D01*
X034154Y013757D01*
X034154Y014391D01*
X033893Y014391D01*
X033847Y014379D01*
X033736Y014225D02*
X033684Y014225D01*
X033684Y014066D02*
X033736Y014066D01*
X033736Y013908D02*
X033684Y013908D01*
X033684Y013749D02*
X034154Y013749D01*
X034309Y013749D02*
X035070Y013749D01*
X035070Y013591D02*
X034726Y013591D01*
X034726Y013432D02*
X034997Y013432D01*
X034980Y013274D02*
X034726Y013274D01*
X033736Y013274D02*
X033684Y013274D01*
X033684Y013432D02*
X033736Y013432D01*
X033736Y013591D02*
X033684Y013591D01*
X034154Y013908D02*
X034309Y013908D01*
X034309Y014066D02*
X034154Y014066D01*
X034154Y014225D02*
X034309Y014225D01*
X034309Y014383D02*
X034154Y014383D01*
X034309Y014646D02*
X034570Y014646D01*
X034616Y014658D01*
X034657Y014682D01*
X034690Y014715D01*
X034714Y014756D01*
X034726Y014802D01*
X034726Y015103D01*
X034309Y015103D01*
X034309Y014646D01*
X034309Y014700D02*
X034154Y014700D01*
X034154Y014859D02*
X034309Y014859D01*
X034309Y015017D02*
X034154Y015017D01*
X034309Y015176D02*
X034663Y015176D01*
X034726Y015017D02*
X034821Y015017D01*
X034726Y014859D02*
X034980Y014859D01*
X035138Y014700D02*
X034675Y014700D01*
X034601Y014383D02*
X035114Y014383D01*
X035002Y014225D02*
X034726Y014225D01*
X034726Y014066D02*
X034980Y014066D01*
X035030Y013908D02*
X034726Y013908D01*
X035297Y014542D02*
X033703Y014542D01*
X032112Y014700D02*
X031968Y014700D01*
X029858Y014700D02*
X016500Y014700D01*
X016620Y014542D02*
X029700Y014542D01*
X029541Y014383D02*
X016779Y014383D01*
X016937Y014225D02*
X029383Y014225D01*
X029097Y014066D02*
X017096Y014066D01*
X017254Y013908D02*
X028995Y013908D01*
X035425Y016444D02*
X066940Y016444D01*
X066940Y016602D02*
X035584Y016602D01*
X035742Y016761D02*
X066940Y016761D01*
X066940Y016919D02*
X035901Y016919D01*
X036187Y017078D02*
X066940Y017078D01*
X066940Y017236D02*
X036287Y017236D01*
X036300Y017395D02*
X066940Y017395D01*
X066940Y016285D02*
X053526Y016285D01*
X053735Y016127D02*
X066940Y016127D01*
X066940Y015968D02*
X053894Y015968D01*
X054052Y015810D02*
X066940Y015810D01*
X066940Y015651D02*
X054211Y015651D01*
X054369Y015493D02*
X066940Y015493D01*
X062455Y015017D02*
X054845Y015017D01*
X055003Y014859D02*
X056469Y014859D01*
X056360Y014700D02*
X055162Y014700D01*
X056931Y014859D02*
X062297Y014859D01*
X062290Y012700D02*
X062660Y012700D01*
X062660Y012660D01*
X062290Y012660D01*
X062290Y012700D01*
X062660Y012660D02*
X062700Y012660D01*
X062700Y012130D01*
X062908Y012130D01*
X062910Y012132D01*
X062910Y011269D01*
X062727Y011249D01*
X062553Y011154D01*
X062429Y011000D01*
X062229Y010315D01*
X062251Y010119D01*
X062346Y009945D01*
X061827Y009945D01*
X061779Y009925D02*
X061962Y010001D01*
X062102Y010141D01*
X062177Y010324D01*
X062177Y011036D01*
X062102Y011219D01*
X061962Y011359D01*
X061779Y011435D01*
X061581Y011435D01*
X061398Y011359D01*
X061390Y011351D01*
X060672Y012070D01*
X060933Y012070D01*
X061180Y012317D01*
X061427Y012070D01*
X061933Y012070D01*
X062222Y012360D01*
X062452Y012130D01*
X062660Y012130D01*
X062660Y012660D01*
X062660Y012640D02*
X062700Y012640D01*
X062700Y012481D02*
X062660Y012481D01*
X062660Y012323D02*
X062700Y012323D01*
X062700Y012164D02*
X062660Y012164D01*
X062418Y012164D02*
X062027Y012164D01*
X062185Y012323D02*
X062260Y012323D01*
X063450Y012132D02*
X063452Y012130D01*
X063660Y012130D01*
X063660Y012660D01*
X063700Y012660D01*
X063700Y012130D01*
X063908Y012130D01*
X064110Y012332D01*
X064110Y010744D01*
X063972Y010769D01*
X063779Y010727D01*
X063616Y010614D01*
X063570Y010541D01*
X063570Y010914D01*
X063529Y011013D01*
X063453Y011089D01*
X063450Y011092D01*
X063450Y012132D01*
X063450Y012006D02*
X064110Y012006D01*
X064110Y012164D02*
X063942Y012164D01*
X064100Y012323D02*
X064110Y012323D01*
X063700Y012323D02*
X063660Y012323D01*
X063660Y012481D02*
X063700Y012481D01*
X063700Y012640D02*
X063660Y012640D01*
X063660Y012164D02*
X063700Y012164D01*
X062910Y012006D02*
X060736Y012006D01*
X060895Y011847D02*
X062910Y011847D01*
X062910Y011689D02*
X061053Y011689D01*
X061212Y011530D02*
X062910Y011530D01*
X062910Y011372D02*
X061932Y011372D01*
X062104Y011213D02*
X062661Y011213D01*
X062474Y011055D02*
X062170Y011055D01*
X062177Y010896D02*
X062399Y010896D01*
X062353Y010738D02*
X062177Y010738D01*
X062177Y010579D02*
X062306Y010579D01*
X062260Y010421D02*
X062177Y010421D01*
X062152Y010262D02*
X062235Y010262D01*
X062259Y010104D02*
X062065Y010104D01*
X062346Y009945D02*
X062500Y009821D01*
X062690Y009766D01*
X062887Y009787D01*
X063030Y009865D01*
X063030Y007132D01*
X061868Y005970D01*
X058444Y005970D01*
X058482Y006120D01*
X058454Y006316D01*
X058353Y006487D01*
X058194Y006605D01*
X058003Y006654D01*
X057623Y006599D01*
X057362Y006860D01*
X057369Y006858D01*
X057658Y006816D01*
X057721Y007249D01*
X057721Y007249D01*
X058409Y007150D01*
X058404Y007116D01*
X058383Y007050D01*
X058353Y006988D01*
X058313Y006932D01*
X058265Y006883D01*
X058210Y006842D01*
X058149Y006809D01*
X058084Y006787D01*
X058016Y006776D01*
X057947Y006775D01*
X057658Y006816D01*
X057721Y007249D01*
X057721Y007249D01*
X058409Y007150D01*
X058413Y007184D01*
X058413Y007253D01*
X058401Y007321D01*
X058379Y007386D01*
X058346Y007447D01*
X058305Y007502D01*
X058256Y007550D01*
X058200Y007590D01*
X058138Y007620D01*
X058072Y007641D01*
X057783Y007682D01*
X057749Y007687D01*
X057915Y007853D01*
X058160Y007741D01*
X058357Y007734D01*
X058543Y007804D01*
X058687Y007939D01*
X058769Y008119D01*
X058776Y008316D01*
X058734Y008430D01*
X061123Y008430D01*
X061163Y008334D01*
X061334Y008163D01*
X061559Y008070D01*
X061801Y008070D01*
X062026Y008163D01*
X062197Y008334D01*
X062290Y008559D01*
X062290Y008801D01*
X062197Y009026D01*
X062026Y009197D01*
X061801Y009290D01*
X061559Y009290D01*
X061334Y009197D01*
X061163Y009026D01*
X061140Y008970D01*
X060330Y008970D01*
X060330Y009865D01*
X060473Y009787D01*
X060670Y009766D01*
X060860Y009821D01*
X061014Y009945D01*
X061533Y009945D01*
X061581Y009925D02*
X061779Y009925D01*
X061581Y009925D02*
X061398Y010001D01*
X061258Y010141D01*
X061183Y010324D01*
X061183Y010796D01*
X059970Y012008D01*
X059970Y010552D01*
X060048Y010474D01*
X059976Y010720D01*
X059997Y010917D01*
X060092Y011091D01*
X060246Y011215D01*
X060436Y011270D01*
X060633Y011249D01*
X060807Y011154D01*
X060931Y011000D01*
X061131Y010315D01*
X061109Y010119D01*
X061014Y009945D01*
X061101Y010104D02*
X061295Y010104D01*
X061208Y010262D02*
X061125Y010262D01*
X061100Y010421D02*
X061183Y010421D01*
X061183Y010579D02*
X061054Y010579D01*
X061007Y010738D02*
X061183Y010738D01*
X061082Y010896D02*
X060961Y010896D01*
X060924Y011055D02*
X060886Y011055D01*
X060765Y011213D02*
X060699Y011213D01*
X060607Y011372D02*
X059970Y011372D01*
X059970Y011530D02*
X060448Y011530D01*
X060290Y011689D02*
X059970Y011689D01*
X059970Y011847D02*
X060131Y011847D01*
X059973Y012006D02*
X059970Y012006D01*
X061027Y012164D02*
X061333Y012164D01*
X063450Y011847D02*
X064110Y011847D01*
X064110Y011689D02*
X063450Y011689D01*
X063450Y011530D02*
X064110Y011530D01*
X064110Y011372D02*
X063450Y011372D01*
X063450Y011213D02*
X064110Y011213D01*
X064110Y011055D02*
X063487Y011055D01*
X063570Y010896D02*
X064110Y010896D01*
X063829Y010738D02*
X063570Y010738D01*
X063570Y010579D02*
X063594Y010579D01*
X061428Y011372D02*
X061370Y011372D01*
X060244Y011213D02*
X059970Y011213D01*
X059970Y011055D02*
X060072Y011055D01*
X059995Y010896D02*
X059970Y010896D01*
X059970Y010738D02*
X059977Y010738D01*
X059970Y010579D02*
X060017Y010579D01*
X060330Y009787D02*
X060477Y009787D01*
X060330Y009628D02*
X063030Y009628D01*
X063030Y009470D02*
X060330Y009470D01*
X060330Y009311D02*
X063030Y009311D01*
X063030Y009153D02*
X062070Y009153D01*
X062210Y008994D02*
X063030Y008994D01*
X063030Y008836D02*
X062276Y008836D01*
X062290Y008677D02*
X063030Y008677D01*
X063030Y008519D02*
X062273Y008519D01*
X062208Y008360D02*
X063030Y008360D01*
X063030Y008202D02*
X062064Y008202D01*
X061296Y008202D02*
X058772Y008202D01*
X058760Y008360D02*
X061152Y008360D01*
X061150Y008994D02*
X060330Y008994D01*
X060330Y009153D02*
X061290Y009153D01*
X060742Y009787D02*
X062618Y009787D01*
X062883Y009787D02*
X063030Y009787D01*
X063030Y008043D02*
X058735Y008043D01*
X058629Y007885D02*
X063030Y007885D01*
X063030Y007726D02*
X057788Y007726D01*
X057783Y007682D02*
X057721Y007249D01*
X057721Y007249D01*
X057783Y007682D01*
X057767Y007568D02*
X057767Y007568D01*
X057744Y007409D02*
X057744Y007409D01*
X057721Y007251D02*
X057721Y007251D01*
X057721Y007249D02*
X057721Y007249D01*
X057033Y007348D01*
X057028Y007314D01*
X057029Y007245D01*
X057041Y007178D01*
X057063Y007112D01*
X057095Y007051D01*
X057136Y006996D01*
X057186Y006948D01*
X057212Y006930D01*
X055249Y006930D01*
X055352Y007067D01*
X055401Y007259D01*
X055372Y007455D01*
X055328Y007530D01*
X057103Y007530D01*
X057089Y007510D01*
X057058Y007448D01*
X057038Y007382D01*
X057033Y007348D01*
X057721Y007249D01*
X057712Y007251D02*
X057712Y007251D01*
X057698Y007092D02*
X057698Y007092D01*
X057675Y006934D02*
X057675Y006934D01*
X057447Y006775D02*
X057944Y006775D01*
X057976Y006775D02*
X062673Y006775D01*
X062515Y006617D02*
X058149Y006617D01*
X058370Y006458D02*
X062356Y006458D01*
X062198Y006300D02*
X058456Y006300D01*
X058479Y006141D02*
X062039Y006141D01*
X061881Y005983D02*
X058447Y005983D01*
X057743Y006617D02*
X057605Y006617D01*
X057207Y006934D02*
X055252Y006934D01*
X055358Y007092D02*
X057074Y007092D01*
X057029Y007251D02*
X055398Y007251D01*
X055379Y007409D02*
X057046Y007409D01*
X058231Y007568D02*
X063030Y007568D01*
X063030Y007409D02*
X058367Y007409D01*
X058413Y007251D02*
X063030Y007251D01*
X062990Y007092D02*
X058396Y007092D01*
X058314Y006934D02*
X062832Y006934D01*
X054001Y007530D02*
X053927Y007431D01*
X053878Y007240D01*
X053906Y007044D01*
X053974Y006930D01*
X047311Y006930D01*
X047313Y006932D01*
X047353Y006988D01*
X047383Y007050D01*
X047404Y007116D01*
X047409Y007150D01*
X046721Y007249D01*
X046721Y007249D01*
X047409Y007150D01*
X047413Y007184D01*
X047413Y007253D01*
X047401Y007321D01*
X047379Y007386D01*
X047346Y007447D01*
X047305Y007502D01*
X047256Y007550D01*
X047200Y007590D01*
X047138Y007620D01*
X047072Y007641D01*
X046783Y007682D01*
X046494Y007724D01*
X046425Y007723D01*
X046357Y007711D01*
X046292Y007689D01*
X046231Y007657D01*
X046176Y007616D01*
X046128Y007566D01*
X046089Y007510D01*
X046058Y007448D01*
X046038Y007382D01*
X046033Y007348D01*
X046028Y007314D01*
X046029Y007245D01*
X046041Y007178D01*
X046063Y007112D01*
X046095Y007051D01*
X046136Y006996D01*
X046186Y006948D01*
X046212Y006930D01*
X044249Y006930D01*
X044352Y007067D01*
X044401Y007259D01*
X044372Y007455D01*
X044271Y007625D01*
X044113Y007744D01*
X043921Y007792D01*
X043796Y007775D01*
X044092Y008070D01*
X046480Y008070D01*
X046511Y008037D01*
X047160Y007741D01*
X047357Y007734D01*
X047543Y007804D01*
X047687Y007939D01*
X047747Y008070D01*
X050228Y008070D01*
X050651Y007647D01*
X050727Y007571D01*
X050826Y007530D01*
X054001Y007530D01*
X053921Y007409D02*
X047367Y007409D01*
X047413Y007251D02*
X053881Y007251D01*
X053899Y007092D02*
X047396Y007092D01*
X047314Y006934D02*
X053972Y006934D01*
X050736Y007568D02*
X047231Y007568D01*
X046783Y007682D02*
X046721Y007249D01*
X046721Y007249D01*
X046033Y007348D01*
X046721Y007249D01*
X046721Y007249D01*
X046783Y007682D01*
X046767Y007568D02*
X046767Y007568D01*
X046744Y007409D02*
X046744Y007409D01*
X046721Y007251D02*
X046721Y007251D01*
X046712Y007251D02*
X046712Y007251D01*
X046074Y007092D02*
X044358Y007092D01*
X044398Y007251D02*
X046029Y007251D01*
X046046Y007409D02*
X044379Y007409D01*
X044306Y007568D02*
X046129Y007568D01*
X046845Y007885D02*
X043906Y007885D01*
X044065Y008043D02*
X046505Y008043D01*
X047629Y007885D02*
X050414Y007885D01*
X050255Y008043D02*
X047735Y008043D01*
X050572Y007726D02*
X044136Y007726D01*
X042891Y007290D02*
X042878Y007240D01*
X042906Y007044D01*
X042974Y006930D01*
X036311Y006930D01*
X036313Y006932D01*
X036353Y006988D01*
X036383Y007050D01*
X036404Y007116D01*
X036409Y007150D01*
X035721Y007249D01*
X035721Y007249D01*
X036409Y007150D01*
X036413Y007184D01*
X036413Y007253D01*
X036401Y007321D01*
X036379Y007386D01*
X036346Y007447D01*
X036305Y007502D01*
X036256Y007550D01*
X036200Y007590D01*
X036138Y007620D01*
X036072Y007641D01*
X035783Y007682D01*
X035494Y007724D01*
X035425Y007723D01*
X035357Y007711D01*
X035292Y007689D01*
X035231Y007657D01*
X035176Y007616D01*
X035128Y007566D01*
X035089Y007510D01*
X035058Y007448D01*
X035038Y007382D01*
X035033Y007348D01*
X035028Y007314D01*
X035029Y007245D01*
X035041Y007178D01*
X035063Y007112D01*
X035095Y007051D01*
X035136Y006996D01*
X035186Y006948D01*
X035212Y006930D01*
X033249Y006930D01*
X033352Y007067D01*
X033401Y007259D01*
X033372Y007455D01*
X033271Y007625D01*
X033113Y007744D01*
X032921Y007792D01*
X032216Y007691D01*
X032045Y007590D01*
X031927Y007431D01*
X031878Y007240D01*
X031906Y007044D01*
X031974Y006930D01*
X027900Y006930D01*
X027900Y006972D01*
X027845Y007104D01*
X027744Y007205D01*
X027612Y007260D01*
X027468Y007260D01*
X027336Y007205D01*
X027301Y007170D01*
X026219Y007170D01*
X026184Y007205D01*
X026052Y007260D01*
X025908Y007260D01*
X025776Y007205D01*
X025675Y007104D01*
X025620Y006972D01*
X025620Y006930D01*
X025311Y006930D01*
X025313Y006932D01*
X025353Y006988D01*
X025383Y007050D01*
X025404Y007116D01*
X025409Y007150D01*
X024721Y007249D01*
X024721Y007249D01*
X025409Y007150D01*
X025413Y007184D01*
X025413Y007253D01*
X025401Y007321D01*
X025391Y007350D01*
X029701Y007350D01*
X029796Y007255D01*
X029928Y007200D01*
X030072Y007200D01*
X030204Y007255D01*
X030305Y007356D01*
X030360Y007488D01*
X030360Y007530D01*
X031794Y007530D01*
X031893Y007571D01*
X032058Y007736D01*
X032200Y007741D01*
X032849Y008037D01*
X032984Y008182D01*
X032993Y008205D01*
X033027Y008171D01*
X033126Y008130D01*
X035424Y008130D01*
X035511Y008037D01*
X036160Y007741D01*
X036219Y007739D01*
X036627Y007331D01*
X036726Y007290D01*
X042891Y007290D01*
X042881Y007251D02*
X036413Y007251D01*
X036396Y007092D02*
X042899Y007092D01*
X042972Y006934D02*
X036314Y006934D01*
X035721Y007249D02*
X035721Y007249D01*
X035783Y007682D01*
X035721Y007249D01*
X035033Y007348D01*
X035721Y007249D01*
X035721Y007249D01*
X035721Y007251D02*
X035721Y007251D01*
X035712Y007251D02*
X035712Y007251D01*
X035744Y007409D02*
X035744Y007409D01*
X035767Y007568D02*
X035767Y007568D01*
X035845Y007885D02*
X032515Y007885D01*
X032460Y007726D02*
X032048Y007726D01*
X032029Y007568D02*
X031884Y007568D01*
X031921Y007409D02*
X030327Y007409D01*
X030194Y007251D02*
X031881Y007251D01*
X031899Y007092D02*
X027850Y007092D01*
X027900Y006934D02*
X031972Y006934D01*
X033252Y006934D02*
X035207Y006934D01*
X035074Y007092D02*
X033358Y007092D01*
X033398Y007251D02*
X035029Y007251D01*
X035046Y007409D02*
X033379Y007409D01*
X033306Y007568D02*
X035129Y007568D01*
X035505Y008043D02*
X032855Y008043D01*
X032992Y008202D02*
X032997Y008202D01*
X033136Y007726D02*
X036232Y007726D01*
X036231Y007568D02*
X036391Y007568D01*
X036367Y007409D02*
X036549Y007409D01*
X029806Y007251D02*
X027634Y007251D01*
X027446Y007251D02*
X026074Y007251D01*
X025886Y007251D02*
X025413Y007251D01*
X025396Y007092D02*
X025670Y007092D01*
X025620Y006934D02*
X025314Y006934D01*
X024036Y005824D02*
X019165Y005824D01*
X019254Y005666D02*
X021604Y005666D01*
X020764Y005507D02*
X019259Y005507D01*
X019178Y005349D02*
X020639Y005349D01*
X020589Y005190D02*
X018033Y005190D01*
X018191Y005032D02*
X020588Y005032D01*
X020245Y004873D02*
X018260Y004873D01*
X018290Y004715D02*
X020053Y004715D01*
X019894Y004556D02*
X018289Y004556D01*
X017100Y004873D02*
X015489Y004873D01*
X015633Y004729D02*
X015633Y004729D01*
X015647Y004715D02*
X017070Y004715D01*
X017071Y004556D02*
X015749Y004556D01*
X015750Y004398D02*
X016796Y004398D01*
X016637Y004239D02*
X015750Y004239D01*
X015750Y004081D02*
X016479Y004081D01*
X016320Y003922D02*
X015969Y003922D01*
X016101Y003764D02*
X016162Y003764D01*
X015330Y005032D02*
X017169Y005032D01*
X017327Y005190D02*
X015172Y005190D01*
X013675Y006934D02*
X013675Y006934D01*
X013698Y007092D02*
X013698Y007092D01*
X013721Y007249D02*
X013721Y007249D01*
X013712Y007251D02*
X013712Y007251D01*
X006254Y007885D02*
X003629Y007885D01*
X003735Y008043D02*
X006095Y008043D01*
X013226Y013432D02*
X013817Y013432D01*
X013921Y013591D02*
X013226Y013591D01*
X013226Y013908D02*
X016491Y013908D01*
X016332Y014066D02*
X013226Y014066D01*
X013226Y014225D02*
X016174Y014225D01*
X015888Y014383D02*
X013101Y014383D01*
X011146Y014383D02*
X008165Y014383D01*
X008006Y014225D02*
X011074Y014225D01*
X011074Y014066D02*
X007848Y014066D01*
X012809Y013749D02*
X016649Y013749D01*
X016808Y013591D02*
X014399Y013591D01*
X017535Y013749D02*
X018827Y013749D01*
X018669Y013591D02*
X017667Y013591D01*
X016528Y016919D02*
X024750Y016919D01*
X016616Y017078D02*
X034816Y017078D01*
X034974Y017236D02*
X016618Y017236D01*
X016535Y017395D02*
X035100Y017395D01*
X044252Y006934D02*
X046207Y006934D01*
X051177Y002337D02*
X051221Y002337D01*
X051117Y002179D02*
X051380Y002179D01*
X051538Y002020D02*
X050981Y002020D01*
X040498Y002020D02*
X039981Y002020D01*
X040117Y002179D02*
X040340Y002179D01*
X040181Y002337D02*
X040177Y002337D01*
X039243Y002179D02*
X038980Y002179D01*
X039139Y002337D02*
X039183Y002337D01*
X039379Y002020D02*
X038822Y002020D01*
X028379Y002020D02*
X027842Y002020D01*
X028000Y002179D02*
X028243Y002179D01*
X028183Y002337D02*
X028159Y002337D01*
X007498Y002020D02*
X006981Y002020D01*
X007117Y002179D02*
X007340Y002179D01*
X007181Y002337D02*
X007177Y002337D01*
X001420Y001703D02*
X066940Y001703D01*
X066940Y001545D02*
X001420Y001545D01*
X061981Y002020D02*
X062518Y002020D01*
X062360Y002179D02*
X062117Y002179D01*
X062177Y002337D02*
X062201Y002337D01*
M02*
