%
M48
M72
T01C0.0120
T02C0.0315
T03C0.0354
T04C0.0400
%
T01
X7980Y4620
X18900Y5580
X22140Y3480
X21540Y3240
X25980Y6900
X27540Y6900
X30000Y7560
X33900Y9420
X35460Y9660
X33120Y10980
X32520Y11040
X29820Y9480
X23700Y8100
X23580Y7620
X20100Y8280
X12660Y8100
X12420Y9240
X5460Y9420
X4500Y8580
X16740Y11760
X18600Y11760
X18840Y13080
X17340Y13440
X14460Y13440
X14160Y13320
X10200Y13680
X9660Y15060
X16140Y14640
X16200Y15180
X16260Y17160
X25020Y16680
X25020Y16200
X30300Y15060
X31080Y15060
X32040Y15060
X30720Y14340
X29340Y13800
X30180Y13500
X29880Y13260
X29580Y13260
X35340Y13320
X36180Y13320
X36480Y13320
X36300Y13740
X35340Y14100
X35880Y15060
X37320Y15060
X35940Y17340
X35460Y17340
X38340Y12000
X38220Y11700
X36900Y7920
X55440Y14340
X56700Y14580
X62940Y14820
T02
X6680Y2680
X5553Y2842
X4517Y3315
X3657Y4061
X3041Y5018
X2721Y6111
X2721Y7249
X3041Y8342
X3657Y9299
X4517Y10045
X5553Y10518
X6680Y10680
X7807Y10518
X8843Y10045
X9703Y9299
X10319Y8342
X14041Y8342
X14657Y9299
X15517Y10045
X16553Y10518
X17680Y10680
X18807Y10518
X19843Y10045
X20703Y9299
X21319Y8342
X25041Y8342
X25657Y9299
X26517Y10045
X27553Y10518
X28680Y10680
X29807Y10518
X30843Y10045
X31703Y9299
X32319Y8342
X36041Y8342
X36657Y9299
X37517Y10045
X38553Y10518
X39680Y10680
X40807Y10518
X41843Y10045
X42703Y9299
X43319Y8342
X47041Y8342
X47657Y9299
X48517Y10045
X49553Y10518
X50680Y10680
X51807Y10518
X52843Y10045
X53703Y9299
X54319Y8342
X58041Y8342
X58657Y9299
X59517Y10045
X60553Y10518
X61680Y10680
X62807Y10518
X63843Y10045
X64703Y9299
X65319Y8342
X65639Y7249
X65319Y5018
X64703Y4061
X63843Y3315
X62807Y2842
X61680Y2680
X60553Y2842
X59517Y3315
X58657Y4061
X58041Y5018
X54319Y5018
X53703Y4061
X52843Y3315
X51807Y2842
X50680Y2680
X49553Y2842
X48517Y3315
X47657Y4061
X47041Y5018
X43319Y5018
X42703Y4061
X41843Y3315
X40807Y2842
X39680Y2680
X38553Y2842
X37517Y3315
X36657Y4061
X36041Y5018
X32319Y5018
X31703Y4061
X30843Y3315
X29807Y2842
X28680Y2680
X27553Y2842
X26517Y3315
X25657Y4061
X25041Y5018
X21319Y5018
X20703Y4061
X19843Y3315
X18807Y2842
X17680Y2680
X16553Y2842
X15517Y3315
X14657Y4061
X14041Y5018
X10319Y5018
X9703Y4061
X8843Y3315
X7807Y2842
X13721Y6111
X13721Y7249
X10639Y7249
X21639Y7249
X24721Y7249
X24721Y6111
X32639Y7249
X35721Y7249
X35721Y6111
X43639Y7249
X46721Y7249
X46721Y6111
X54639Y7249
X57721Y7249
X57721Y6111
T03
X61680Y4680
X50680Y4680
X39680Y4680
X28680Y4680
X17680Y4680
X6680Y4680
X6680Y8680
X17680Y8680
X28680Y8680
X39680Y8680
X50680Y8680
X61680Y8680
T04
X61680Y12680
X62680Y12680
X63680Y12680
X63680Y13680
X62680Y13680
X61680Y13680
X60680Y13680
X59680Y13680
X59680Y12680
X60680Y12680
M30
