G75*
%MOIN*%
%OFA0B0*%
%FSLAX24Y24*%
%IPPOS*%
%LPD*%
%AMOC8*
5,1,8,0,0,1.08239X$1,22.5*
%
%ADD10C,0.0000*%
%ADD11C,0.0040*%
D10*
X000180Y000180D02*
X000180Y018550D01*
X068172Y018550D01*
X068172Y000180D01*
X000180Y000180D01*
D11*
X011640Y012450D02*
X011640Y012910D01*
X011870Y012680D01*
X011563Y012680D01*
X012024Y012527D02*
X012101Y012450D01*
X012254Y012450D01*
X012331Y012527D01*
X012331Y012834D01*
X012254Y012910D01*
X012101Y012910D01*
X012024Y012834D01*
X012120Y014200D02*
X011813Y014507D01*
X011813Y014584D01*
X011890Y014660D01*
X012044Y014660D01*
X012120Y014584D01*
X012274Y014584D02*
X012351Y014660D01*
X012504Y014660D01*
X012581Y014584D01*
X012581Y014277D01*
X012504Y014200D01*
X012351Y014200D01*
X012274Y014277D01*
X012120Y014200D02*
X011813Y014200D01*
X033063Y012834D02*
X033063Y012757D01*
X033140Y012680D01*
X033063Y012603D01*
X033063Y012527D01*
X033140Y012450D01*
X033294Y012450D01*
X033370Y012527D01*
X033524Y012527D02*
X033601Y012450D01*
X033754Y012450D01*
X033831Y012527D01*
X033831Y012834D01*
X033754Y012910D01*
X033601Y012910D01*
X033524Y012834D01*
X033370Y012834D02*
X033294Y012910D01*
X033140Y012910D01*
X033063Y012834D01*
X033140Y012680D02*
X033217Y012680D01*
X033313Y014200D02*
X033620Y014200D01*
X033467Y014200D02*
X033467Y014660D01*
X033620Y014507D01*
X033774Y014584D02*
X033851Y014660D01*
X034004Y014660D01*
X034081Y014584D01*
X034081Y014277D01*
X034004Y014200D01*
X033851Y014200D01*
X033774Y014277D01*
M02*
