G75*
%MOIN*%
%OFA0B0*%
%FSLAX24Y24*%
%IPPOS*%
%LPD*%
%AMOC8*
5,1,8,0,0,1.08239X$1,22.5*
%
%ADD10C,0.0000*%
%ADD11C,0.0555*%
%ADD12R,0.0300X0.0840*%
%ADD13C,0.0780*%
%ADD14OC8,0.0780*%
%ADD15R,0.0749X0.1457*%
D10*
X000180Y000180D02*
X000180Y018550D01*
X068172Y018550D01*
X068172Y000180D01*
X000180Y000180D01*
D11*
X006680Y002423D02*
X006680Y002937D01*
X005625Y003089D02*
X005481Y002595D01*
X004378Y003098D02*
X004657Y003532D01*
X003852Y004229D02*
X003462Y003892D01*
X002807Y004912D02*
X003276Y005125D01*
X002976Y006147D02*
X002466Y006074D01*
X002466Y007286D02*
X002976Y007213D01*
X003276Y008235D02*
X002807Y008448D01*
X003462Y009468D02*
X003852Y009131D01*
X004657Y009828D02*
X004378Y010262D01*
X005481Y010765D02*
X005625Y010271D01*
X006680Y010423D02*
X006680Y010937D01*
X007879Y010765D02*
X007735Y010271D01*
X008703Y009828D02*
X008982Y010262D01*
X009898Y009468D02*
X009508Y009131D01*
X010084Y008235D02*
X010553Y008448D01*
X013807Y008448D02*
X014276Y008235D01*
X014852Y009131D02*
X014462Y009468D01*
X015378Y010262D02*
X015657Y009828D01*
X016625Y010271D02*
X016481Y010765D01*
X017680Y010937D02*
X017680Y010423D01*
X018735Y010271D02*
X018879Y010765D01*
X019982Y010262D02*
X019703Y009828D01*
X020508Y009131D02*
X020898Y009468D01*
X021553Y008448D02*
X021084Y008235D01*
X021384Y007213D02*
X021894Y007286D01*
X024466Y007286D02*
X024976Y007213D01*
X025276Y008235D02*
X024807Y008448D01*
X025462Y009468D02*
X025852Y009131D01*
X026657Y009828D02*
X026378Y010262D01*
X027481Y010765D02*
X027625Y010271D01*
X028680Y010423D02*
X028680Y010937D01*
X029879Y010765D02*
X029735Y010271D01*
X030703Y009828D02*
X030982Y010262D01*
X031898Y009468D02*
X031508Y009131D01*
X032084Y008235D02*
X032553Y008448D01*
X035807Y008448D02*
X036276Y008235D01*
X036852Y009131D02*
X036462Y009468D01*
X037378Y010262D02*
X037657Y009828D01*
X038625Y010271D02*
X038481Y010765D01*
X039680Y010937D02*
X039680Y010423D01*
X040735Y010271D02*
X040879Y010765D01*
X041982Y010262D02*
X041703Y009828D01*
X042508Y009131D02*
X042898Y009468D01*
X043553Y008448D02*
X043084Y008235D01*
X043384Y007213D02*
X043894Y007286D01*
X046466Y007286D02*
X046976Y007213D01*
X047276Y008235D02*
X046807Y008448D01*
X047462Y009468D02*
X047852Y009131D01*
X048657Y009828D02*
X048378Y010262D01*
X049481Y010765D02*
X049625Y010271D01*
X050680Y010423D02*
X050680Y010937D01*
X051879Y010765D02*
X051735Y010271D01*
X052703Y009828D02*
X052982Y010262D01*
X053898Y009468D02*
X053508Y009131D01*
X054084Y008235D02*
X054553Y008448D01*
X057807Y008448D02*
X058276Y008235D01*
X058852Y009131D02*
X058462Y009468D01*
X059378Y010262D02*
X059657Y009828D01*
X060625Y010271D02*
X060481Y010765D01*
X061680Y010937D02*
X061680Y010423D01*
X062735Y010271D02*
X062879Y010765D01*
X063982Y010262D02*
X063703Y009828D01*
X064508Y009131D02*
X064898Y009468D01*
X065553Y008448D02*
X065084Y008235D01*
X065384Y007213D02*
X065894Y007286D01*
X065084Y005125D02*
X065553Y004912D01*
X064898Y003892D02*
X064508Y004229D01*
X063703Y003532D02*
X063982Y003098D01*
X062879Y002595D02*
X062735Y003089D01*
X061680Y002937D02*
X061680Y002423D01*
X060481Y002595D02*
X060625Y003089D01*
X059657Y003532D02*
X059378Y003098D01*
X058462Y003892D02*
X058852Y004229D01*
X058276Y005125D02*
X057807Y004912D01*
X054553Y004912D02*
X054084Y005125D01*
X053508Y004229D02*
X053898Y003892D01*
X052982Y003098D02*
X052703Y003532D01*
X051735Y003089D02*
X051879Y002595D01*
X050680Y002423D02*
X050680Y002937D01*
X049625Y003089D02*
X049481Y002595D01*
X048378Y003098D02*
X048657Y003532D01*
X047852Y004229D02*
X047462Y003892D01*
X046807Y004912D02*
X047276Y005125D01*
X046976Y006147D02*
X046466Y006074D01*
X043553Y004912D02*
X043084Y005125D01*
X042508Y004229D02*
X042898Y003892D01*
X041982Y003098D02*
X041703Y003532D01*
X040735Y003089D02*
X040879Y002595D01*
X039680Y002423D02*
X039680Y002937D01*
X038625Y003089D02*
X038481Y002595D01*
X037378Y003098D02*
X037657Y003532D01*
X036852Y004229D02*
X036462Y003892D01*
X035807Y004912D02*
X036276Y005125D01*
X035976Y006147D02*
X035466Y006074D01*
X032553Y004912D02*
X032084Y005125D01*
X031508Y004229D02*
X031898Y003892D01*
X030982Y003098D02*
X030703Y003532D01*
X029735Y003089D02*
X029879Y002595D01*
X028680Y002423D02*
X028680Y002937D01*
X027625Y003089D02*
X027481Y002595D01*
X026378Y003098D02*
X026657Y003532D01*
X025852Y004229D02*
X025462Y003892D01*
X024807Y004912D02*
X025276Y005125D01*
X024976Y006147D02*
X024466Y006074D01*
X021553Y004912D02*
X021084Y005125D01*
X020508Y004229D02*
X020898Y003892D01*
X019982Y003098D02*
X019703Y003532D01*
X018735Y003089D02*
X018879Y002595D01*
X017680Y002423D02*
X017680Y002937D01*
X016625Y003089D02*
X016481Y002595D01*
X015378Y003098D02*
X015657Y003532D01*
X014852Y004229D02*
X014462Y003892D01*
X013807Y004912D02*
X014276Y005125D01*
X013976Y006147D02*
X013466Y006074D01*
X010553Y004912D02*
X010084Y005125D01*
X009508Y004229D02*
X009898Y003892D01*
X008982Y003098D02*
X008703Y003532D01*
X007735Y003089D02*
X007879Y002595D01*
X010384Y007213D02*
X010894Y007286D01*
X013466Y007286D02*
X013976Y007213D01*
X032384Y007213D02*
X032894Y007286D01*
X035466Y007286D02*
X035976Y007213D01*
X054384Y007213D02*
X054894Y007286D01*
X057466Y007286D02*
X057976Y007213D01*
X057976Y006147D02*
X057466Y006074D01*
D12*
X036930Y012200D03*
X036430Y012200D03*
X035930Y012200D03*
X035430Y012200D03*
X034930Y012200D03*
X034430Y012200D03*
X033930Y012200D03*
X033430Y012200D03*
X032930Y012200D03*
X032430Y012200D03*
X031930Y012200D03*
X031430Y012200D03*
X030930Y012200D03*
X030430Y012200D03*
X030430Y016160D03*
X030930Y016160D03*
X031430Y016160D03*
X031930Y016160D03*
X032430Y016160D03*
X032930Y016160D03*
X033430Y016160D03*
X033930Y016160D03*
X034430Y016160D03*
X034930Y016160D03*
X035430Y016160D03*
X035930Y016160D03*
X036430Y016160D03*
X036930Y016160D03*
X015430Y016160D03*
X014930Y016160D03*
X014430Y016160D03*
X013930Y016160D03*
X013430Y016160D03*
X012930Y016160D03*
X012430Y016160D03*
X011930Y016160D03*
X011430Y016160D03*
X010930Y016160D03*
X010430Y016160D03*
X009930Y016160D03*
X009430Y016160D03*
X008930Y016160D03*
X008930Y012200D03*
X009430Y012200D03*
X009930Y012200D03*
X010430Y012200D03*
X010930Y012200D03*
X011430Y012200D03*
X011930Y012200D03*
X012430Y012200D03*
X012930Y012200D03*
X013430Y012200D03*
X013930Y012200D03*
X014430Y012200D03*
X014930Y012200D03*
X015430Y012200D03*
D13*
X017680Y008680D03*
X006680Y008680D03*
X006680Y004680D03*
X017680Y004680D03*
X028680Y004680D03*
X039680Y004680D03*
X050680Y004680D03*
X061680Y004680D03*
X061680Y008680D03*
X050680Y008680D03*
X039680Y008680D03*
X028680Y008680D03*
D14*
X059680Y012680D03*
X060680Y012680D03*
X061680Y012680D03*
X062680Y012680D03*
X063680Y012680D03*
X063680Y013680D03*
X062680Y013680D03*
X061680Y013680D03*
X060680Y013680D03*
X059680Y013680D03*
D15*
X027180Y013117D03*
X027180Y015243D03*
X005680Y015243D03*
X005680Y013117D03*
M02*
